<svg xmlns="http://www.w3.org/2000/svg" width="40.317" height="38.659" viewBox="0 0 40.317 38.659">
  <g id="그룹_229" data-name="그룹 229" transform="translate(-829.106 -746.572)">
    <g id="그룹_213" data-name="그룹 213" transform="translate(860.721 746.572) rotate(56)">
      <path id="패스_66" data-name="패스 66" d="M7.022,15.74c-.154-.907-.369-1.81-.518-2.717a17.053,17.053,0,0,1-.247-2.731c-.047-1.827.237-3.671.348-5.506a20.788,20.788,0,0,0-.028-2.742A4.717,4.717,0,0,0,6.262.689,4.461,4.461,0,0,0,5.911,0C2.479,1.33-.005,5.26,0,9.9c.006,5.171,3.1,9.454,7.15,10.234.053-.554.093-1.108.1-1.661A14.41,14.41,0,0,0,7.022,15.74Z" transform="translate(0 0)" fill="#58371d"/>
      <path id="패스_67" data-name="패스 67" d="M8.69,10.064C8.69,4.545,5.078.066.6,0A3.91,3.91,0,0,0,.154,1.041,4.57,4.57,0,0,0,0,2.38,20.364,20.364,0,0,0,.282,5.028c.311,1.759.789,3.51.948,5.277A16.628,16.628,0,0,1,1.3,12.965c-.043.89-.148,1.783-.195,2.673A14.018,14.018,0,0,0,1.186,18.3c.077.587.19,1.172.319,1.756C5.553,19.445,8.69,15.206,8.69,10.064Z" transform="translate(6.88 0.006)" fill="#58371d"/>
    </g>
    <g id="그룹_214" data-name="그룹 214" transform="translate(860.025 764.246) rotate(56)">
      <path id="패스_68" data-name="패스 68" d="M3.89,11.15c.378-.672.713-1.374,1.094-2.045A14.107,14.107,0,0,1,6.27,7.19c.941-1.221,2.118-2.283,3.171-3.429A17.361,17.361,0,0,0,10.884,1.95,3.842,3.842,0,0,0,11.391.9a3.6,3.6,0,0,0,.127-.631C8.466-.612,4.676.692,2.208,3.734c-2.752,3.39-2.918,7.779-.571,10.359.332-.336.654-.678.955-1.036A11.929,11.929,0,0,0,3.89,11.15Z" transform="translate(0 0)" fill="#58371d"/>
      <path id="패스_69" data-name="패스 69" d="M10.23,10.726C13.17,7.111,13.09,2.331,10.07,0a3.42,3.42,0,0,0-.861.452,3.888,3.888,0,0,0-.817.8A16.9,16.9,0,0,0,7.171,3.13c-.725,1.311-1.331,2.7-2.165,3.942A13.825,13.825,0,0,1,3.635,8.848c-.5.561-1.051,1.092-1.557,1.651a11.692,11.692,0,0,0-1.36,1.784c-.26.424-.494.865-.718,1.313C3.089,15.268,7.49,14.094,10.23,10.726Z" transform="translate(2.52 1.079)" fill="#58371d"/>
    </g>
    <g id="그룹_215" data-name="그룹 215" transform="translate(843.305 757.228) rotate(56)">
      <path id="패스_70" data-name="패스 70" d="M12.422,11.062c-.665-.621-1.294-1.293-1.962-1.911A16.446,16.446,0,0,0,8.335,7.462C6.848,6.433,5.161,5.676,3.579,4.776A20.036,20.036,0,0,1,1.322,3.267a4.559,4.559,0,0,1-.947-1A4.351,4.351,0,0,1,0,1.6C3.02-.6,7.665-.576,11.506,1.941c4.282,2.805,6.1,7.753,4.484,11.609-.489-.255-.971-.521-1.433-.813A13.863,13.863,0,0,1,12.422,11.062Z" transform="translate(1.994 0)" fill="#58371d"/>
      <path id="패스_71" data-name="패스 71" d="M4.938,12.312C.365,9.323-1.327,3.833,1.12,0A3.821,3.821,0,0,1,2.233.183a4.416,4.416,0,0,1,1.194.6A19.628,19.628,0,0,1,5.466,2.451C6.75,3.668,7.933,5.021,9.309,6.113a16.043,16.043,0,0,0,2.166,1.5c.761.446,1.56.84,2.324,1.282A13.5,13.5,0,0,1,15.955,10.4c.443.384.865.8,1.277,1.221C14.465,14.731,9.2,15.1,4.938,12.312Z" transform="translate(0 2.932)" fill="#58371d"/>
    </g>
  </g>
</svg>
