<svg xmlns="http://www.w3.org/2000/svg" width="48.319" height="58.248" viewBox="0 0 48.319 58.248">
  <g id="그룹_200" data-name="그룹 200" transform="translate(-812.64 -2682.969)">
    <rect id="사각형_163" data-name="사각형 163" width="36.969" height="18.914" transform="translate(816.383 2720.153)" fill="#fcfbfa"/>
    <path id="패스_58" data-name="패스 58" d="M382.061,139.2H343.8V119h38.259Zm-36.969-1.29h35.679V120.29H345.092Z" transform="translate(471.936 2600.508)" fill="#58371d"/>
    <rect id="사각형_164" data-name="사각형 164" width="5.158" height="12.466" rx="2.579" transform="translate(855.801 2682.969)" fill="#58371d"/>
    <path id="패스_59" data-name="패스 59" d="M385.418,71.017a3.5,3.5,0,0,1-.169-2.944A3.177,3.177,0,0,1,388.2,66.15h18.345a1.94,1.94,0,0,0,1.312-.5,4.552,4.552,0,0,0,1.508-4.714l1.181-.459a5.838,5.838,0,0,1-1.855,6.154,3.175,3.175,0,0,1-2.146.829H388.2A1.917,1.917,0,0,0,386.4,68.6a2.143,2.143,0,0,0,.141,1.835Z" transform="translate(448.448 2633.876)" fill="#58371d"/>
    <rect id="사각형_165" data-name="사각형 165" width="10.747" height="4.729" rx="2.364" transform="translate(829.494 2704.678)" fill="#fcfbfa"/>
    <path id="패스_60" data-name="패스 60" d="M383.329,89.018h-6.018a3.009,3.009,0,0,1,0-6.018h6.018a3.009,3.009,0,0,1,0,6.018Zm-6.018-4.729a1.719,1.719,0,0,0,0,3.439h6.018a1.719,1.719,0,0,0,0-3.439Z" transform="translate(454.547 2621.033)" fill="#58371d"/>
    <path id="패스_61" data-name="패스 61" d="M358.8,107.107c0-6.41,5.678-11.607,12.681-11.607s12.681,5.2,12.681,11.607Z" transform="translate(463.384 2613.906)" fill="#fcfbfa"/>
    <path id="패스_62" data-name="패스 62" d="M383.954,106.9H357.3v-.645C357.3,99.5,363.28,94,370.628,94s13.326,5.5,13.326,12.251Zm-25.342-1.29h24.032c-.368-5.745-5.617-10.317-12.016-10.317S358.98,99.861,358.612,105.607Z" transform="translate(464.239 2614.761)" fill="#58371d"/>
    <path id="패스_63" data-name="패스 63" d="M340.67,113.5h36.414a4.326,4.326,0,0,1,3.007,1.1,3.313,3.313,0,0,1,1.032,3.409H338.136s-.37-2.794,1.174-4.024A2.211,2.211,0,0,1,340.67,113.5Z" transform="translate(475.189 2603.644)" fill="#fcfbfa"/>
    <path id="패스_64" data-name="패스 64" d="M380.749,117.8H336.715l-.074-.561c-.017-.129-.4-3.172,1.412-4.612a2.845,2.845,0,0,1,1.762-.631h36.414a4.933,4.933,0,0,1,3.459,1.289,3.906,3.906,0,0,1,1.2,4.052Zm-42.862-1.29h41.857a2.752,2.752,0,0,0-.96-2.3,3.694,3.694,0,0,0-2.554-.919H339.814a1.561,1.561,0,0,0-.958.35A3.713,3.713,0,0,0,337.887,116.514Z" transform="translate(476.044 2604.499)" fill="#58371d"/>
    <rect id="사각형_166" data-name="사각형 166" width="44.277" height="6.878" rx="3.439" transform="translate(812.729 2734.339)" fill="#58371d"/>
    <rect id="사각형_167" data-name="사각형 167" width="24.933" height="6.663" rx="2.466" transform="translate(822.401 2725.097)" fill="#fcfbfa"/>
    <path id="패스_65" data-name="패스 65" d="M382.319,138.453H359.507a1.707,1.707,0,0,1-1.705-1.7V132.2a1.707,1.707,0,0,1,1.705-1.7h22.812a1.707,1.707,0,0,1,1.7,1.7v4.543A1.707,1.707,0,0,1,382.319,138.453Zm-22.812-6.663a.416.416,0,0,0-.416.415v4.543a.416.416,0,0,0,.416.415h22.812a.416.416,0,0,0,.415-.415V132.2a.416.416,0,0,0-.415-.415Z" transform="translate(463.954 2593.952)" fill="#58371d"/>
    <circle id="타원_21" data-name="타원 21" cx="2.028" cy="2.028" r="2.028" transform="translate(832.745 2726.455)" fill="#58371d"/>
  </g>
</svg>
