<svg xmlns="http://www.w3.org/2000/svg" width="54.25" height="54.249" viewBox="0 0 54.25 54.249">
  <path id="패스_792" data-name="패스 792" d="M286.71,377.517l-1.425-7.761,9.992-4.33v12.592H286.8Zm-1.7-9.279-1.6-8.659,11.866-5.147v9.344Zm-1.874-10.176-1.531-8.355,13.674-5.94v9.029Zm-1.807-9.874-1.769-9.621-.08-.423.369-.225,14.533-8.381.9-.515v13.107Zm37.591-5.6,14.81,3.5-.594,3.815-15.747,7.8Zm13.938,9.094-.989,6.428-15.272,7.339.607-6.019Zm-1.253,8.2-1.03,6.665L315.8,373.2l.62-6.033Zm-1.307,8.421-1.491,9.714h-13.49l.317-3.1ZM296.7,323.835l-.04,20.565,21.158-2.178.911-9.121Zm-.04,22.043-.013,5.332,20.472-1.888.554-5.61Zm-.027,6.811v5.543l19.746-1.491.581-5.927Zm-.013,7.036-.04,18.36h17.675l1.966-19.825Z" transform="translate(-279.477 -323.835)" fill="#58371d" fill-rule="evenodd"/>
</svg>
