<svg xmlns="http://www.w3.org/2000/svg" width="48.379" height="54.245" viewBox="0 0 48.379 54.245">
  <g id="그룹_101" data-name="그룹 101" transform="translate(0.052 -0.016)">
    <g id="그룹_45" data-name="그룹 45" transform="translate(34.048 39.982)">
      <g id="그룹_42" data-name="그룹 42">
        <circle id="타원_22" data-name="타원 22" cx="7.139" cy="7.139" r="7.139" fill="#695130"/>
      </g>
      <g id="그룹_44" data-name="그룹 44" transform="translate(7.419 7.887)">
        <g id="그룹_43" data-name="그룹 43">
          <path id="패스_72" data-name="패스 72" d="M103.638,116.919a1.181,1.181,0,0,1-.872.5c-.581,0-.706.955-.706.955a1.045,1.045,0,0,1-2.075-.249c.125-.955.83-2.823,2.781-2.823a1.063,1.063,0,0,1,1.079,1.038A1.4,1.4,0,0,1,103.638,116.919Z" transform="translate(-99.975 -115.3)" fill="#fffefe"/>
        </g>
      </g>
    </g>
    <g id="그룹_49" data-name="그룹 49" transform="translate(31.931 25.62)">
      <g id="그룹_46" data-name="그룹 46">
        <circle id="타원_23" data-name="타원 23" cx="7.139" cy="7.139" r="7.139" fill="#695130"/>
      </g>
      <g id="그룹_48" data-name="그룹 48" transform="translate(8.967 5.875)">
        <g id="그룹_47" data-name="그룹 47">
          <path id="패스_73" data-name="패스 73" d="M101.383,76.911a1.083,1.083,0,0,1-.457.872c-.457.332-.042,1.162-.042,1.2a1.049,1.049,0,0,1-1.868.955,3.018,3.018,0,0,1,.706-3.9,1.023,1.023,0,0,1,1.453.291A.992.992,0,0,1,101.383,76.911Z" transform="translate(-98.603 -75.854)" fill="#fffefe"/>
        </g>
      </g>
    </g>
    <g id="그룹_53" data-name="그룹 53" transform="translate(19.271 37.865)">
      <g id="그룹_50" data-name="그룹 50">
        <circle id="타원_24" data-name="타원 24" cx="7.139" cy="7.139" r="7.139" fill="#695130"/>
      </g>
      <g id="그룹_52" data-name="그룹 52" transform="translate(5.626 8.905)">
        <g id="그룹_51" data-name="그룹 51">
          <path id="패스_74" data-name="패스 74" d="M64.016,114.79a1.056,1.056,0,0,1-1,.042c-.5-.249-1.038.54-1.038.54a1.048,1.048,0,0,1-1.743-1.162,3.014,3.014,0,0,1,3.736-1.287,1.046,1.046,0,0,1,.5,1.411A1.2,1.2,0,0,1,64.016,114.79Z" transform="translate(-60.054 -112.654)" fill="#fffefe"/>
        </g>
      </g>
    </g>
    <g id="그룹_54" data-name="그룹 54" transform="translate(-0.052 17.38)">
      <path id="패스_75" data-name="패스 75" d="M37.535,68.1a1.134,1.134,0,0,1-.789-.332C26.411,56.647.8,44.028.551,43.862a1.046,1.046,0,0,1-.5-1.411,1.046,1.046,0,0,1,1.411-.5c1.079.54,26.192,12.951,36.818,24.324a1.053,1.053,0,0,1-.042,1.494A1.023,1.023,0,0,1,37.535,68.1Z" transform="translate(0.052 -41.848)" fill="#695130"/>
    </g>
    <g id="그룹_57" data-name="그룹 57" transform="translate(3.145 23.628)">
      <g id="그룹_55" data-name="그룹 55">
        <path id="패스_76" data-name="패스 76" d="M11.655,83.507a.851.851,0,0,1-.789-.54C7.131,73.462,6.633,66.239,9.455,61.549a9.5,9.5,0,0,1,6.6-4.649,1.28,1.28,0,0,1,.415.042c.083.042,8.966,3.9,5.936,13.947-2.906,9.754-10.17,12.453-10.46,12.536A.447.447,0,0,1,11.655,83.507Zm4.358-24.864a7.95,7.95,0,0,0-5.147,3.86C8.5,66.53,8.916,73.13,12.112,81.556a18,18,0,0,0,8.675-11.083C23.153,62.545,17.259,59.224,16.014,58.643Z" transform="translate(-7.65 -56.9)" fill="#695130"/>
      </g>
      <g id="그룹_56" data-name="그룹 56" transform="translate(4.661 0.4)">
        <path id="패스_77" data-name="패스 77" d="M19.718,79.753a.725.725,0,0,1-.5-.166.861.861,0,0,1-.166-1.2c6.807-8.8,2.864-19.3,2.823-19.384a.84.84,0,1,1,1.577-.581c.166.457,4.317,11.5-3.072,21.045A.98.98,0,0,1,19.718,79.753Z" transform="translate(-18.879 -57.863)" fill="#695130"/>
      </g>
    </g>
    <g id="그룹_60" data-name="그룹 60" transform="translate(18.572 19.191)">
      <g id="그룹_58" data-name="그룹 58">
        <path id="패스_78" data-name="패스 78" d="M49.831,57.788A6.51,6.51,0,0,1,45.1,55.8a1.682,1.682,0,0,1-.208-.374,7.571,7.571,0,0,1,5.562-8.551c6.434-1.951,10.585,1.038,10.751,1.162a.858.858,0,0,1,.208,1.162c-3.819,5.479-7.6,8.385-11.207,8.551A1.149,1.149,0,0,1,49.831,57.788Zm-3.279-2.947a4.892,4.892,0,0,0,3.611,1.245c2.864-.166,6.1-2.615,9.339-7.1a11.342,11.342,0,0,0-8.551-.5A5.727,5.727,0,0,0,46.552,54.841Z" transform="translate(-44.815 -46.212)" fill="#695130"/>
      </g>
      <g id="그룹_59" data-name="그룹 59" transform="translate(0.308 2.411)">
        <path id="패스_79" data-name="패스 79" d="M46.405,59.4a.8.8,0,0,1-.5-.166.851.851,0,0,1-.208-1.162c.208-.249,4.732-6.558,12.66-6.019a.845.845,0,0,1,.789.913.87.87,0,0,1-.913.789c-7.015-.5-11.124,5.23-11.166,5.313A.867.867,0,0,1,46.405,59.4Z" transform="translate(-45.557 -52.021)" fill="#695130"/>
      </g>
    </g>
    <g id="그룹_63" data-name="그룹 63" transform="translate(5.867 0.016)">
      <g id="그룹_61" data-name="그룹 61">
        <path id="패스_80" data-name="패스 80" d="M21.3,23.5a11.484,11.484,0,0,1-5.355-1.328.738.738,0,0,1-.291-.332c-.083-.083-5.4-10.211,4.856-17.268C30.476-2.273,39.193.591,39.566.715a.879.879,0,0,1,.54,1.038c-3.611,11.622-8.509,18.679-14.611,21A12.621,12.621,0,0,1,21.3,23.5Zm-4.275-2.657a9.646,9.646,0,0,0,7.887.291c5.313-1.992,9.921-8.592,13.283-19.052-2.283-.5-9.173-1.37-16.728,3.86C13.125,11.715,16.363,19.436,17.027,20.847Z" transform="translate(-14.208 -0.016)" fill="#695130"/>
      </g>
      <g id="그룹_62" data-name="그룹 62" transform="translate(1.688 3.534)">
        <path id="패스_81" data-name="패스 81" d="M19.116,26.948a.527.527,0,0,1-.249-.042.82.82,0,0,1-.54-1.079c.166-.581,4.524-13.864,18.513-17.268a.856.856,0,0,1,.415,1.66C24.221,13.374,19.988,26.2,19.946,26.366A.926.926,0,0,1,19.116,26.948Z" transform="translate(-18.276 -8.53)" fill="#695130"/>
      </g>
    </g>
  </g>
</svg>
