<svg xmlns="http://www.w3.org/2000/svg" width="99.693" height="80.509" viewBox="0 0 99.693 80.509">
  <g id="그룹_218" data-name="그룹 218" opacity="0.9">
    <g id="그룹_216" data-name="그룹 216" transform="translate(0 54.833)">
      <path id="패스_736" data-name="패스 736" d="M6.91,10.31h4.046v5.422L9.074,17.586H1.882L0,15.732V1.882L1.882,0H9.074l1.882,1.882V7.333H6.91V3.99l-.478-.449H4.5l-.45.449v9.635l.45.449H6.432l.478-.449Z" transform="translate(0 8.09)" fill="#14222a"/>
      <path id="패스_737" data-name="패스 737" d="M0,15.732V1.882L1.742,0h3.54L6.911,1.575V0h4.045V17.586H6.911V16.1L5.647,17.586H1.882Zm4.5-1.994H6.911V3.878H4.5l-.449.449v8.934Z" transform="translate(13.427 8.09)" fill="#14222a"/>
      <path id="패스_738" data-name="패스 738" d="M1.6,1.882,3.512,0h4.3V3.877H5.646V8.09H7.81v3.877H5.646V25.676H1.6V11.968H0V8.09H1.6Z" transform="translate(26.153 0)" fill="#14222a"/>
      <path id="패스_739" data-name="패스 739" d="M0,1.882,1.881,0H9.073l1.882,1.882v8.681H4.045v3.062l.449.449H6.432l.478-.449V12.418h4.045v3.314L9.073,17.586H1.881L0,15.732ZM4.494,3.541l-.449.449V7.053H6.91V3.99l-.478-.449Z" transform="translate(35.338 8.09)" fill="#14222a"/>
      <path id="패스_740" data-name="패스 740" d="M9.663,3.878V17.586H5.617V3.878H4.045V17.586H0V0H4.045V1.882L5.309,0H7.95L9.1,1.377,10.394,0h3.343l1.545,1.518V17.586H11.237V3.878Z" transform="translate(54.384 8.09)" fill="#3e4b35"/>
      <path id="패스_741" data-name="패스 741" d="M11.293,2.024V15.592L9.27,17.586H2L0,15.592V2.024L2,0H9.27ZM4.5,13.738H6.743l.506-.478V4.327l-.506-.449H4.5l-.449.449v8.934Z" transform="translate(72.136 8.09)" fill="#3e4b35"/>
      <path id="패스_742" data-name="패스 742" d="M5.309,0H8.343V3.878h-4.3V17.586H0V0H4.045V1.659Z" transform="translate(85.9 8.09)" fill="#3e4b35"/>
      <path id="패스_743" data-name="패스 743" d="M0,4.327V0H4.046V4.327ZM0,6.068H4.046V24.243H0Z" transform="translate(95.647 1.433)" fill="#3e4b35"/>
    </g>
    <g id="그룹_217" data-name="그룹 217" transform="translate(16.11 0)">
      <path id="패스_744" data-name="패스 744" d="M30.113,21.407c8.185-1.819,5.772-2.851,5.772-2.851-2.072-1.92-10.5-2.229-17.281-2.476-8.015-.295-14.935-.546-17.543-2.886a2.832,2.832,0,0,1-1-2.772c.99-4.86,11.076-5.861,19.18-6.665,1.917-.19,4.275-.423,5.975-.7.628-.1.532-.78-.11-.789L22.09,2.23c-1.123-.016-2.276-.031-3.421-.095-.466-.026-.806-.336-.757-.678l.232-.853a.8.8,0,0,1,.883-.549c1.022.055,2.094.069,3.138.084C25.642.19,28.645-.524,30.2.863a2.4,2.4,0,0,1,.77,2.464c-.527,2.194-4.778,2.616-11.212,3.253-6.095.6-15.305,1.517-15.865,4.264a.5.5,0,0,0,.165.545c1.519,1.362,8.848,1.631,14.737,1.846,8.725.319,16.964.621,20.127,3.552,1.634,1.515,2.172,2.844,1.643,4.066-.926,2.135-4.65,2.934-9.367,3.946l-9.839,1.938a1.118,1.118,0,0,1-1.261-.522l-.5-1.28c-.161-.409.166-1.494.724-1.6Z" transform="translate(10.849 27.626)" fill="#1d2a2f"/>
      <path id="패스_745" data-name="패스 745" d="M44.187,29.173l-7.1-20.32a.864.864,0,0,0-1.355-.388l-8.089,6.515L22.966.485A.7.7,0,0,0,21.741.278L0,28.964l32.263.314-.051-.157Z" transform="translate(11.276 0)" fill="#14222a"/>
      <path id="패스_746" data-name="패스 746" d="M67.081,3.306H0A3.066,3.066,0,0,1,2.744,0H64.336a3.065,3.065,0,0,1,2.744,3.306Z" transform="translate(0 27.625)" fill="#212e37"/>
      <rect id="사각형_239" data-name="사각형 239" width="0.731" height="2.632" rx="0.282" transform="translate(31.743 3.887) rotate(37.605)" fill="#fff"/>
      <rect id="사각형_240" data-name="사각형 240" width="0.731" height="2.632" rx="0.282" transform="translate(42.835 13.497) rotate(48.765)" fill="#fff"/>
      <rect id="사각형_241" data-name="사각형 241" width="0.731" height="2.632" rx="0.282" transform="translate(44.919 13.497) rotate(48.765)" fill="#fff"/>
    </g>
  </g>
</svg>
