<svg xmlns="http://www.w3.org/2000/svg" width="262.418" height="211.923" viewBox="0 0 262.418 211.923">
  <g id="그룹_24" data-name="그룹 24" transform="translate(0 0)">
    <g id="그룹_22" data-name="그룹 22" transform="translate(0 144.336)">
      <path id="패스_25" data-name="패스 25" d="M38.787,241.264H49.435v14.272l-4.954,4.88H25.551l-4.955-4.88V219.079l4.955-4.955H44.482l4.954,4.955v14.347H38.787v-8.8l-1.257-1.184h-5.1l-1.184,1.184v25.362l1.184,1.184h5.1l1.257-1.184Z" transform="translate(-20.596 -192.829)" fill="#26313a"/>
      <path id="패스_26" data-name="패스 26" d="M48.208,255.536V219.079l4.584-4.955h9.319l4.288,4.142v-4.142H77.047v46.292H66.4V256.5l-3.327,3.919H53.163Zm11.833-5.249H66.4V224.33H60.041l-1.184,1.183v23.514Z" transform="translate(-12.863 -192.829)" fill="#26313a"/>
      <path id="패스_27" data-name="패스 27" d="M78.591,202.443l5.028-4.955H94.932v10.2H89.239v11.09h5.694v10.206H89.239v36.086H78.591V228.989H74.376V218.783h4.215Z" transform="translate(-5.535 -197.488)" fill="#26313a"/>
      <path id="패스_28" data-name="패스 28" d="M93.265,219.079l4.954-4.955h18.931l4.955,4.955v22.85H103.914v8.059l1.184,1.184h5.1l1.257-1.184v-3.177H122.1v8.725l-4.955,4.88H98.219l-4.954-4.88Zm11.833,4.364-1.184,1.184v8.059h7.542v-8.059l-1.257-1.184Z" transform="translate(-0.245 -192.829)" fill="#26313a"/>
      <path id="패스_29" data-name="패스 29" d="M157.867,224.33v36.086H147.218V224.33h-4.14v36.086H132.43V214.124h10.649v4.955l3.327-4.955h6.951l3.031,3.625,3.4-3.625h8.8l4.069,3.994v42.3h-10.65V224.33Z" transform="translate(10.723 -192.829)" fill="#525e48"/>
      <path id="패스_30" data-name="패스 30" d="M198.663,219.45v35.715l-5.324,5.251H174.187l-5.251-5.251V219.45l5.251-5.326h19.152Zm-17.894,30.836h5.914l1.333-1.26V225.513l-1.333-1.183h-5.914l-1.183,1.183v23.514Z" transform="translate(20.946 -192.829)" fill="#525e48"/>
      <path id="패스_31" data-name="패스 31" d="M211.216,214.124H219.2V224.33H207.89v36.086H197.24V214.124h10.65v4.365Z" transform="translate(28.872 -192.829)" fill="#525e48"/>
      <path id="패스_32" data-name="패스 32" d="M217.284,211.823V200.434h10.649v11.389Zm0,4.584h10.649v47.843H217.284Z" transform="translate(34.486 -196.663)" fill="#525e48"/>
    </g>
    <g id="그룹_23" data-name="그룹 23" transform="translate(42.408)">
      <path id="패스_33" data-name="패스 33" d="M155.3,197.887c21.546-4.789,15.192-7.5,15.192-7.5-5.453-5.055-27.65-5.866-45.488-6.518-21.094-.773-39.313-1.44-46.178-7.6a7.448,7.448,0,0,1-2.632-7.295c2.607-12.793,29.157-15.426,50.488-17.54,5.049-.5,11.253-1.117,15.729-1.833,1.654-.265,1.4-2.054-.289-2.079l-7.938-.111c-2.956-.041-5.992-.084-9-.25-1.226-.068-2.122-.885-1.993-1.783l.612-2.248a2.1,2.1,0,0,1,2.323-1.444c2.691.142,5.511.182,8.259.221,9.15.129,17.055-1.751,21.15,1.9a6.3,6.3,0,0,1,2.026,6.483c-1.385,5.776-12.575,6.885-29.511,8.564-16.043,1.591-40.286,4-41.761,11.225a1.32,1.32,0,0,0,.435,1.438c4,3.584,23.29,4.291,38.792,4.858,22.965.841,44.654,1.635,52.979,9.351,4.3,3.986,5.715,7.487,4.324,10.7-2.435,5.621-12.24,7.724-24.655,10.389l-25.9,5.1a2.943,2.943,0,0,1-3.317-1.373l-1.327-3.372c-.422-1.074.438-3.931,1.909-4.22Z" transform="translate(-47.479 -68.82)" fill="#303a40"/>
      <path id="패스_34" data-name="패스 34" d="M193.223,161.524l-18.678-53.491a2.269,2.269,0,0,0-3.565-1.02l-21.295,17.147-12.32-38.156a1.841,1.841,0,0,0-3.221-.545L76.912,160.974l84.927.824-.134-.413Z" transform="translate(-47.233 -84.729)" fill="#26313a"/>
      <path id="패스_35" data-name="패스 35" d="M230.3,150.24H53.726c0-4.807,3.235-8.7,7.225-8.7H223.077c3.989,0,7.223,3.9,7.223,8.7Z" transform="translate(-53.726 -68.82)" fill="#353e48"/>
      <rect id="사각형_151" data-name="사각형 151" width="1.924" height="6.928" rx="0.752" transform="matrix(0.792, 0.61, -0.61, 0.792, 83.556, 10.231)" fill="#fff"/>
      <rect id="사각형_152" data-name="사각형 152" width="1.924" height="6.928" rx="0.752" transform="translate(112.753 35.527) rotate(48.765)" fill="#fff"/>
      <rect id="사각형_153" data-name="사각형 153" width="1.924" height="6.928" rx="0.752" transform="matrix(0.659, 0.752, -0.752, 0.659, 118.238, 35.527)" fill="#fff"/>
    </g>
  </g>
</svg>
