<svg xmlns="http://www.w3.org/2000/svg" width="59.09" height="51.713" viewBox="0 0 59.09 51.713">
  <path id="패스_2281" data-name="패스 2281" d="M675.111,456.263l-8.558-11.9a3.586,3.586,0,0,0-2.907-1.491h-.037c-4.928.053-29.791.3-35.242.068h0a2.96,2.96,0,0,0-2.6,1.349l-8.48,13.175a3.989,3.989,0,0,0-.323,3.718,9.812,9.812,0,0,0,3.759,4.794v28.609h50.832V465.111a15.217,15.217,0,0,0,3.9-5.556A3.354,3.354,0,0,0,675.111,456.263Zm-27.8-10.994c2.477-.015,4.932-.032,7.2-.051l5,11.363a10.79,10.79,0,0,1,.6,4.971,2.536,2.536,0,0,0-.386.276c-2.514,2.2-7.3,5.269-11.13,1.149a3.172,3.172,0,0,0-1.292-.824Zm-2.258.012v16.862a3.335,3.335,0,0,0-1.043.577c-1.525,1.259-3.839,2.7-6.211,2.443a6.391,6.391,0,0,1-4.27-2.733,2.533,2.533,0,0,0-.85-.7,6.358,6.358,0,0,1,.511-3.312L637.5,445.3C639.851,445.3,642.433,445.293,645.049,445.281ZM619.042,460.3a1.73,1.73,0,0,1,.144-1.614l8.479-13.175a.656.656,0,0,1,.605-.315c1.348.058,3.811.088,6.852.1l-3.987,12.182a8.642,8.642,0,0,0-.733,4.24,2.526,2.526,0,0,0-.454.286c-1.494,1.21-4.388,3.141-6.952,2.5C621.386,464.107,620.056,462.692,619.042,460.3ZM640.9,492.328H629.829l.295-19.628H640.9Zm28.4,0H643.158V470.442H627.9l-.329,21.887H622.98V466.8c3.347.534,6.66-1.643,8.388-3.043a.238.238,0,0,1,.183-.051.28.28,0,0,1,.191.108,8.541,8.541,0,0,0,5.805,3.591,7.36,7.36,0,0,0,.814.045,11.657,11.657,0,0,0,7.082-2.99,1.14,1.14,0,0,1,1.5.053c3.687,3.968,9.018,3.6,14.26-.977l.56.172c2.3,2.284,4.594,3.238,6.829,2.83a5.694,5.694,0,0,0,.7-.177Zm4.095-33.68c-.678,1.543-2.54,5.184-5.2,5.67-1.5.272-3.179-.516-4.972-2.349a2.549,2.549,0,0,0-.814-.558,13.027,13.027,0,0,0-.817-5.728L656.968,445.2c2.771-.025,5.119-.049,6.663-.065a1.327,1.327,0,0,1,1.087.551l8.558,11.9A1.072,1.072,0,0,1,673.39,458.648Z" transform="translate(-616.647 -442.874)" fill="#ac9674"/>
</svg>
