<svg xmlns="http://www.w3.org/2000/svg" width="67.904" height="49.106" viewBox="0 0 67.904 49.106">
  <g id="그룹_471" data-name="그룹 471" transform="translate(-905.737 -740.128)">
    <path id="패스_2179" data-name="패스 2179" d="M428.13,479.6l-7.13-15.2a4.731,4.731,0,0,0-4.208-2.736l-11.957-.234c2.648-4.643,4.765-9.376,4.765-12.646a15.026,15.026,0,0,0-30.051,0c0,3.161,2.12,7.67,4.835,12.15l-12.986.177a3.569,3.569,0,0,0-3.181,2.043l-7.527,15.776a2.5,2.5,0,0,0,2.24,3.573l63.111.362h.014a2.295,2.295,0,0,0,2.077-3.269ZM394.575,436.92a11.884,11.884,0,0,1,11.87,11.87c0,3.776-4.218,11.9-11.284,21.741a.131.131,0,0,1-.11.058.11.11,0,0,1-.117-.056c-5.912-7.605-12.229-17.311-12.229-21.743A11.884,11.884,0,0,1,394.575,436.92Zm-30.591,42.44,7.081-14.841a.428.428,0,0,1,.38-.246l14.926-.2c2.089,3.152,4.3,6.122,6.071,8.4a3.271,3.271,0,0,0,2.6,1.276h.065a3.266,3.266,0,0,0,2.614-1.373c1.535-2.136,3.429-4.884,5.25-7.817l13.753.269a1.6,1.6,0,0,1,1.416.922l6.55,13.961Z" transform="translate(545.292 306.363)" fill="#ac9674"/>
    <g id="그룹_422" data-name="그룹 422" transform="translate(932.99 747.093)">
      <path id="패스_2180" data-name="패스 2180" d="M416.9,461.575a7,7,0,1,1,7-7A7.011,7.011,0,0,1,416.9,461.575Zm0-11.364a4.361,4.361,0,1,0,4.36,4.361A4.365,4.365,0,0,0,416.9,450.211Z" transform="translate(-409.896 -447.568)" fill="#ac9674"/>
    </g>
  </g>
</svg>
