<svg xmlns="http://www.w3.org/2000/svg" width="53.163" height="72.121" viewBox="0 0 53.163 72.121">
  <g id="그룹_510" data-name="그룹 510" transform="translate(-933.419 -2466.879)">
    <path id="패스_2282" data-name="패스 2282" d="M169.508,811.217H158.651l.028-1.252a2.811,2.811,0,0,0-2.81-2.873h-2.735a.349.349,0,0,1-.349-.349v-1.58a2.813,2.813,0,0,0-2.811-2.811h-7.325a2.814,2.814,0,0,0-2.811,2.811v2.154a.35.35,0,0,1-.35.349h-3.159a2.813,2.813,0,0,0-2.811,2.809v.208h-10.4a3.389,3.389,0,0,0-3.385,3.385v57.02a3.389,3.389,0,0,0,3.385,3.385h46.392a3.389,3.389,0,0,0,3.385-3.385V814.6A3.389,3.389,0,0,0,169.508,811.217Zm-33.527-.742a.348.348,0,0,1,.349-.347h3.159a2.814,2.814,0,0,0,2.811-2.81v-2.154a.349.349,0,0,1,.349-.349h7.325a.349.349,0,0,1,.349.349v1.58a2.814,2.814,0,0,0,2.811,2.811h2.735a.35.35,0,0,1,.349.357l-.114,5.161a.351.351,0,0,1-.349.34h0l-19.425-.124a.343.343,0,0,1-.346-.344Zm34.451,60.614a.925.925,0,0,1-.924.924H123.115a.925.925,0,0,1-.924-.924v-57.02a.925.925,0,0,1,.924-.924h10.4v1.8a2.814,2.814,0,0,0,2.793,2.806l19.425.124h.018a2.823,2.823,0,0,0,2.81-2.748l.032-1.448h10.912a.925.925,0,0,1,.924.924Z" transform="translate(813.689 1664.526)" fill="#7b7b7b"/>
    <g id="그룹_466" data-name="그룹 466" transform="translate(940.744 2500.631)">
      <path id="패스_2187" data-name="패스 2187" d="M137.46,868.853a5.827,5.827,0,1,1,5.827-5.827A5.834,5.834,0,0,1,137.46,868.853Zm0-9.193a3.366,3.366,0,1,0,3.365,3.366A3.369,3.369,0,0,0,137.46,859.66Z" transform="translate(-131.633 -857.198)" fill="#7b7b7b"/>
    </g>
    <g id="그룹_469" data-name="그룹 469" transform="translate(940.744 2514.563)">
      <path id="패스_2188" data-name="패스 2188" d="M137.46,891.492a5.827,5.827,0,1,1,5.827-5.827A5.835,5.835,0,0,1,137.46,891.492Zm0-9.193a3.366,3.366,0,1,0,3.365,3.366A3.369,3.369,0,0,0,137.46,882.3Z" transform="translate(-131.633 -879.837)" fill="#7b7b7b"/>
    </g>
    <path id="패스_2283" data-name="패스 2283" d="M137.46,833.859a5.827,5.827,0,1,0,5.827,5.827A5.834,5.834,0,0,0,137.46,833.859Zm0,2.462a3.349,3.349,0,0,1,2.32.934l-5.218,4.131a3.356,3.356,0,0,1,2.9-5.065Zm0,6.731a3.352,3.352,0,0,1-.881-.123l4.24-3.357c0,.039.006.076.006.114A3.369,3.369,0,0,1,137.46,843.052Z" transform="translate(809.111 1652.409)" fill="#7b7b7b"/>
    <g id="그룹_467" data-name="그룹 467" transform="translate(952.89 2493.306)">
      <rect id="사각형_387" data-name="사각형 387" width="25.279" height="2.462" transform="translate(0)" fill="#7b7b7b"/>
    </g>
    <g id="그룹_468" data-name="그룹 468" transform="translate(952.89 2507.238)">
      <rect id="사각형_388" data-name="사각형 388" width="25.279" height="2.462" transform="translate(0)" fill="#7b7b7b"/>
    </g>
    <g id="그룹_470" data-name="그룹 470" transform="translate(952.89 2521.17)">
      <rect id="사각형_389" data-name="사각형 389" width="25.279" height="2.462" transform="translate(0 0)" fill="#7b7b7b"/>
    </g>
  </g>
</svg>
