<svg xmlns="http://www.w3.org/2000/svg" width="67.358" height="81.199" viewBox="0 0 67.358 81.199">
  <g id="그룹_200" data-name="그룹 200" transform="translate(-812.64 -2682.969)">
    <rect id="사각형_163" data-name="사각형 163" width="51.536" height="26.367" transform="translate(817.857 2734.805)" fill="#fcfbfa"/>
    <path id="패스_58" data-name="패스 58" d="M397.135,147.165H343.8V119h53.333Zm-51.536-1.8h49.738V120.8H345.6Z" transform="translate(473.156 2614.906)" fill="#58371d"/>
    <rect id="사각형_164" data-name="사각형 164" width="7.191" height="17.378" rx="3.596" transform="translate(872.808 2682.969)" fill="#58371d"/>
    <path id="패스_59" data-name="패스 59" d="M385.582,75.171a4.881,4.881,0,0,1-.235-4.1,4.428,4.428,0,0,1,4.107-2.681h25.574a2.7,2.7,0,0,0,1.829-.7,6.345,6.345,0,0,0,2.1-6.571l1.646-.639a8.138,8.138,0,0,1-2.586,8.578,4.426,4.426,0,0,1-2.991,1.156H389.455a2.673,2.673,0,0,0-2.5,1.59,2.988,2.988,0,0,0,.2,2.558Z" transform="translate(456.646 2638.36)" fill="#58371d"/>
    <rect id="사각형_165" data-name="사각형 165" width="14.981" height="6.592" rx="3.296" transform="translate(836.135 2713.231)" fill="#fcfbfa"/>
    <path id="패스_60" data-name="패스 60" d="M386.886,91.39H378.5a4.195,4.195,0,1,1,0-8.39h8.39a4.195,4.195,0,0,1,0,8.39ZM378.5,84.8a2.4,2.4,0,0,0,0,4.794h8.39a2.4,2.4,0,0,0,0-4.794Z" transform="translate(460.934 2629.333)" fill="#58371d"/>
    <path id="패스_61" data-name="패스 61" d="M358.8,111.68c0-8.936,7.915-16.18,17.678-16.18s17.678,7.244,17.678,16.18Z" transform="translate(467.145 2624.323)" fill="#fcfbfa"/>
    <path id="패스_62" data-name="패스 62" d="M394.456,111.978H357.3v-.9c0-9.417,8.333-17.079,18.577-17.079s18.577,7.661,18.577,17.079Zm-35.327-1.8h33.5c-.513-8.009-7.83-14.382-16.75-14.382S359.641,102.171,359.129,110.18Z" transform="translate(467.746 2624.924)" fill="#58371d"/>
    <path id="패스_63" data-name="패스 63" d="M341.684,113.5h50.763a6.03,6.03,0,0,1,4.191,1.539,4.618,4.618,0,0,1,1.438,4.753H338.151s-.515-3.9,1.637-5.61A3.083,3.083,0,0,1,341.684,113.5Z" transform="translate(475.443 2617.11)" fill="#fcfbfa"/>
    <path id="패스_64" data-name="패스 64" d="M398.146,120.09H336.761l-.1-.781c-.023-.18-.553-4.422,1.968-6.429a3.966,3.966,0,0,1,2.457-.879h50.763a6.877,6.877,0,0,1,4.822,1.8,5.445,5.445,0,0,1,1.669,5.649Zm-59.751-1.8h58.349a3.836,3.836,0,0,0-1.338-3.213,5.149,5.149,0,0,0-3.561-1.281H341.083a2.176,2.176,0,0,0-1.336.487C338.538,115.248,338.379,117.2,338.395,118.292Z" transform="translate(476.044 2617.711)" fill="#58371d"/>
    <rect id="사각형_166" data-name="사각형 166" width="61.723" height="9.588" rx="4.132" transform="translate(812.764 2754.58)" fill="#58371d"/>
    <rect id="사각형_167" data-name="사각형 167" width="34.757" height="9.288" rx="2.466" transform="translate(826.247 2741.696)" fill="#fcfbfa"/>
    <path id="패스_65" data-name="패스 65" d="M391.98,141.586h-31.8a2.379,2.379,0,0,1-2.377-2.377v-6.333a2.379,2.379,0,0,1,2.377-2.377h31.8a2.38,2.38,0,0,1,2.377,2.377v6.333A2.38,2.38,0,0,1,391.98,141.586Zm-31.8-9.288a.58.58,0,0,0-.579.579v6.333a.58.58,0,0,0,.579.579h31.8a.58.58,0,0,0,.579-.579v-6.333a.58.58,0,0,0-.579-.579Z" transform="translate(467.546 2610.297)" fill="#58371d"/>
    <circle id="타원_21" data-name="타원 21" cx="2.826" cy="2.826" r="2.826" transform="translate(840.667 2743.59)" fill="#58371d"/>
  </g>
</svg>
