<svg xmlns="http://www.w3.org/2000/svg" width="56.998" height="71.121" viewBox="0 0 56.998 71.121">
  <g id="그룹_349" data-name="그룹 349" transform="translate(-917 -2978.878)">
    <g id="그룹_38" data-name="그룹 38" transform="translate(918.715 2978.878)">
      <path id="패스_66" data-name="패스 66" d="M224.322,78.832c-.292-1.718-.7-3.43-.982-5.149a32.321,32.321,0,0,1-.468-5.176c-.089-3.462.449-6.957.659-10.435a39.4,39.4,0,0,0-.052-5.2,8.943,8.943,0,0,0-.6-2.569A8.455,8.455,0,0,0,222.216,49c-6.5,2.521-11.212,9.968-11.2,18.76.011,9.8,5.882,17.917,13.551,19.4.1-1.051.176-2.1.193-3.148A27.312,27.312,0,0,0,224.322,78.832Z" transform="translate(-211.014 -49)" fill="#58371d"/>
      <path id="패스_67" data-name="패스 67" d="M250.4,68.093c0-10.459-6.845-18.948-15.328-19.074a7.412,7.412,0,0,0-.851,1.973,8.661,8.661,0,0,0-.286,2.538,38.614,38.614,0,0,0,.529,5.019c.589,3.335,1.5,6.653,1.8,10a31.51,31.51,0,0,1,.128,5.041c-.081,1.686-.281,3.379-.369,5.066a26.57,26.57,0,0,0,.158,5.039c.147,1.112.361,2.221.6,3.328C244.458,85.872,250.4,77.839,250.4,68.093Z" transform="translate(-220.893 -49.008)" fill="#58371d"/>
    </g>
    <g id="그룹_39" data-name="그룹 39" transform="translate(945.747 2998.704)">
      <path id="패스_68" data-name="패스 68" d="M265.9,104.976c.716-1.274,1.351-2.6,2.073-3.875a26.741,26.741,0,0,1,2.439-3.629c1.784-2.313,4.014-4.328,6.01-6.5a32.9,32.9,0,0,0,2.734-3.432,7.278,7.278,0,0,0,.962-1.987,6.813,6.813,0,0,0,.241-1.2c-5.785-1.673-12.969.8-17.647,6.563-5.215,6.426-5.531,14.744-1.082,19.633.629-.637,1.24-1.286,1.809-1.963A22.609,22.609,0,0,0,265.9,104.976Z" transform="translate(-258.524 -83.844)" fill="#58371d"/>
      <path id="패스_69" data-name="패스 69" d="M286.307,107.766c5.573-6.851,5.422-15.911-.3-20.329a6.481,6.481,0,0,0-1.632.857,7.366,7.366,0,0,0-1.548,1.516,32.014,32.014,0,0,0-2.313,3.559c-1.375,2.485-2.523,5.122-4.1,7.471a26.216,26.216,0,0,1-2.6,3.367c-.954,1.063-1.992,2.07-2.951,3.13a22.165,22.165,0,0,0-2.577,3.382c-.492.8-.937,1.639-1.362,2.489C272.773,116.374,281.114,114.15,286.307,107.766Z" transform="translate(-262.142 -85.393)" fill="#58371d"/>
    </g>
    <g id="그룹_40" data-name="그룹 40" transform="translate(917 3017.538)">
      <path id="패스_70" data-name="패스 70" d="M238.185,137.912c-1.261-1.178-2.452-2.451-3.718-3.622a31.171,31.171,0,0,0-4.028-3.2c-2.819-1.95-6.016-3.386-9.015-5.092a37.98,37.98,0,0,1-4.278-2.859,8.642,8.642,0,0,1-1.8-1.9,8.245,8.245,0,0,1-.71-1.272c5.724-4.152,14.528-4.114,21.808.655,8.115,5.317,11.559,14.694,8.5,22-.927-.484-1.839-.988-2.716-1.541A26.273,26.273,0,0,1,238.185,137.912Z" transform="translate(-210.863 -116.947)" fill="#58371d"/>
      <path id="패스_71" data-name="패스 71" d="M217.359,150.05c-8.667-5.665-11.875-16.07-7.238-23.335a7.241,7.241,0,0,1,2.11.346,8.37,8.37,0,0,1,2.263,1.132,37.2,37.2,0,0,1,3.864,3.168c2.434,2.305,4.677,4.872,7.284,6.941a30.411,30.411,0,0,0,4.105,2.839c1.442.845,2.957,1.592,4.4,2.431a25.59,25.59,0,0,1,4.087,2.863c.84.727,1.639,1.509,2.421,2.315C235.415,154.634,225.435,155.327,217.359,150.05Z" transform="translate(-208 -121.157)" fill="#58371d"/>
    </g>
  </g>
</svg>
