<svg xmlns="http://www.w3.org/2000/svg" width="58.229" height="65.289" viewBox="0 0 58.229 65.289">
  <g id="그룹_64" data-name="그룹 64" transform="translate(0.052 -0.016)">
    <g id="그룹_45" data-name="그룹 45" transform="translate(40.991 48.119)">
      <g id="그룹_42" data-name="그룹 42">
        <circle id="타원_22" data-name="타원 22" cx="8.593" cy="8.593" r="8.593" fill="#58371d"/>
      </g>
      <g id="그룹_44" data-name="그룹 44" transform="translate(8.93 9.492)">
        <g id="그룹_43" data-name="그룹 43">
          <path id="패스_72" data-name="패스 72" d="M104.384,117.248a1.421,1.421,0,0,1-1.049.6c-.7,0-.849,1.149-.849,1.149a1.258,1.258,0,0,1-2.5-.3c.15-1.149,1-3.4,3.347-3.4a1.28,1.28,0,0,1,1.3,1.249A1.679,1.679,0,0,1,104.384,117.248Z" transform="translate(-99.975 -115.3)" fill="#fffefe"/>
        </g>
      </g>
    </g>
    <g id="그룹_49" data-name="그룹 49" transform="translate(38.443 30.833)">
      <g id="그룹_46" data-name="그룹 46">
        <circle id="타원_23" data-name="타원 23" cx="8.593" cy="8.593" r="8.593" fill="#58371d"/>
      </g>
      <g id="그룹_48" data-name="그룹 48" transform="translate(10.793 7.071)">
        <g id="그룹_47" data-name="그룹 47">
          <path id="패스_73" data-name="패스 73" d="M101.949,77.126a1.3,1.3,0,0,1-.55,1.049c-.55.4-.05,1.4-.05,1.449A1.262,1.262,0,0,1,99.1,80.773c-.55-1.049-1.049-3.347.849-4.7a1.231,1.231,0,0,1,1.749.35A1.194,1.194,0,0,1,101.949,77.126Z" transform="translate(-98.603 -75.854)" fill="#fffefe"/>
        </g>
      </g>
    </g>
    <g id="그룹_53" data-name="그룹 53" transform="translate(23.205 45.571)">
      <g id="그룹_50" data-name="그룹 50">
        <circle id="타원_24" data-name="타원 24" cx="8.593" cy="8.593" r="8.593" fill="#58371d"/>
      </g>
      <g id="그룹_52" data-name="그룹 52" transform="translate(6.771 10.718)">
        <g id="그룹_51" data-name="그룹 51">
          <path id="패스_74" data-name="패스 74" d="M64.823,115.225a1.271,1.271,0,0,1-1.2.05c-.6-.3-1.249.649-1.249.649a1.261,1.261,0,1,1-2.1-1.4c.649-1,2.448-2.548,4.5-1.549a1.259,1.259,0,0,1,.6,1.7A1.445,1.445,0,0,1,64.823,115.225Z" transform="translate(-60.054 -112.654)" fill="#fffefe"/>
        </g>
      </g>
    </g>
    <g id="그룹_54" data-name="그룹 54" transform="translate(-0.052 20.915)">
      <path id="패스_75" data-name="패스 75" d="M45.188,73.449a1.365,1.365,0,0,1-.949-.4C31.8,59.66.973,44.472.673,44.272a1.259,1.259,0,0,1-.6-1.7,1.259,1.259,0,0,1,1.7-.6c1.3.649,31.525,15.587,44.314,29.276a1.268,1.268,0,0,1-.05,1.8A1.231,1.231,0,0,1,45.188,73.449Z" transform="translate(0.052 -41.848)" fill="#58371d"/>
    </g>
    <g id="그룹_57" data-name="그룹 57" transform="translate(3.796 28.435)">
      <g id="그룹_55" data-name="그룹 55">
        <path id="패스_76" data-name="패스 76" d="M12.471,88.924a1.025,1.025,0,0,1-.949-.649c-4.5-11.441-5.1-20.134-1.7-25.779a11.431,11.431,0,0,1,7.944-5.6,1.54,1.54,0,0,1,.5.05c.1.05,10.791,4.7,7.144,16.786-3.5,11.741-12.24,14.988-12.59,15.088A.539.539,0,0,1,12.471,88.924ZM17.717,59a9.569,9.569,0,0,0-6.2,4.646c-2.848,4.846-2.348,12.79,1.5,22.932A21.663,21.663,0,0,0,23.462,73.237C26.31,63.695,19.215,59.7,17.717,59Z" transform="translate(-7.65 -56.9)" fill="#58371d"/>
      </g>
      <g id="그룹_56" data-name="그룹 56" transform="translate(5.61 0.481)">
        <path id="패스_77" data-name="패스 77" d="M19.889,84.21a.872.872,0,0,1-.6-.2,1.036,1.036,0,0,1-.2-1.449c8.193-10.591,3.447-23.231,3.4-23.331a1.012,1.012,0,1,1,1.9-.7c.2.55,5.2,13.839-3.7,25.33A1.179,1.179,0,0,1,19.889,84.21Z" transform="translate(-18.879 -57.863)" fill="#58371d"/>
      </g>
    </g>
    <g id="그룹_60" data-name="그룹 60" transform="translate(22.364 23.096)">
      <g id="그룹_58" data-name="그룹 58">
        <path id="패스_78" data-name="패스 78" d="M50.853,60.145a7.835,7.835,0,0,1-5.7-2.4,2.025,2.025,0,0,1-.25-.45A9.113,9.113,0,0,1,51.6,47.005c7.744-2.348,12.74,1.249,12.94,1.4a1.033,1.033,0,0,1,.25,1.4C60.2,56.4,55.649,59.895,51.3,60.095A1.383,1.383,0,0,1,50.853,60.145ZM46.906,56.6a5.887,5.887,0,0,0,4.347,1.5c3.447-.2,7.344-3.147,11.241-8.543a13.651,13.651,0,0,0-10.292-.6C46.606,50.652,46.756,55.4,46.906,56.6Z" transform="translate(-44.815 -46.212)" fill="#58371d"/>
      </g>
      <g id="그룹_59" data-name="그룹 59" transform="translate(0.371 2.902)">
        <path id="패스_79" data-name="패스 79" d="M46.578,60.9a.96.96,0,0,1-.6-.2,1.024,1.024,0,0,1-.25-1.4c.25-.3,5.7-7.894,15.238-7.244a1.017,1.017,0,0,1,.949,1.1,1.047,1.047,0,0,1-1.1.949c-8.443-.6-13.389,6.295-13.439,6.395A1.043,1.043,0,0,1,46.578,60.9Z" transform="translate(-45.557 -52.021)" fill="#58371d"/>
      </g>
    </g>
    <g id="그룹_63" data-name="그룹 63" transform="translate(7.072 0.016)">
      <g id="그룹_61" data-name="그룹 61">
        <path id="패스_80" data-name="패스 80" d="M22.747,28.285a13.822,13.822,0,0,1-6.445-1.6.889.889,0,0,1-.35-.4C15.853,26.187,9.458,14,21.8,5.5,33.788-2.74,44.28.708,44.729.857a1.058,1.058,0,0,1,.649,1.249C41.032,16.1,35.137,24.588,27.793,27.386A15.19,15.19,0,0,1,22.747,28.285Zm-5.146-3.2a11.609,11.609,0,0,0,9.492.35c6.395-2.4,11.94-10.342,15.987-22.932C40.333,1.907,32.04.857,22.947,7.152,12.905,14.1,16.8,23.389,17.6,25.088Z" transform="translate(-14.208 -0.016)" fill="#58371d"/>
      </g>
      <g id="그룹_62" data-name="그룹 62" transform="translate(2.032 4.254)">
        <path id="패스_81" data-name="패스 81" d="M19.287,30.7a.634.634,0,0,1-.3-.05.987.987,0,0,1-.649-1.3c.2-.7,5.446-16.687,22.282-20.783a1.03,1.03,0,0,1,.5,2C25.432,14.36,20.336,29.8,20.286,30A1.114,1.114,0,0,1,19.287,30.7Z" transform="translate(-18.276 -8.53)" fill="#58371d"/>
      </g>
    </g>
  </g>
</svg>
