<svg xmlns="http://www.w3.org/2000/svg" width="151.11" height="25.1" viewBox="0 0 151.11 25.1">
  <g id="그룹_204" data-name="그룹 204" transform="translate(-340.151 -3786.9)">
    <path id="패스_142" data-name="패스 142" d="M282.819,278.881l4.078,8.262,9.118,1.325-6.6,6.431,1.558,9.081-8.156-4.288-8.156,4.288,1.558-9.081-6.6-6.431,9.118-1.325Z" transform="translate(132.887 3508.019)" fill="#ffc412"/>
    <path id="패스_140" data-name="패스 140" d="M212.779,278.881l4.078,8.262,9.118,1.325-6.6,6.431,1.558,9.081-8.156-4.288-8.156,4.288,1.558-9.081-6.6-6.431,9.118-1.325Z" transform="translate(140.568 3508.019)" fill="#ffc412"/>
    <path id="패스_141" data-name="패스 141" d="M247.8,278.881l4.078,8.262L261,288.468l-6.6,6.431,1.558,9.081-8.156-4.288-8.156,4.288L241.2,294.9l-6.6-6.431,9.118-1.325Z" transform="translate(136.728 3508.019)" fill="#ffc412"/>
    <path id="패스_143" data-name="패스 143" d="M317.839,278.881l4.078,8.262,9.118,1.325-6.6,6.431,1.558,9.081-8.156-4.288-8.156,4.288,1.558-9.081-6.6-6.431,9.118-1.325Z" transform="translate(129.047 3508.019)" fill="#ffc412"/>
    <path id="패스_144" data-name="패스 144" d="M352.859,278.881l4.078,8.262,9.118,1.325-6.6,6.431,1.558,9.081-8.156-4.288-8.156,4.288,1.558-9.081-6.6-6.431,9.118-1.325Z" transform="translate(125.206 3508.019)" fill="#ffc412"/>
  </g>
</svg>
