<svg xmlns="http://www.w3.org/2000/svg" width="451.963" height="154.984" viewBox="0 0 451.963 154.984">
  <g id="그룹_176" data-name="그룹 176" transform="translate(-172.741 -299.574)" opacity="0.6">
    <g id="그룹_173" data-name="그룹 173" transform="translate(442.774 309.445)">
      <path id="패스_520" data-name="패스 520" d="M376.779,382.953a53.687,53.687,0,0,0-2.836-9.91,83.2,83.2,0,0,0-5.427-9.636c-1.2-1.986-2.908-2.442-4.815-3.5-1.44-.8-2.81-1.742-4.22-2.588a46.908,46.908,0,0,0-8.313-4.377,37.584,37.584,0,0,1-8.313-3.936c-2.617-1.709-5.54-2.577-8.488-3.6-2.748-.955-5.015-2.653-7.77-3.6-4.844-1.655-9.217-4.344-13.824-6.564-2.948-1.421-5.653-3.681-8.426-5.449-2.792-1.779-5.39-3.867-8-5.9-5.084-3.954-10.194-7.686-16.237-10.008-6.422-2.467-12.523-4.862-19.451-5.383-.215-.015-.43-.007-.645-.018a58.112,58.112,0,0,1,13.091,9.115c2.475,2.278,5.481,3.9,8.146,5.974,2.569,1.994,5.128,4,7.767,5.908,5.638,4.078,10.89,8.875,16.969,12.326,1.5.853,3.094,1.4,4.654,2.117,1.451.663,2.617,1.636,4.115,2.194a67.831,67.831,0,0,1,7.5,3.863,121.12,121.12,0,0,0,17.578,7.73c3.123,1.035,5.955,2.405,8.962,3.7,2.675,1.148,5.6,1.633,8.368,2.5,5.784,1.8,9.235,5.212,11.255,10.937,1.232,3.5,1.538,6.812,3.645,9.964a23.811,23.811,0,0,0,5.6,5.766c-.044-.882-.24-1.877-.248-2.526A25.344,25.344,0,0,0,376.779,382.953Z" transform="translate(-211.982 -285.865)" fill="#fff"/>
      <path id="패스_521" data-name="패스 521" d="M258.587,307.38c-.259.025-.514.069-.773.077-.018,0-.029-.011-.044-.011l-.222.135C257.894,307.515,258.24,307.442,258.587,307.38Z" transform="translate(-218.493 -288.801)" fill="#fff"/>
      <path id="패스_522" data-name="패스 522" d="M418.369,383.083c-.692,3.47-.4,6.954-1.144,10.413s-1,7.963-2.774,11.021c-1.906,3.3-4.782,5.153-8.138,6.7a51.125,51.125,0,0,1-11.593,4.046c-8.47,1.626-16.791,3.776-25.326,5.2a145.262,145.262,0,0,1-25.253,2.4,63.806,63.806,0,0,1-12.249-.9c-3.455-.7-6.885-.784-10.332-1.549-1.611-.357-3.207-.689-4.8-1.02a9.972,9.972,0,0,1-.915-.5,58.086,58.086,0,0,1-4.672-3.492,46.062,46.062,0,0,1-5.062-3.973c-1.363-1.436-2.26-3.24-3.579-4.72-1.268-1.421-2.34-2.967-3.579-4.421-1.534-1.811-2.438-4.009-3.6-6.057-1.206-2.125-2.38-4.264-3.55-6.411a.413.413,0,0,0-.736.375c1.119,2.332,2.267,4.654,3.291,7.027a36.091,36.091,0,0,0,2.657,5.857c1.272,1.921,2.511,3.831,3.787,5.748,1.239,1.862,2.085,3.892,3.6,5.572.645.718,1.323,1.432,2.012,2.136a1.3,1.3,0,0,1-.164-.069c-1.662-1.017-3.247-2.271-4.887-3.346a10.991,10.991,0,0,1-1.932-1.837,8.816,8.816,0,0,0-1.833-1.2c-1.571-1.024-2.861-2.77-4.235-4.06-2.755-2.58-4.538-6.236-6.207-9.6-1.822-3.67-3.149-7.5-4.8-11.247-.193-.437-.969-.179-.809.284,1.363,3.94,2.183,8.073,3.575,12,1.341,3.779,2.65,8.182,5.361,11.2,1.013,1.126,1.975,2.325,3,3.459a157.487,157.487,0,0,1-16.3-8.587c-3.513-2.132-6.5-5.314-9.491-8.109a73.434,73.434,0,0,1-8.722-9.614,48.56,48.56,0,0,1-6.834-12.064c-1.564-4.268-2.172-8.736-2.963-13.179a32.832,32.832,0,0,1,.474-11.619c.78-4.286,3.459-8.313,5.511-12.115a26.819,26.819,0,0,1,5.828-7.176,43.5,43.5,0,0,1,4.971.1c4.537.5,8.568,2.639,12.545,4.712,2.2,1.152,4.487,2.161,6.724,3.255,2.139,1.05,4.118,2.365,6.247,3.426a34.294,34.294,0,0,1,5.478,3.346,41.758,41.758,0,0,0,5.744,3.255c.266.139.594-.182.357-.426-1.673-1.75-3.933-2.6-5.762-4.148-1.713-1.451-3.455-2.69-5.3-3.969-4.443-3.083-8.226-7.056-12.905-9.83a28.931,28.931,0,0,0-7.227-3c.6-.04,1.214-.084,1.819-.175,1.4-.2,2.708-.787,4.137-.722a18.535,18.535,0,0,1,7.985,1.749,83.69,83.69,0,0,1,7.3,4.621c2.8,1.826,5.412,4.169,8.313,5.784,5.317,2.967,10.26,6.531,15.486,9.655,5.813,3.473,10.711,8.386,16.776,11.524,2.336,1.206,4.709,2.249,7.012,3.473,1.363.722,2.9.893,4.264,1.6,1.447.747,2.763,1.724,4.22,2.471a174.587,174.587,0,0,0,16.033,7.151c2.569,1,5.248,1.618,7.861,2.46a58.939,58.939,0,0,0,8.131,2.4c3.349.579,7,1.068,9.782,3.229,3,2.336,4.275,6.495,5.143,10.03,1.593,6.52,5.777,10.73,11.269,14.312a1.223,1.223,0,0,0,1.676-.368c.958-1.775.35-4.078.321-6.013-.047-3.236-1.061-6.378-1.953-9.469a50.383,50.383,0,0,0-3.021-8.849c-1.491-3.007-2.362-6.353-3.965-9.272-3.316-6.032-9.272-9.388-15.417-12.1-3.152-1.392-6.582-2.088-9.727-3.528-3.182-1.458-6.17-1.913-9.578-2.672-2.967-.66-5.514-2.2-8.492-2.927a15.082,15.082,0,0,1-4.53-1.771c-1.411-.831-3.021-1.086-4.432-1.9-5.974-3.448-12.053-6.761-17.505-11.083-5.412-4.286-10.719-9.465-17.111-12.3-6.2-2.748-12.8-5.842-19.561-6.819a40.31,40.31,0,0,0-10.394-.51,27.465,27.465,0,0,0,4.742-1.534c2.686-1.123,5.339-2.179,8.058-3.226,5.2-2.008,11.08-3.841,16.714-3.08,2.351.317,4.585.193,6.9.521,1.3.186,2.631.1,3.922.324a17.815,17.815,0,0,1,3.94,1.505,33.986,33.986,0,0,1,4.1,1.819c.995.6,1.793,1.447,2.854,1.954,1.363.652,2.919,1.808,4.479,1.651.488-.047.423-.853-.062-.853-.918,0-2.041-.933-2.919-1.276a31.862,31.862,0,0,1-3.973-2.074c-2.121-1.159-4.589-1.986-6.815-2.923a23.234,23.234,0,0,0-3.75-.94c-1.232-.3-2.369-1-3.6-1.254a23.835,23.835,0,0,0-2.744.029c-1.465-.124-2.876-.558-4.352-.645-2.577-.149-5.2.015-7.792.066,3.739-1.086,7.694-2.409,11.6-2.518a23.887,23.887,0,0,1,5.835.339c1.432.35,2.766,1.261,4.188,1.717,3.892,1.246,7.34,3.422,11.24,4.651,3.466,1.09,7.052,1.735,10.533,2.766,4.22,1.247,8.412,2.6,12.621,3.889,7.555,2.314,15.387,3.5,22.9,5.933,3.965,1.283,8.091,2.548,11.71,4.647a47.628,47.628,0,0,1,9.942,7.916,37.635,37.635,0,0,1,7.333,9.884c2.008,4.02,4.472,8.033,5.777,12.355A53.538,53.538,0,0,1,418.369,383.083Zm-8.911-30.309c.769,1.655,1.491,3.349,2.322,4.975.481.944,1.349,1.779,1.246,2.9-.047.514.7.937,1.068.507,1.039-1.2.095-2.763-.58-3.9-.984-1.676-1.906-3.389-2.854-5.088A.675.675,0,0,0,409.458,352.774Zm-7.114-9.144c.419.408.849.8,1.257,1.225.19.193.375.394.55.605s.39.372.561.583a12.765,12.765,0,0,0,.955,1.21,3.594,3.594,0,0,0,.638.437,4.018,4.018,0,0,1,.638.558.34.34,0,0,0,.55-.383c-.131-.251-.3-.488-.423-.74-.106-.211-.168-.441-.291-.642s-.284-.4-.408-.62c-.146-.248-.262-.51-.415-.754a4.958,4.958,0,0,0-.543-.805q-.284-.3-.59-.569c-.437-.394-.9-.765-1.341-1.148a.8.8,0,0,0-1.09-.047A.779.779,0,0,0,402.344,343.63ZM259.636,376.278a2.907,2.907,0,0,0,.474.536,1.487,1.487,0,0,0,.641.353.594.594,0,0,0,.733-.375,1.455,1.455,0,0,0,.091-.729,2.74,2.74,0,0,0-.142-.656,8.555,8.555,0,0,0-.437-1.053c-.346-.656-.7-1.316-1.046-1.972a1.051,1.051,0,1,0-1.873.955c.328.671.66,1.338.988,2A8.46,8.46,0,0,0,259.636,376.278Zm11.105,14.345c-.372,0-.736-.47-.951-.769-.339-.485-.671-1.013-1.05-1.487a29.382,29.382,0,0,1-3.4-5.139.92.92,0,0,0-1.636.838,39.591,39.591,0,0,0,3.98,5.769c.718.944,2.048,2.77,3.368,1.669A.513.513,0,0,0,270.741,390.623Zm8.175-10.187c-.853-1.957-2.529-3.24-3.707-4.971-1.2-1.764-1.418-3.987-1.964-6-.372-1.352-2.518-.9-2.136.441.62,2.165.911,4.545,2.187,6.455,1.254,1.87,3.233,3.032,4.672,4.734C278.41,381.614,279.168,381.016,278.916,380.437Zm-17.5-43.783c-1.447,2.482-2.945,4.924-4.629,7.253a5.906,5.906,0,0,0-.951,1.6,5.219,5.219,0,0,1-.63,1.509,9.1,9.1,0,0,0-1.341,3.386c-.51,2.507-1.494,4.92-1.768,7.475a6.934,6.934,0,0,0,.616,4.027,34.308,34.308,0,0,0,2.314,3c-.124.463.23,1.075.762.889l.379-.131a.91.91,0,0,0,.674-.78,6.221,6.221,0,0,0-.481-3.568,6.373,6.373,0,0,1-.7-3.419c.219-2.344,1.01-4.585,1.2-6.932a8.641,8.641,0,0,1,.893-3.113,6.288,6.288,0,0,0,.4-1.538,5.361,5.361,0,0,1,.707-1.567c1.308-2.409,2.544-4.869,3.728-7.344C262.96,336.625,261.878,335.863,261.415,336.654Zm46.567,15.413c.8.452,1.571.955,2.34,1.458.685.448,1.425.835,2.085,1.316.878.638,1.892,1.742,3.094,1.243.248-.106.091-.456-.149-.423-.518.069-.984-.375-1.392-.623-.474-.288-.907-.638-1.4-.9-.692-.368-1.4-.711-2.081-1.093-.769-.43-1.542-.853-2.34-1.232C307.975,351.735,307.807,351.969,307.982,352.067Zm42.19,56.014c-.492-.113-.853-.521-1.341-.667a4.108,4.108,0,0,0-1.385-.051c-1.513.073-2.62-.612-3.973-1.166a34.929,34.929,0,0,1-4.6-1.789,21.731,21.731,0,0,0-4.108-1.866,25.074,25.074,0,0,1-8.452-4.286c-1.184-1.017-1.52-2.5-2.5-3.659-1.152-1.363-2.307-2.69-3.368-4.137-.237-.321-.795.066-.579.4.977,1.556,2.092,2.97,3.145,4.468.918,1.312,1.082,2.865,2.172,4.1,2.22,2.533,5.31,3.94,8.434,5.033a50.138,50.138,0,0,1,4.975,2.158c1.48.7,3.116.977,4.57,1.746,1.17.616,2.413,1.392,3.794,1.239a15.48,15.48,0,0,1,1.935-.372,2.114,2.114,0,0,0,1.363-.193C350.616,408.843,350.642,408.187,350.172,408.081Zm4.33,1.185a.507.507,0,0,0,.459.9A.507.507,0,0,0,354.5,409.265Zm-14.56-35.185c1.578.375,3.215.036,4.8.332.47.087.579-.66.149-.805a11.744,11.744,0,0,0-2.19-.448,10.745,10.745,0,0,1-2.267-.59c-1.531-.55-3.051-1.031-4.614-1.48-3.164-.908-5.769-2.686-8.557-4.348a.414.414,0,0,0-.448.7c1.33.951,2.6,1.986,3.936,2.923a16.661,16.661,0,0,0,4.45,2.234C336.763,373.107,338.341,373.7,339.941,374.08ZM380.56,409.1c-3.225.955-6.247,2.078-9.669,1.932a10.227,10.227,0,0,1-1.943-.248,18.547,18.547,0,0,0-2.11-.558,22.307,22.307,0,0,0-4.424.335c-.569.044-.5,1.031.073,1,1.556-.084,3.222-.543,4.756-.113.707.2,1.374.514,2.088.7a15.289,15.289,0,0,0,2.106.357,13.57,13.57,0,0,0,9.469-2.726A.4.4,0,0,0,380.56,409.1Zm8.106-11.112c-2.205-.685-4.632-.437-6.91-.47-2.606-.036-5.179-.532-7.778-.641a.658.658,0,0,0-.077,1.312c2.566.109,5.1.59,7.665.641,2.332.044,4.629-.335,6.965-.109A.377.377,0,0,0,388.666,397.993Zm8.116-39.923c-1.283-2.172-3.171-3.914-4.76-5.857a11.49,11.49,0,0,0-4.906-3.849c-.681-.252-1.024.816-.346,1.071a10.888,10.888,0,0,1,4.57,3.809c1.491,1.866,3.309,3.415,4.829,5.248C396.436,358.817,397,358.434,396.782,358.07Zm-4.9-21.408c1.731,1.05,3.783,1.337,5.467,2.489a.73.73,0,0,0,.875-.077l.266-.277a.492.492,0,0,0-.179-.824c-.157-.055-.8-1.148-1.05-1.356a8.885,8.885,0,0,0-2.682-1.381c-2.329-.867-4.519-2.132-6.888-2.886-2.511-.806-5.186-1.1-7.574-2.282-2.128-1.061-4.056-2.5-6.374-3.16-1.2-.343-2.435-.488-3.637-.794a16.9,16.9,0,0,1-3.586-1.556,22.166,22.166,0,0,0-6.148-1.75c-2.526-.474-4.428-1.72-6.761-2.708-2.369-1-4.982-.623-7.45-1.2a.715.715,0,0,0-.437,1.36,28.444,28.444,0,0,0,6.353,1.429c2.354.317,4.224,1.425,6.462,2.023,2.176.587,4.439.747,6.531,1.651,2.194.948,4,2.416,6.382,2.956,1.217.277,2.471.281,3.681.6a20.174,20.174,0,0,1,3.59,1.549,44.484,44.484,0,0,0,6.163,2.212C387.576,333.542,389.512,335.225,391.88,336.661Z" transform="translate(-241.545 -298.081)" fill="#fff"/>
      <path id="패스_523" data-name="패스 523" d="M426.121,400.911c-.9,3.794-1,7.5-3.258,10.832a19.809,19.809,0,0,1-7.945,6.837c-7.821,3.67-16.043,5.624-24.448,7.472-9.29,2.041-18.773,3.346-28.209,4.487-8.641,1.042-17.771,1.3-26.339-.492a53.3,53.3,0,0,0-5.522-.583c-1.585-.164-3.149-.547-4.72-.846-.248,0-.5,0-.747,0a10.928,10.928,0,0,1-3.637-.612c-2.989-.317-5.992-.532-8.947-1a91.952,91.952,0,0,1-25.49-8.423c-3.936-1.9-8.189-3.4-11.75-5.952a91.32,91.32,0,0,1-10.292-8.47c-6.783-6.538-12.574-14.342-15.6-23.333a47.261,47.261,0,0,1-2.223-13.412,54.413,54.413,0,0,1,.27-11.236,56.943,56.943,0,0,1,2.992-12.082c1.618-4.126,3.251-8.579,6.287-11.892a24.744,24.744,0,0,1,10.577-6.659,56.876,56.876,0,0,0,8.82-3.025c.776-.94,1.414-2.063,2.15-3a18.308,18.308,0,0,1,4.68-3.962c8.178-5.2,16.419-9.447,25.8-12.06a26.1,26.1,0,0,1,12.184-.816,36.447,36.447,0,0,1,6.123,1.749c1.735.692,3.193,1.844,4.906,2.573,3.655,1.564,6.823,3.914,10.624,5.186,4.1,1.367,8.35,2.263,12.468,3.6,8.765,2.835,17.716,4.519,26.73,6.28,8.233,1.611,16.944,3.794,23.73,8.889a80.684,80.684,0,0,1,9.873,8.889c3.12,3.251,4.862,7.431,6.885,11.389,3.973,7.767,6.907,16.255,6.666,25.115a70.97,70.97,0,0,1-1.024,12.249,63.5,63.5,0,0,0-.474,6.542A44.442,44.442,0,0,1,426.121,400.911ZM286.11,320.927l-.222.135c.346-.066.692-.138,1.039-.2-.259.025-.514.069-.773.077C286.135,320.938,286.124,320.927,286.11,320.927Zm126.154,83.545a25.344,25.344,0,0,0-.634-5.1,53.687,53.687,0,0,0-2.836-9.91,83.2,83.2,0,0,0-5.427-9.636c-1.2-1.986-2.908-2.442-4.815-3.5-1.44-.8-2.81-1.742-4.22-2.588a46.908,46.908,0,0,0-8.313-4.377,37.584,37.584,0,0,1-8.313-3.936c-2.617-1.709-5.54-2.577-8.488-3.6-2.748-.955-5.015-2.653-7.77-3.6-4.844-1.655-9.217-4.344-13.824-6.564-2.948-1.421-5.653-3.681-8.426-5.449-2.792-1.779-5.39-3.867-8-5.9-5.084-3.954-10.194-7.686-16.237-10.008-6.422-2.467-12.523-4.862-19.451-5.383-.215-.015-.43-.007-.645-.018a58.112,58.112,0,0,1,13.091,9.115c2.475,2.278,5.481,3.9,8.146,5.974,2.569,1.994,5.128,4,7.767,5.908,5.638,4.078,10.89,8.875,16.969,12.326,1.5.853,3.094,1.4,4.654,2.117,1.451.663,2.617,1.636,4.115,2.194a67.831,67.831,0,0,1,7.5,3.863,121.12,121.12,0,0,0,17.578,7.73c3.123,1.035,5.955,2.405,8.962,3.7,2.675,1.148,5.6,1.633,8.368,2.5,5.784,1.8,9.235,5.212,11.255,10.937,1.232,3.5,1.538,6.812,3.645,9.964a23.81,23.81,0,0,0,5.6,5.766C412.468,406.116,412.271,405.121,412.264,404.472Zm10.249-6.775c.74-3.459.452-6.943,1.144-10.413a53.538,53.538,0,0,0-1.294-25.086c-1.3-4.322-3.769-8.335-5.777-12.355a37.635,37.635,0,0,0-7.333-9.884,47.629,47.629,0,0,0-9.942-7.916c-3.619-2.1-7.745-3.364-11.71-4.647-7.512-2.438-15.344-3.619-22.9-5.933-4.21-1.287-8.4-2.642-12.621-3.889-3.481-1.031-7.067-1.676-10.533-2.766-3.9-1.228-7.348-3.4-11.24-4.651-1.421-.456-2.755-1.367-4.188-1.717a23.887,23.887,0,0,0-5.835-.339c-3.911.109-7.865,1.432-11.6,2.518,2.588-.051,5.215-.215,7.792-.066,1.476.087,2.887.521,4.352.645a23.821,23.821,0,0,1,2.744-.029c1.228.251,2.365.955,3.6,1.254a23.234,23.234,0,0,1,3.75.94c2.227.937,4.694,1.764,6.815,2.923a31.862,31.862,0,0,0,3.973,2.074c.878.343,2,1.272,2.919,1.276.485,0,.55.806.062.853-1.56.157-3.116-1-4.479-1.651-1.061-.507-1.859-1.352-2.854-1.954a33.985,33.985,0,0,0-4.1-1.819,17.816,17.816,0,0,0-3.94-1.505c-1.29-.222-2.617-.139-3.922-.324-2.318-.328-4.552-.2-6.9-.521-5.635-.762-11.51,1.072-16.714,3.08-2.719,1.046-5.372,2.1-8.058,3.226a27.468,27.468,0,0,1-4.742,1.534,40.309,40.309,0,0,1,10.394.51c6.757.977,13.361,4.071,19.561,6.819,6.393,2.835,11.7,8.014,17.111,12.3,5.452,4.323,11.532,7.635,17.505,11.083,1.41.816,3.021,1.072,4.432,1.9a15.082,15.082,0,0,0,4.53,1.771c2.978.729,5.525,2.267,8.492,2.927,3.408.758,6.4,1.214,9.578,2.672,3.145,1.44,6.575,2.136,9.727,3.528,6.145,2.708,12.1,6.065,15.417,12.1,1.6,2.919,2.475,6.265,3.965,9.272a50.385,50.385,0,0,1,3.021,8.849c.893,3.091,1.906,6.232,1.953,9.469.029,1.935.638,4.239-.321,6.013a1.223,1.223,0,0,1-1.676.368c-5.492-3.583-9.677-7.792-11.269-14.312-.867-3.535-2.139-7.694-5.143-10.03-2.777-2.161-6.433-2.65-9.782-3.229a58.942,58.942,0,0,1-8.131-2.4c-2.613-.842-5.292-1.458-7.861-2.46a174.575,174.575,0,0,1-16.033-7.151c-1.458-.747-2.773-1.724-4.22-2.471-1.367-.707-2.9-.878-4.264-1.6-2.3-1.225-4.676-2.267-7.012-3.473-6.065-3.138-10.963-8.051-16.776-11.524-5.226-3.123-10.168-6.688-15.486-9.654-2.9-1.615-5.511-3.958-8.313-5.784a83.685,83.685,0,0,0-7.3-4.621,18.536,18.536,0,0,0-7.985-1.749c-1.429-.066-2.733.518-4.137.722-.6.091-1.214.135-1.819.175a28.931,28.931,0,0,1,7.227,3c4.68,2.774,8.463,6.746,12.905,9.83,1.844,1.279,3.586,2.518,5.3,3.969,1.83,1.549,4.089,2.4,5.762,4.148.237.244-.091.565-.357.426a41.756,41.756,0,0,1-5.744-3.255,34.292,34.292,0,0,0-5.478-3.346c-2.128-1.061-4.107-2.376-6.247-3.426-2.238-1.093-4.519-2.1-6.724-3.255-3.976-2.074-8.007-4.21-12.545-4.712a43.5,43.5,0,0,0-4.971-.1,26.818,26.818,0,0,0-5.828,7.176c-2.052,3.8-4.731,7.829-5.511,12.115a32.832,32.832,0,0,0-.474,11.619c.791,4.443,1.4,8.911,2.963,13.179a48.559,48.559,0,0,0,6.834,12.064,73.432,73.432,0,0,0,8.722,9.614c2.989,2.8,5.977,5.977,9.491,8.109a157.484,157.484,0,0,0,16.3,8.587c-1.021-1.133-1.983-2.332-3-3.459-2.712-3.014-4.02-7.417-5.361-11.2-1.392-3.925-2.212-8.058-3.575-12-.16-.463.616-.722.809-.284,1.647,3.743,2.974,7.577,4.8,11.247,1.669,3.36,3.451,7.016,6.207,9.6,1.374,1.29,2.664,3.036,4.235,4.06a8.815,8.815,0,0,1,1.833,1.2,10.989,10.989,0,0,0,1.932,1.837c1.64,1.075,3.225,2.329,4.887,3.346a1.3,1.3,0,0,0,.164.069c-.689-.7-1.367-1.418-2.012-2.136-1.516-1.68-2.362-3.71-3.6-5.572-1.276-1.917-2.515-3.827-3.787-5.748a36.087,36.087,0,0,1-2.657-5.857c-1.024-2.373-2.172-4.694-3.291-7.027a.413.413,0,0,1,.736-.375c1.17,2.147,2.344,4.286,3.55,6.411,1.166,2.048,2.07,4.246,3.6,6.057,1.239,1.454,2.311,3,3.579,4.421,1.319,1.48,2.216,3.284,3.579,4.72a46.063,46.063,0,0,0,5.062,3.973,58.079,58.079,0,0,0,4.672,3.492,9.975,9.975,0,0,0,.915.5c1.589.332,3.185.663,4.8,1.02,3.448.765,6.877.853,10.332,1.549a63.806,63.806,0,0,0,12.249.9,145.262,145.262,0,0,0,25.253-2.4c8.536-1.429,16.856-3.579,25.326-5.2a51.126,51.126,0,0,0,11.593-4.046c3.357-1.545,6.232-3.4,8.138-6.7C421.51,405.66,421.773,401.163,422.512,397.7Z" transform="translate(-246.832 -302.282)" fill="#674021"/>
      <path id="패스_524" data-name="패스 524" d="M267.455,318.747c.685.448,1.425.835,2.085,1.316.878.638,1.892,1.742,3.094,1.243.248-.106.091-.456-.149-.423-.518.069-.984-.375-1.392-.623-.474-.288-.907-.638-1.4-.9-.692-.368-1.4-.711-2.081-1.093-.769-.43-1.542-.853-2.34-1.232-.168-.08-.335.153-.16.251C265.917,317.741,266.686,318.244,267.455,318.747Z" transform="translate(-198.678 -263.303)" fill="#674021"/>
      <path id="패스_525" data-name="패스 525" d="M288.436,328.035a11.742,11.742,0,0,0-2.19-.448,10.744,10.744,0,0,1-2.267-.59c-1.531-.55-3.051-1.031-4.614-1.48-3.164-.908-5.769-2.686-8.557-4.348a.414.414,0,0,0-.448.7c1.33.951,2.6,1.986,3.936,2.923a16.66,16.66,0,0,0,4.45,2.234c1.564.514,3.142,1.108,4.742,1.487,1.578.375,3.215.036,4.8.332C288.756,328.927,288.866,328.18,288.436,328.035Z" transform="translate(-185.09 -252.509)" fill="#674021"/>
      <path id="패스_526" data-name="패스 526" d="M297.326,344.671a4.108,4.108,0,0,0-1.385-.051c-1.513.073-2.62-.612-3.973-1.166a34.925,34.925,0,0,1-4.6-1.789,21.735,21.735,0,0,0-4.108-1.866,25.074,25.074,0,0,1-8.452-4.286c-1.184-1.017-1.52-2.5-2.5-3.659-1.152-1.363-2.307-2.69-3.368-4.137-.237-.321-.795.066-.579.4.977,1.556,2.092,2.97,3.145,4.468.918,1.312,1.082,2.865,2.172,4.1,2.22,2.533,5.31,3.94,8.434,5.033a50.145,50.145,0,0,1,4.975,2.158c1.48.7,3.116.977,4.57,1.746,1.17.616,2.413,1.392,3.794,1.239a15.491,15.491,0,0,1,1.935-.372,2.114,2.114,0,0,0,1.363-.193c.368-.2.394-.86-.077-.966C298.175,345.225,297.814,344.817,297.326,344.671Z" transform="translate(-190.04 -235.338)" fill="#674021"/>
      <path id="패스_527" data-name="패스 527" d="M278.02,332.832a.507.507,0,0,0,.459.9A.507.507,0,0,0,278.02,332.832Z" transform="translate(-165.063 -221.648)" fill="#674021"/>
      <path id="패스_528" data-name="패스 528" d="M298.428,332.755c-3.225.955-6.247,2.077-9.669,1.932a10.225,10.225,0,0,1-1.943-.248,18.545,18.545,0,0,0-2.11-.558,22.307,22.307,0,0,0-4.424.335c-.569.044-.5,1.031.073,1,1.556-.084,3.222-.543,4.756-.113.707.2,1.374.514,2.088.7a15.286,15.286,0,0,0,2.106.357,13.57,13.57,0,0,0,9.469-2.726A.4.4,0,0,0,298.428,332.755Z" transform="translate(-159.412 -221.731)" fill="#674021"/>
      <path id="패스_529" data-name="패스 529" d="M291.436,330.033c-2.606-.036-5.179-.532-7.778-.641a.658.658,0,0,0-.077,1.312c2.566.109,5.1.59,7.665.641,2.332.044,4.629-.335,6.965-.109a.377.377,0,0,0,.135-.732C296.141,329.818,293.713,330.066,291.436,330.033Z" transform="translate(-151.224 -230.591)" fill="#674021"/>
      <path id="패스_530" data-name="패스 530" d="M328.263,328.187l.266-.277a.492.492,0,0,0-.179-.824c-.157-.055-.8-1.148-1.05-1.356a8.886,8.886,0,0,0-2.682-1.381c-2.329-.867-4.519-2.132-6.888-2.886-2.511-.805-5.186-1.1-7.573-2.282-2.128-1.061-4.056-2.5-6.374-3.16-1.2-.343-2.435-.488-3.637-.794a16.9,16.9,0,0,1-3.586-1.556,22.167,22.167,0,0,0-6.148-1.75c-2.526-.474-4.428-1.72-6.761-2.708-2.369-1-4.982-.623-7.45-1.2a.715.715,0,0,0-.437,1.36,28.444,28.444,0,0,0,6.353,1.429c2.354.317,4.224,1.425,6.462,2.023,2.176.587,4.439.747,6.531,1.651,2.194.948,4,2.416,6.382,2.956,1.217.277,2.471.281,3.681.6a20.176,20.176,0,0,1,3.59,1.549,44.483,44.483,0,0,0,6.163,2.212c2.693.86,4.629,2.544,7,3.98,1.731,1.05,3.783,1.338,5.467,2.489A.73.73,0,0,0,328.263,328.187Z" transform="translate(-171.586 -287.194)" fill="#674021"/>
      <path id="패스_531" data-name="패스 531" d="M292.355,316.937c.19.193.375.394.55.605s.39.372.561.583a12.765,12.765,0,0,0,.955,1.21,3.593,3.593,0,0,0,.638.437,4.019,4.019,0,0,1,.638.558.34.34,0,0,0,.55-.383c-.131-.251-.3-.488-.423-.74-.106-.211-.168-.441-.291-.642s-.284-.4-.408-.62c-.146-.248-.262-.51-.415-.754a4.958,4.958,0,0,0-.543-.805q-.284-.3-.59-.569c-.437-.394-.9-.765-1.341-1.148a.8.8,0,0,0-1.09-.047.779.779,0,0,0-.047,1.09C291.517,316.12,291.947,316.514,292.355,316.937Z" transform="translate(-130.298 -270.163)" fill="#674021"/>
      <path id="패스_532" data-name="패스 532" d="M292.956,317.991c.769,1.655,1.491,3.349,2.322,4.975.481.944,1.349,1.779,1.247,2.9-.047.514.7.937,1.068.507,1.039-1.2.095-2.763-.58-3.9-.984-1.676-1.906-3.389-2.854-5.088A.675.675,0,0,0,292.956,317.991Z" transform="translate(-125.042 -263.297)" fill="#674021"/>
      <path id="패스_533" data-name="패스 533" d="M287.292,316.107c-.681-.252-1.024.816-.346,1.071a10.888,10.888,0,0,1,4.57,3.809c1.491,1.866,3.309,3.415,4.829,5.248.266.324.827-.058.612-.423-1.283-2.172-3.171-3.914-4.76-5.857A11.489,11.489,0,0,0,287.292,316.107Z" transform="translate(-141.72 -265.823)" fill="#674021"/>
      <path id="패스_534" data-name="패스 534" d="M259.089,313.108c-1.447,2.482-2.945,4.924-4.629,7.253a5.906,5.906,0,0,0-.951,1.6,5.218,5.218,0,0,1-.63,1.509,9.1,9.1,0,0,0-1.341,3.386c-.51,2.507-1.494,4.92-1.768,7.475a6.934,6.934,0,0,0,.616,4.027,34.308,34.308,0,0,0,2.314,3c-.124.463.23,1.075.762.889l.379-.131a.91.91,0,0,0,.674-.78,6.221,6.221,0,0,0-.481-3.568,6.374,6.374,0,0,1-.7-3.419c.219-2.344,1.01-4.585,1.2-6.932a8.641,8.641,0,0,1,.893-3.113,6.288,6.288,0,0,0,.4-1.538,5.361,5.361,0,0,1,.707-1.567c1.308-2.409,2.544-4.869,3.728-7.344C260.634,313.079,259.552,312.317,259.089,313.108Z" transform="translate(-239.219 -274.535)" fill="#674021"/>
      <path id="패스_535" data-name="패스 535" d="M254.123,327.873a.594.594,0,0,0,.733-.375,1.455,1.455,0,0,0,.091-.729,2.742,2.742,0,0,0-.142-.656,8.562,8.562,0,0,0-.437-1.053c-.346-.656-.7-1.316-1.046-1.972a1.051,1.051,0,1,0-1.873.955c.328.671.66,1.338.988,2a8.457,8.457,0,0,0,.572.937,2.906,2.906,0,0,0,.474.536A1.486,1.486,0,0,0,254.123,327.873Z" transform="translate(-234.916 -248.787)" fill="#674021"/>
      <path id="패스_536" data-name="패스 536" d="M259.074,332.626c-.339-.485-.671-1.013-1.05-1.487a29.385,29.385,0,0,1-3.4-5.139.92.92,0,0,0-1.636.838,39.592,39.592,0,0,0,3.98,5.769c.718.944,2.048,2.77,3.368,1.669a.513.513,0,0,0-.313-.882C259.654,333.395,259.289,332.925,259.074,332.626Z" transform="translate(-230.829 -240.852)" fill="#674021"/>
      <path id="패스_537" data-name="패스 537" d="M257.113,322.462c-.372-1.352-2.518-.9-2.136.441.62,2.165.911,4.545,2.187,6.455,1.254,1.87,3.233,3.032,4.672,4.734.441.521,1.2-.077.948-.656-.853-1.957-2.529-3.24-3.707-4.971C257.878,326.7,257.659,324.477,257.113,322.462Z" transform="translate(-225.412 -251.08)" fill="#674021"/>
    </g>
    <g id="그룹_174" data-name="그룹 174" transform="translate(329.061 299.574)">
      <path id="패스_538" data-name="패스 538" d="M281.4,304.8a12.619,12.619,0,0,1,1.979-.609,10.238,10.238,0,0,1,2.333-.219.789.789,0,0,0,.9.248A.839.839,0,0,0,286.9,304c.667.033,1.334.077,1.972.1a49.152,49.152,0,0,1,9.363,1.246c1.44,1.064,2.854,2.168,4.217,3.324a13.634,13.634,0,0,1,2.522,2.518,32.587,32.587,0,0,1,1.607,3.331,15.822,15.822,0,0,0,.969,1.476,10.433,10.433,0,0,1,.86,1.8c.4.933.94,1.8,1.374,2.719a26.034,26.034,0,0,1,1.381,3.091,22.8,22.8,0,0,1,.474,3.71c.066.474.856.456.94,0a15.167,15.167,0,0,0,.51-3.83,7.309,7.309,0,0,0-1.272-3.185c-1.349-2.15-3.185-4.013-4.22-6.371-.543-1.239-.361-2.682-.937-3.954a5.909,5.909,0,0,0-.59-.918c.627.463,1.246.944,1.844,1.443,2.737,2.285,3.681,4.88,5.328,7.9a29.772,29.772,0,0,1,3.984,11.244c.492,4.064.514,8.259.652,12.348a73.625,73.625,0,0,1-2.963,22.37c-.911,3.185-1.513,6.746-2.868,9.76-1.509,3.36-2.876,6.757-4.315,10.15-2.843,6.706-5.7,13.281-9.731,19.389a67.07,67.07,0,0,1-15.3,15.818,24.448,24.448,0,0,0-2.686,2.635,20.12,20.12,0,0,1-3.721,2.617c-3.163,2.077-6.371,3.889-9.72,5.667a97.778,97.778,0,0,1-12.468,5.769c-3.5,1.268-8.193,3.054-11.936,1.979-1.407-.4-3.262-.565-4.432-1.228-1.5-.853-2.883-2.052-4.414-2.923-1.917-1.093-5.74-2.588-7.442-4.68l.011-.095a20.624,20.624,0,0,1,2.77-3.506,2.7,2.7,0,0,0,.324-.222,9.08,9.08,0,0,0,1.072-1.13c2.023-1.855,4.217-3.543,6.181-5.558.809-.827,1.44-1.757,2.307-2.526a18.454,18.454,0,0,0,1.932-1.7c1.4-1.615,2.456-3.546,3.7-5.277,3.094-4.3,6.681-8.324,9.337-12.927a36.879,36.879,0,0,0,4.435-12.169c.922-4.938,1.44-9.84,3.12-14.611,1.637-4.65,5.132-7.748,7.821-11.71,2.719-4,4.3-8.736,6.71-12.9,2.533-4.377,6.269-7.971,8.288-12.632,2.322-5.368,1.789-10.62,1.024-16.244a46.036,46.036,0,0,0-2.234-8.018A25.69,25.69,0,0,0,281.4,304.8ZM244.7,417.867c-.991-.106-1.888.907-2.376,1.651-.277.43-.525.878-.784,1.316-.124.215-.251.423-.39.627l-.1.135c-.091.109-.182.215-.277.321a19.379,19.379,0,0,1-6.057,5,1.009,1.009,0,0,0-.357,1.363,1.022,1.022,0,0,0,1.363.357,18.654,18.654,0,0,0,6.21-4.971,10.821,10.821,0,0,0,1.513-2.73,4.86,4.86,0,0,1,1.472-2.267A.437.437,0,0,0,244.7,417.867Zm9.137-12.829c-.16.423.554.634.689.189.529-1.735,1.786-3.116,2.453-4.789.069-.179-.226-.3-.31-.131C255.864,401.972,254.5,403.3,253.834,405.038Zm-4.067,5.022a3.577,3.577,0,0,0-1.079,1.064c-.3.394-.58.805-.846,1.221-.528.824-1.02,1.676-1.622,2.453a.675.675,0,1,0,1.166.681c.532-.794.951-1.651,1.407-2.489.233-.423.47-.842.733-1.246s.554-.74.78-1.144A.4.4,0,0,0,249.766,410.06Zm10.547,11.783a36.957,36.957,0,0,0-4.519,1.688q-1.05.47-2.077.98a5.375,5.375,0,0,0-1.964,1.37c-.211.273-.117.8.317.769a3.389,3.389,0,0,0,1.119-.281c.339-.142.667-.291.995-.459.7-.364,1.41-.714,2.125-1.042a34.909,34.909,0,0,1,4.374-1.684A.7.7,0,0,0,260.314,421.843Zm19-38.006a43.352,43.352,0,0,1,3.036-4.009c2.486-2.7,4.563-5.755,7.173-8.346.758-.751-.4-1.91-1.166-1.17-2.6,2.529-4.683,5.518-7.158,8.164-2.234,2.391-3.677,5.365-5.839,7.81-.408.467.135,1.316.707.915A13.627,13.627,0,0,0,279.313,383.837Zm9.767,20.384c-1.075,1.024-2.059,2.147-3.16,3.149-.937.853-2.074,1.432-3.018,2.282a13.387,13.387,0,0,0-1.152,1.33,9.38,9.38,0,0,1-1.254,1.181,11.206,11.206,0,0,1-3.244,2.088.376.376,0,0,0,.1.736,6.5,6.5,0,0,0,3.743-1.075,11.6,11.6,0,0,0,2.8-2.722c.835-.977,1.855-1.742,2.766-2.646,1.133-1.119,2.107-2.391,3.193-3.553A.544.544,0,0,0,289.081,404.221Zm23.93-56.025c-.077-.368-.164-.736-.244-1.108-.04-.179-.077-.361-.109-.543a2.773,2.773,0,0,1-.055-.4.5.5,0,0,0-.488-.488.491.491,0,0,0-.488.488,17.5,17.5,0,0,0,.35,2.172,9.006,9.006,0,0,1,.146,1.039,7.079,7.079,0,0,1,.047,1c-.033.543.773.616.922.124A4.544,4.544,0,0,0,313.011,348.2Zm-1.589-11.08.073.6a.62.62,0,0,0,1.239,0l.073-.6a2.231,2.231,0,0,0,.186-1.192l0-1.334c0-.889-.007-1.775-.011-2.664a.864.864,0,0,0-1.728,0l-.011,2.664-.007,1.276A2.279,2.279,0,0,0,311.422,337.117ZM295.44,398.594a10.154,10.154,0,0,0,2.883-3.2c1.079-1.6,2.373-3,3.572-4.516a30.46,30.46,0,0,0,4.793-9.29c.62-1.84,1.122-3.681,1.884-5.474a23.209,23.209,0,0,0,1.5-4.891c.328-1.757.864-3.5,1.064-5.266a38.546,38.546,0,0,0-.113-6.119.489.489,0,0,0-.977,0,35.007,35.007,0,0,1-.31,5.831c-.335,1.72-.878,3.4-1.246,5.117-.7,3.236-2.245,6.232-3.233,9.388a29.149,29.149,0,0,1-4.84,9.687c-.98,1.221-2.114,2.329-2.981,3.634-.955,1.436-1.33,3.185-2.427,4.538C294.77,398.324,295.072,398.827,295.44,398.594Zm-11.692-55.321c-2.526,3.466-5.106,6.877-7.665,10.314a122.671,122.671,0,0,0-11.761,20.231,80.592,80.592,0,0,0-3.532,10.464c-1.039,3.357-2.435,6.783-2.679,10.318-.077,1.05,1.494,1.01,1.615,0,.474-4.075,2.624-7.96,4.009-11.776a72.1,72.1,0,0,1,4.144-10.2c2.016-3.685,3.834-7.446,5.9-11.109a98.3,98.3,0,0,1,6.859-10.354c2.544-3.419,5.117-6.848,7.6-10.311,2.121-2.956,4.133-6.01,4.858-9.614.729-3.626.846-6.108-.4-9.644-.58-1.647-1.487-3.178-1.954-4.855-.51-1.822-.58-3.739-1.159-5.533a.682.682,0,0,0-1.3,0,12.315,12.315,0,0,0,1.093,8.929,20.76,20.76,0,0,1,2.063,5.635,16.787,16.787,0,0,1-.813,6.378C289.467,336.257,286.22,339.88,283.749,343.273Z" transform="translate(-188.511 -287.94)" fill="#fff"/>
      <path id="패스_539" data-name="패스 539" d="M228.1,415.918c-1.349-2.8-2.661-5.521-3.768-8.437-1.082-2.835-1.709-5.715-2.916-8.521a25,25,0,0,1-1.316-4.195c-.415-1.735-1.294-3.174-1.779-4.858-1.669-5.806-.434-12.362-.467-18.329a94.178,94.178,0,0,1,1.994-18.321c1.214-6.218,2.7-13.35,5.809-18.952,1.312-2.362,2.788-4.574,4.14-6.9,1.8-3.1,3.328-5.846,6.123-8.237,2.631-2.249,5.583-3.947,8.24-6.119a73.5,73.5,0,0,1,8.317-6.36c3.142-1.9,6.6-4.1,10.125-5.117,3.51-1.017,7.227-.674,10.843-.689,3.874-.018,7.362.036,10.886,1.866a21.394,21.394,0,0,1,4.373,3.087c-1.866-.631-3.725-1.283-5.638-1.793a35.766,35.766,0,0,0-15.475-.488,33.5,33.5,0,0,0-3.914.572,19.006,19.006,0,0,0-3.539,1.64c-2.063,1.13-3.75,2.526-5.769,3.626a14.812,14.812,0,0,0-2.562,1.884,27.823,27.823,0,0,1-3.739,2.759,26.388,26.388,0,0,0-5.937,5.471c-.787.94.569,2.3,1.356,1.352,1.6-1.943,3.579-3.5,5.157-5.474a10.249,10.249,0,0,1,5.791-3.867c2.125-.609,3.247-1.844,5.08-2.836a19.529,19.529,0,0,1,7.683-2.537c4.971-.525,9.84-1.148,14.735.31,2.285.678,4.468,1.567,6.706,2.384a19.305,19.305,0,0,0,2.529.667,70.918,70.918,0,0,1,3.163,7.049c1.593,4.217,2.544,9.815.977,14.385-1.05,3.043-3.178,5.638-5.175,8.1-1.819,2.241-2.839,5.011-4.753,7.162-1.892,2.128-4.4,3.666-6.309,5.813a39.276,39.276,0,0,0-4.815,7.34,47.559,47.559,0,0,0-5.478,19.076,57.412,57.412,0,0,0-.375,8.805,28.667,28.667,0,0,1-.6,9.458c-.754,3.1-1.451,6.28-2.442,9.312-1.115,3.4-2.981,6.466-4.432,9.72a34.508,34.508,0,0,1-4.18,6.826c-.31.313-.623.623-.911.969-1.687,2.012-3.936,3.652-5.769,5.562-1.513,1.574-3.04,3.123-4.527,4.712-.35.146-.7.3-.805.357-.255.135-.645.747-.838.8a7.911,7.911,0,0,1-2.019-.35c-4.989-1.094-8.014-7.574-10.478-11.48C229.995,420.9,229.237,418.294,228.1,415.918ZM285.389,335.1a13.51,13.51,0,0,0-.995,3.524c-.029.641.882.7,1.071.146.423-1.246,1.272-2.314,1.728-3.557a11.046,11.046,0,0,0,.306-4.235,29.387,29.387,0,0,0-.179-4.166c-.262-1.429-.973-2.726-1.221-4.162-.124-.722-1.359-.565-1.29.175.124,1.341.623,2.58.838,3.9a37.6,37.6,0,0,1-.058,4.25A11.514,11.514,0,0,1,285.389,335.1Zm-26.186,66.8a39.26,39.26,0,0,1-3.01,6.6c-.2.408.408.773.616.361a40.671,40.671,0,0,0,2.752-6.225c.357-1.181.5-2.413.864-3.59.379-1.21.893-2.34,1.385-3.5a21.317,21.317,0,0,0,1.392-5.89c.124-1.079,1.607-3.75.383-4.552a.469.469,0,0,0-.569.073,5.768,5.768,0,0,0-.824,1.742,9.067,9.067,0,0,0-.634,2.569,37.571,37.571,0,0,1-.867,6.112C260.11,397.669,259.793,399.812,259.2,401.893Zm-7.18-23.508c1.443-1.348,1.407-3.437,1.83-5.226a22.976,22.976,0,0,1,3.05-6.914c.324-.514-.474-.969-.809-.474a25.022,25.022,0,0,0-3.247,6.622,20.408,20.408,0,0,0-.587,2.8,7.411,7.411,0,0,1-.827,2.741C251.2,378.3,251.72,378.674,252.023,378.386Zm-2.041,39.963a.749.749,0,0,0,1.37.178c.222-.455.423-.922.663-1.37.12-.222.262-.43.394-.649.066-.106.12-.219.182-.324.033-.051.066-.1.1-.153l.047-.066c.015-.022,0,0,0,0a.642.642,0,0,0,.047-.835.627.627,0,0,0-.82-.164,4.26,4.26,0,0,0-.692.587,3.966,3.966,0,0,0-.521.791c-.255.463-.466.951-.7,1.425A.8.8,0,0,0,249.982,418.349Zm-8.962,5.973-.015-.007c-.051-.018-.047,0-.069,0l-.077-.047-.087-.095-.058-.095a2.286,2.286,0,0,1-.149-.656.921.921,0,0,0-1.84,0,2.968,2.968,0,0,0,1.531,3.116,6.134,6.134,0,0,0,3.929.364,6.254,6.254,0,0,0,3.375-2.427,11,11,0,0,0,2.128-3.532.588.588,0,0,0-.718-.718,7.567,7.567,0,0,0-2.715,1.979c-.233.219-.47.434-.714.638-.1.087-.208.175-.31.259.179-.146-.106.077-.142.106-.073.051-.718.521-.408.3-.1.069-.2.142-.3.208s-.2.128-.31.186c-.055.029-.113.058-.171.088-.106.033-.211.073-.321.1-.091.022-.423.058-.04.014-.259.029-.518.066-.776.095s-.488.044-.733.066c-.08,0-.729.065-.317.033-.117.011-.23.022-.35.026s-.219-.007-.324,0Zm-6.294-95a1.024,1.024,0,0,0,1.41,0,13.911,13.911,0,0,0,1.381-1.472c.251-.306.521-.6.754-.918l.149-.2c.022-.033.168-.219.033-.051.138-.175.281-.346.415-.521a10.23,10.23,0,0,0,.937-1.491c.139-.266.284-.532.445-.787a3.731,3.731,0,0,0,.255-.415c.073-.164.084-.219.153-.357a.572.572,0,0,0-.638-.827,2.2,2.2,0,0,0-.929.434,8.755,8.755,0,0,0-.667.6c-.448.437-.816.922-1.232,1.385-.211.241-.441.466-.652.707a9.164,9.164,0,0,0-.692.969c-.179.273-.361.55-.55.82l-.146.2-.062.08c.051-.062.055-.062.007-.007q-.175.224-.372.437A1.02,1.02,0,0,0,234.726,329.319Zm-2.755,12.989a.3.3,0,0,0,.6,0,6.926,6.926,0,0,1,1.374-3.156,5.651,5.651,0,0,0,.671-1.615,2.7,2.7,0,0,0-.029-1.673c-.113-.248-.426-.087-.452.124-.036.266-.018.532-.076.8a3.724,3.724,0,0,1-.262.765c-.248.528-.529,1.046-.795,1.567A6.58,6.58,0,0,0,231.97,342.308Zm-4.37,50.919c1.323,2.562,1.859,5.594,2.967,8.284,1.3,3.167,2.61,6.338,3.947,9.494.2.463,1.006.131.824-.35-1.786-4.749-3.616-9.6-4.366-14.626-.215-1.447-.35-2.923-.674-4.33a37.3,37.3,0,0,0-1.17-4.953,37.921,37.921,0,0,0-.434-3.9c-.128-1.848.106-3.55-.193-5.412a45.537,45.537,0,0,1-1-6.3c-.044-2.125.98-3.663,1.542-5.627a11.128,11.128,0,0,0,.357-3.163,17.761,17.761,0,0,1,.645-4.45c.164-.641.343-1.25.448-1.91.284-1.728.131-3.433.5-5.153a16.578,16.578,0,0,0,.434-5.361.206.206,0,0,0-.412,0,76.82,76.82,0,0,1-1.615,9.757c-.262,1.327-.959,2.522-1.254,3.787-.313,1.359-.084,2.77-.339,4.14-.474,2.537-1.356,4.37-1.272,6.99a29.7,29.7,0,0,1-1.512,10.2,10.131,10.131,0,0,0-.12,7.329A53.786,53.786,0,0,0,227.6,393.227Z" transform="translate(-210.845 -296.218)" fill="#fff"/>
      <path id="패스_540" data-name="패스 540" d="M251.143,330.646c-6.549,5.616-10.161,12.676-12.115,21-1.626,6.928-1.013,14.294-2.992,21.139-1.075,3.71-2.354,7.435-3.736,11.043-.284.743-.6,1.458-.94,2.158,1.793-2.6,3.477-5.245,5.183-7.931,2.4-3.787,3.444-9,4.293-13.412a37.628,37.628,0,0,1,4.494-12.461c1.166-1.881,2.595-3.674,3.885-5.478,1.141-1.6,2.671-2.865,3.707-4.538,2.6-4.206,4.363-9.061,6.334-13.576a126.015,126.015,0,0,0,4.96-13.485,21.85,21.85,0,0,0,.889-5.919,17.9,17.9,0,0,1-1.378,4.1c-1.728,3.6-4.621,6.243-6.648,9.6C255.3,325.839,253.8,328.368,251.143,330.646Z" transform="translate(-174.037 -274.143)" fill="#fff"/>
      <path id="패스_541" data-name="패스 541" d="M230.579,428.294c-1.516-2.814-2.562-5.9-4.056-8.743a56.817,56.817,0,0,1-3.655-9.017c-1.05-3.335-2.657-6.546-3.543-9.921-.86-3.291-2.223-6.32-2.941-9.691-.671-3.152-.543-6.5-.667-9.709-.543-14.1,1.432-28.657,8.572-40.983,1.768-3.051,3.459-6.108,5.285-9.093.867-1.418,2.026-2.573,2.868-4.038a28.048,28.048,0,0,1,2.577-3.754,37.635,37.635,0,0,1,7.85-7.041c3.007-2.074,5.791-4.177,8.627-6.506,4.909-4.027,10.854-8.521,17.2-9.8,3.586-.725,7.5-.3,11.142-.306a23.667,23.667,0,0,1,9.279,1.487,25.657,25.657,0,0,1,10.183,7.872c.284.226.579.437.853.671a16.15,16.15,0,0,1,3.127,3.772,11.43,11.43,0,0,1,5.766-2.963,14.34,14.34,0,0,1,1.793-.324,1.08,1.08,0,0,1,1.775-.437.97.97,0,0,1,.179.332c3.262-.018,6.6.729,9.753,1.061,7.931.831,16.813,5.518,20.308,13.124,1.724,3.754,3.8,7.5,4.727,11.546,1,4.385.926,8.743.918,13.208-.015,9.122-.328,18.23-3.021,27.036-1.141,3.728-1.87,7.763-3.55,11.287-1.957,4.115-3.6,8.43-5.35,12.647-3.193,7.7-7.063,15.274-12.312,21.8A90.339,90.339,0,0,1,315.039,431c-1.52,1.41-3.327,2.591-4.7,4.133A16.129,16.129,0,0,1,307,438.171c-7.5,4.844-15.162,9.578-23.413,13.073a39.045,39.045,0,0,1-11.3,3.269c-2.136.208-3.841-.368-5.893-.536-1.553-.128-2.584-.033-3.994-.926-3.233-2.048-6.9-3.983-9.924-6.338a8.477,8.477,0,0,1-3.116-4.1,2.1,2.1,0,0,1-.718-.587,11.447,11.447,0,0,1-6.691-.211c-2.639-.991-4.312-3.459-6-5.583A53.483,53.483,0,0,1,230.579,428.294Zm68.1-79.97c-1.779,2.945-3.28,5.474-5.937,7.752-6.549,5.616-10.161,12.676-12.115,21-1.626,6.928-1.013,14.294-2.992,21.139-1.075,3.71-2.354,7.435-3.736,11.043-.284.743-.6,1.458-.94,2.158,1.793-2.6,3.477-5.245,5.183-7.931,2.4-3.787,3.444-9,4.293-13.412a37.629,37.629,0,0,1,4.494-12.461c1.166-1.881,2.595-3.674,3.885-5.478,1.141-1.6,2.671-2.865,3.707-4.538,2.6-4.206,4.363-9.061,6.334-13.576a126.022,126.022,0,0,0,4.96-13.485,21.849,21.849,0,0,0,.889-5.919,17.9,17.9,0,0,1-1.378,4.1C303.6,342.329,300.7,344.967,298.675,348.324Zm9.848-31.89a25.688,25.688,0,0,1,1.286,3.287,46.041,46.041,0,0,1,2.234,8.018c.765,5.624,1.3,10.875-1.024,16.244-2.019,4.661-5.755,8.255-8.288,12.632-2.409,4.162-3.991,8.9-6.71,12.9-2.69,3.962-6.185,7.06-7.821,11.71-1.68,4.771-2.2,9.673-3.12,14.611A36.878,36.878,0,0,1,280.645,408c-2.657,4.6-6.243,8.63-9.337,12.927-1.246,1.731-2.307,3.663-3.7,5.277a18.454,18.454,0,0,1-1.932,1.7c-.867.769-1.5,1.7-2.307,2.526-1.964,2.015-4.158,3.7-6.181,5.558a9.08,9.08,0,0,1-1.072,1.13,2.7,2.7,0,0,1-.324.222,20.626,20.626,0,0,0-2.77,3.506l-.011.095c1.7,2.092,5.525,3.586,7.442,4.68,1.531.871,2.912,2.07,4.414,2.923,1.17.663,3.025.824,4.432,1.228,3.743,1.075,8.437-.711,11.936-1.979A97.779,97.779,0,0,0,293.7,442.03c3.349-1.779,6.557-3.59,9.72-5.667a20.119,20.119,0,0,0,3.721-2.617,24.448,24.448,0,0,1,2.686-2.635,67.07,67.07,0,0,0,15.3-15.818c4.031-6.108,6.888-12.683,9.731-19.389,1.44-3.393,2.806-6.79,4.315-10.15,1.356-3.014,1.957-6.575,2.868-9.76A73.626,73.626,0,0,0,345,353.623c-.138-4.089-.16-8.284-.652-12.348a29.771,29.771,0,0,0-3.984-11.244c-1.647-3.021-2.591-5.616-5.328-7.9-.6-.5-1.217-.98-1.844-1.443a5.909,5.909,0,0,1,.59.918c.576,1.272.394,2.715.937,3.954,1.035,2.358,2.872,4.22,4.22,6.371a7.31,7.31,0,0,1,1.272,3.185,15.167,15.167,0,0,1-.51,3.831c-.084.456-.875.474-.94,0a22.793,22.793,0,0,0-.474-3.71,26.029,26.029,0,0,0-1.381-3.091c-.434-.918-.969-1.786-1.374-2.719a10.435,10.435,0,0,0-.86-1.8,15.826,15.826,0,0,1-.969-1.476,32.584,32.584,0,0,0-1.607-3.331,13.637,13.637,0,0,0-2.522-2.518c-1.363-1.155-2.777-2.26-4.217-3.324A49.152,49.152,0,0,0,316,315.734c-.638-.025-1.3-.069-1.972-.1a.84.84,0,0,1-.288.222.789.789,0,0,1-.9-.248,10.238,10.238,0,0,0-2.333.219A12.622,12.622,0,0,0,308.522,316.434Zm-79.408,94.4c1.108,2.916,2.42,5.638,3.769,8.437,1.141,2.376,1.9,4.979,3.3,7.206,2.464,3.907,5.489,10.387,10.478,11.48a7.91,7.91,0,0,0,2.019.35c.193-.051.583-.663.838-.8.106-.055.456-.211.805-.357,1.487-1.589,3.014-3.138,4.527-4.713,1.833-1.91,4.082-3.55,5.769-5.562.288-.346.6-.656.911-.969a34.51,34.51,0,0,0,4.18-6.826c1.451-3.255,3.317-6.32,4.432-9.72.991-3.032,1.687-6.21,2.442-9.312a28.668,28.668,0,0,0,.6-9.458,57.4,57.4,0,0,1,.375-8.805,47.559,47.559,0,0,1,5.478-19.076,39.281,39.281,0,0,1,4.815-7.34c1.906-2.147,4.417-3.685,6.309-5.813,1.913-2.15,2.934-4.92,4.753-7.162,2-2.46,4.126-5.055,5.175-8.1,1.567-4.57.616-10.168-.977-14.385a70.924,70.924,0,0,0-3.163-7.049,19.307,19.307,0,0,1-2.529-.667c-2.238-.816-4.421-1.706-6.706-2.384-4.895-1.458-9.764-.835-14.735-.31a19.528,19.528,0,0,0-7.683,2.537c-1.833.991-2.956,2.227-5.081,2.836a10.249,10.249,0,0,0-5.791,3.867c-1.578,1.972-3.553,3.532-5.157,5.474-.787.951-2.143-.412-1.356-1.352a26.389,26.389,0,0,1,5.937-5.471,27.823,27.823,0,0,0,3.739-2.759,14.813,14.813,0,0,1,2.562-1.884c2.019-1.1,3.707-2.5,5.769-3.626a19,19,0,0,1,3.539-1.64,33.5,33.5,0,0,1,3.914-.572,35.766,35.766,0,0,1,15.475.488c1.913.51,3.772,1.163,5.638,1.793a21.394,21.394,0,0,0-4.374-3.087c-3.524-1.83-7.012-1.884-10.886-1.866-3.615.015-7.333-.328-10.843.689-3.528,1.02-6.983,3.222-10.125,5.117a73.5,73.5,0,0,0-8.317,6.36c-2.657,2.172-5.609,3.871-8.24,6.119-2.8,2.391-4.323,5.135-6.123,8.237-1.352,2.322-2.828,4.534-4.14,6.9-3.105,5.6-4.6,12.734-5.809,18.952a94.177,94.177,0,0,0-1.994,18.321c.033,5.966-1.2,12.523.467,18.329.485,1.684,1.363,3.123,1.779,4.858a25,25,0,0,0,1.316,4.195C227.4,405.121,228.032,408,229.114,410.836Z" transform="translate(-215.632 -299.574)" fill="#674021"/>
      <path id="패스_542" data-name="패스 542" d="M229.561,378.769c.2.463,1.006.131.824-.35-1.786-4.749-3.616-9.6-4.366-14.626-.215-1.447-.35-2.923-.674-4.33a37.3,37.3,0,0,0-1.17-4.953,37.929,37.929,0,0,0-.434-3.9c-.128-1.848.106-3.55-.193-5.412a45.537,45.537,0,0,1-1-6.3c-.044-2.125.98-3.663,1.542-5.627a11.127,11.127,0,0,0,.357-3.163,17.761,17.761,0,0,1,.645-4.45c.164-.641.343-1.25.448-1.91.284-1.728.131-3.433.5-5.153a16.577,16.577,0,0,0,.434-5.361.206.206,0,0,0-.412,0,76.814,76.814,0,0,1-1.615,9.757c-.262,1.327-.959,2.522-1.254,3.787-.313,1.359-.084,2.77-.339,4.14-.474,2.537-1.356,4.37-1.272,6.99a29.7,29.7,0,0,1-1.513,10.2,10.131,10.131,0,0,0-.12,7.329,53.789,53.789,0,0,0,2.7,5.551c1.323,2.562,1.859,5.594,2.967,8.284C226.919,372.442,228.224,375.613,229.561,378.769Z" transform="translate(-205.892 -263.982)" fill="#674021"/>
      <path id="패스_543" data-name="패스 543" d="M222.032,316.987a6.925,6.925,0,0,1,1.374-3.156,5.652,5.652,0,0,0,.671-1.615,2.7,2.7,0,0,0-.029-1.673c-.113-.248-.426-.087-.452.124-.036.266-.018.532-.076.8a3.726,3.726,0,0,1-.262.765c-.248.528-.529,1.046-.795,1.567a6.58,6.58,0,0,0-1.031,3.189A.3.3,0,0,0,222.032,316.987Z" transform="translate(-200.305 -270.897)" fill="#674021"/>
      <path id="패스_544" data-name="패스 544" d="M223.8,313.778a13.911,13.911,0,0,0,1.381-1.472c.251-.306.521-.6.754-.918l.149-.2c.022-.033.168-.219.033-.051.138-.175.281-.346.415-.521a10.229,10.229,0,0,0,.937-1.491c.139-.266.284-.532.445-.787a3.735,3.735,0,0,0,.255-.415c.073-.164.084-.219.153-.357a.572.572,0,0,0-.638-.827,2.2,2.2,0,0,0-.929.434,8.737,8.737,0,0,0-.667.6c-.448.437-.816.922-1.232,1.385-.211.241-.441.466-.652.707a9.156,9.156,0,0,0-.692.969c-.179.273-.361.55-.55.82l-.146.2-.062.08c.051-.062.055-.062.007-.007q-.175.224-.372.437a1,1,0,1,0,1.41,1.41Z" transform="translate(-198.509 -280.678)" fill="#674021"/>
      <path id="패스_545" data-name="패스 545" d="M235.813,323.139c-.029.641.882.7,1.072.146.423-1.246,1.272-2.314,1.728-3.557a11.045,11.045,0,0,0,.306-4.235,29.383,29.383,0,0,0-.179-4.166c-.262-1.429-.973-2.726-1.221-4.162-.124-.722-1.359-.565-1.29.175.124,1.341.623,2.58.838,3.9a37.61,37.61,0,0,1-.058,4.25,11.515,11.515,0,0,1-.2,4.122A13.507,13.507,0,0,0,235.813,323.139Z" transform="translate(-162.264 -280.737)" fill="#674021"/>
      <path id="패스_546" data-name="패스 546" d="M225.509,337.7l-.077-.047-.087-.095-.058-.095a2.286,2.286,0,0,1-.149-.656.921.921,0,0,0-1.84,0,2.968,2.968,0,0,0,1.531,3.116,6.134,6.134,0,0,0,3.929.364,6.254,6.254,0,0,0,3.375-2.427,11,11,0,0,0,2.128-3.531.589.589,0,0,0-.718-.718,7.567,7.567,0,0,0-2.715,1.979c-.233.219-.47.434-.714.638-.1.087-.208.175-.31.259.179-.146-.106.077-.142.106-.073.051-.718.521-.408.3-.1.069-.2.142-.3.208s-.2.128-.31.186c-.055.029-.113.058-.171.088-.106.033-.211.073-.321.1-.091.022-.423.058-.04.014-.259.029-.518.066-.776.095s-.488.044-.733.066c-.08,0-.729.065-.317.033-.117.011-.23.022-.35.026s-.219-.007-.324,0h-.015l-.015-.007C225.527,337.689,225.531,337.7,225.509,337.7Z" transform="translate(-195.418 -209.611)" fill="#674021"/>
      <path id="패스_547" data-name="패스 547" d="M226.732,336.053a.757.757,0,0,0,1.028-.27c.222-.455.423-.922.663-1.37.12-.222.262-.43.394-.649.066-.106.12-.219.182-.324.033-.051.066-.1.1-.153l.047-.066c.015-.022,0,0,0,0a.642.642,0,0,0,.047-.835.626.626,0,0,0-.82-.164,4.258,4.258,0,0,0-.692.587,3.965,3.965,0,0,0-.521.791c-.255.463-.466.951-.7,1.425a.8.8,0,0,0-.073.58A.758.758,0,0,0,226.732,336.053Z" transform="translate(-187.253 -213.475)" fill="#674021"/>
      <path id="패스_548" data-name="패스 548" d="M228.72,347.765a40.67,40.67,0,0,0,2.752-6.225c.357-1.181.5-2.413.864-3.59.379-1.21.893-2.34,1.385-3.5a21.318,21.318,0,0,0,1.392-5.89c.124-1.079,1.607-3.75.383-4.552a.469.469,0,0,0-.569.073,5.767,5.767,0,0,0-.824,1.742,9.065,9.065,0,0,0-.634,2.569,37.571,37.571,0,0,1-.867,6.112c-.579,2.081-.9,4.224-1.487,6.305a39.259,39.259,0,0,1-3.01,6.6C227.9,347.813,228.512,348.177,228.72,347.765Z" transform="translate(-182.757 -235.133)" fill="#674021"/>
      <path id="패스_549" data-name="패스 549" d="M227.4,331.427c1.443-1.348,1.407-3.437,1.83-5.226a22.976,22.976,0,0,1,3.05-6.914c.324-.514-.474-.969-.809-.474a25.022,25.022,0,0,0-3.247,6.622,20.409,20.409,0,0,0-.587,2.8,7.41,7.41,0,0,1-.827,2.741C226.58,331.343,227.1,331.715,227.4,331.427Z" transform="translate(-186.222 -249.259)" fill="#674021"/>
      <path id="패스_550" data-name="패스 550" d="M238.643,335.229c-.991-.106-1.888.907-2.376,1.651-.277.43-.525.878-.784,1.316-.124.215-.251.423-.39.627l-.1.135c-.091.109-.182.215-.277.321a19.379,19.379,0,0,1-6.057,5,1.009,1.009,0,0,0-.357,1.363,1.022,1.022,0,0,0,1.363.357,18.654,18.654,0,0,0,6.21-4.971,10.822,10.822,0,0,0,1.512-2.73,4.86,4.86,0,0,1,1.472-2.267A.437.437,0,0,0,238.643,335.229Z" transform="translate(-182.457 -205.302)" fill="#674021"/>
      <path id="패스_551" data-name="패스 551" d="M235.085,333.119a3.577,3.577,0,0,0-1.079,1.064c-.3.394-.58.805-.846,1.221-.528.824-1.02,1.676-1.622,2.453a.675.675,0,1,0,1.166.682c.532-.794.951-1.651,1.407-2.489.233-.423.47-.842.733-1.247s.554-.74.78-1.144A.4.4,0,0,0,235.085,333.119Z" transform="translate(-173.829 -210.999)" fill="#674021"/>
      <path id="패스_552" data-name="패스 552" d="M234.261,335.385c.529-1.735,1.786-3.116,2.453-4.789.069-.179-.226-.3-.31-.131-.8,1.666-2.165,2.989-2.832,4.731C233.412,335.618,234.126,335.829,234.261,335.385Z" transform="translate(-168.249 -218.098)" fill="#674021"/>
      <path id="패스_553" data-name="패스 553" d="M252.7,348.69a122.671,122.671,0,0,0-11.761,20.231,80.591,80.591,0,0,0-3.532,10.464c-1.039,3.357-2.435,6.783-2.679,10.318-.077,1.05,1.494,1.01,1.615,0,.474-4.075,2.624-7.96,4.009-11.776a72.105,72.105,0,0,1,4.144-10.2c2.016-3.685,3.834-7.446,5.9-11.109a98.306,98.306,0,0,1,6.859-10.354c2.544-3.419,5.117-6.848,7.6-10.311,2.121-2.956,4.133-6.01,4.858-9.614.729-3.626.846-6.108-.4-9.644-.58-1.647-1.487-3.178-1.953-4.855-.51-1.822-.58-3.739-1.159-5.533a.682.682,0,0,0-1.3,0A12.315,12.315,0,0,0,266,315.236a20.759,20.759,0,0,1,2.063,5.635,16.787,16.787,0,0,1-.813,6.378c-1.163,4.111-4.41,7.734-6.881,11.127C257.841,341.842,255.261,345.253,252.7,348.69Z" transform="translate(-165.129 -283.044)" fill="#674021"/>
      <path id="패스_554" data-name="패스 554" d="M249.5,317.462l.073.6a.62.62,0,0,0,1.239,0l.073-.6a2.231,2.231,0,0,0,.186-1.192l0-1.334c0-.889-.007-1.775-.011-2.664a.864.864,0,0,0-1.728,0l-.011,2.664-.007,1.276A2.279,2.279,0,0,0,249.5,317.462Z" transform="translate(-126.584 -268.286)" fill="#674021"/>
      <path id="패스_555" data-name="패스 555" d="M250.444,316.3a2.773,2.773,0,0,1-.055-.4.5.5,0,0,0-.488-.488.491.491,0,0,0-.488.488,17.5,17.5,0,0,0,.35,2.172,9.007,9.007,0,0,1,.146,1.039,7.078,7.078,0,0,1,.047,1c-.033.543.773.616.922.124a4.544,4.544,0,0,0-.08-2.285c-.077-.368-.164-.736-.244-1.108C250.513,316.664,250.477,316.482,250.444,316.3Z" transform="translate(-126.297 -257.694)" fill="#674021"/>
      <path id="패스_556" data-name="패스 556" d="M245.347,358.4a10.154,10.154,0,0,0,2.883-3.2c1.079-1.6,2.373-3,3.572-4.516a30.46,30.46,0,0,0,4.793-9.29c.62-1.841,1.123-3.681,1.884-5.474a23.209,23.209,0,0,0,1.5-4.891c.328-1.757.864-3.5,1.064-5.266a38.55,38.55,0,0,0-.113-6.119.489.489,0,0,0-.977,0,35.01,35.01,0,0,1-.31,5.831c-.335,1.72-.878,3.4-1.246,5.117-.7,3.236-2.245,6.232-3.233,9.388a29.149,29.149,0,0,1-4.84,9.687c-.98,1.221-2.114,2.329-2.981,3.634-.955,1.436-1.33,3.185-2.427,4.538C244.676,358.13,244.979,358.633,245.347,358.4Z" transform="translate(-138.417 -247.746)" fill="#674021"/>
      <path id="패스_557" data-name="패스 557" d="M252,331.593c-1.075,1.024-2.059,2.147-3.16,3.149-.937.853-2.074,1.432-3.018,2.282a13.383,13.383,0,0,0-1.152,1.33,9.38,9.38,0,0,1-1.254,1.181,11.205,11.205,0,0,1-3.244,2.088.376.376,0,0,0,.1.736,6.5,6.5,0,0,0,3.743-1.075,11.6,11.6,0,0,0,2.8-2.722c.835-.977,1.855-1.742,2.766-2.646,1.133-1.119,2.107-2.391,3.193-3.553A.544.544,0,0,0,252,331.593Z" transform="translate(-151.432 -215.313)" fill="#674021"/>
      <path id="패스_558" data-name="패스 558" d="M241.624,336.337a36.964,36.964,0,0,0-4.519,1.688q-1.05.47-2.077.98a5.375,5.375,0,0,0-1.964,1.37c-.211.273-.117.8.317.769a3.39,3.39,0,0,0,1.119-.281c.339-.142.667-.291.995-.459.7-.364,1.41-.714,2.125-1.042a34.9,34.9,0,0,1,4.374-1.684A.7.7,0,0,0,241.624,336.337Z" transform="translate(-169.821 -202.435)" fill="#674021"/>
      <path id="패스_559" data-name="패스 559" d="M243.519,335.872a43.358,43.358,0,0,1,3.036-4.009c2.486-2.7,4.563-5.755,7.173-8.346.758-.751-.4-1.91-1.166-1.17-2.6,2.529-4.683,5.518-7.158,8.164-2.234,2.391-3.677,5.365-5.839,7.81-.408.467.135,1.316.707.915A13.626,13.626,0,0,0,243.519,335.872Z" transform="translate(-152.716 -239.976)" fill="#674021"/>
    </g>
    <g id="그룹_175" data-name="그룹 175" transform="translate(172.741 306.208)">
      <path id="패스_560" data-name="패스 560" d="M199.586,341.012a70.077,70.077,0,0,0-7.909-7.865c-.091-.084-.189-.164-.284-.244-.878-1.272-1.789-2.526-2.693-3.783-1.924-2.668-3.353-5.671-5.438-8.211-1.884-2.285-4.06-4.37-5.886-6.691-.765-.966-1.144-2.07-1.851-3.083l-.59-.718c.08-.328.157-.758.179-.867a8.353,8.353,0,0,0,.35-1.5,1.388,1.388,0,0,1,.026-.328,10.1,10.1,0,0,1,3.82-.408,18.017,18.017,0,0,1,3.725,1.283c1.815.671,3.7,1.108,5.456,1.928,2.726,1.279,5.693,2.486,8.306,3.962a39.53,39.53,0,0,0,3.707,2.285,50.253,50.253,0,0,1,5.07,2.5c11.287,6.458,22.52,14.232,35.283,17.41,6.99,1.742,14.225,2.569,21.288,3.958a175.574,175.574,0,0,0,19.892,3.043c7.326.59,14.553,3.04,21.722,4.6.219.047.441.095.66.138a36.226,36.226,0,0,0-5.215,2.048c-3.513,1.808-6.232.995-9.9.743a42.492,42.492,0,0,0-9.05.463c-4.031.609-7.413-.824-11.207-1.986-.718-.222-1.181.977-.466,1.254,2.7,1.05,5.387,2.457,8.28,2.919,2.5.394,5.194-.335,7.657-.729a22.572,22.572,0,0,1,5.2-.565c1.447.1,2.857.477,4.3.55a10.716,10.716,0,0,0,5.857-1.578c1.713-.9,2.8-1.4,4.807-.871.765.2,1.64.525,2.446.758a17,17,0,0,0,3.444,1.093,30.272,30.272,0,0,1,4.166.259c2.8.623,6.626,1.673,8.911,3.393a26.145,26.145,0,0,0,3.229,2.507,2.456,2.456,0,0,0,.372.128,7.931,7.931,0,0,1,1.432,2.763,16.937,16.937,0,0,1,.529,2.548c-.849,2.876-1.757,5.824-2.883,8.667a12.744,12.744,0,0,1-5.682,2.9,96.144,96.144,0,0,1-9.465,2.646,69.3,69.3,0,0,1-9.695.51c-3.1.058-6.083.612-9.177.656-6.455.091-12.847.886-19.262-.16-1.483-.241-2.949.015-4.436-.233s-2.948-.74-4.421-1.079c-3.513-.809-7.071-1.41-10.569-2.292a77.1,77.1,0,0,1-19.382-8.415c-6.48-3.8-12.938-7.471-19.13-11.71a61,61,0,0,1-8.434-6.4A105.684,105.684,0,0,1,199.586,341.012ZM299.6,362.045c.627,1.571,1.21,3.156,1.833,4.723.4,1,.74,2.518,1.994,2.744a.493.493,0,0,0,.441-.835.948.948,0,0,1-.211-.419c-.106-.266-.2-.437-.3-.733-.179-.529-.35-1.05-.565-1.567-.6-1.45-1.155-2.916-1.757-4.366a.768.768,0,0,0-.94-.488A.754.754,0,0,0,299.6,362.045Zm-22.159,13.23a7.089,7.089,0,0,1,3.546.066c.569.109,1.1.31,1.669.423a6.836,6.836,0,0,0,1.928.062A23.119,23.119,0,0,1,289,376.2c1.374.157,3.007.368,4.177-.536a.477.477,0,0,0-.146-.857c-1.41-.357-2.934-.375-4.374-.641a13.517,13.517,0,0,0-4.5-.16,15.486,15.486,0,0,1-1.87.306c-.539.015-1.079-.036-1.622-.04a10.2,10.2,0,0,0-3.437.361A.339.339,0,0,0,277.438,375.275Zm-19.765-16.142a.575.575,0,0,0,.426.674,14.488,14.488,0,0,1,2.179.926c.354.179.7.386,1.053.554a10.781,10.781,0,0,0,1.2.415.373.373,0,0,0,.434-.233.389.389,0,0,0-.171-.463c-.339-.237-.66-.518-1.017-.722s-.725-.394-1.09-.583a15.486,15.486,0,0,0-2.336-.991A.569.569,0,0,0,257.674,359.133Zm-25.232.663a24.852,24.852,0,0,0,7.012,5.605,33.109,33.109,0,0,0,10,2.573c1.91.262,3.79.007,5.609.795,1.487.645,2.843,1.571,4.312,2.252a23.724,23.724,0,0,0,8.732,2.088.264.264,0,0,0,.113-.492c-2.846-1.137-6-1.042-8.816-2.322-2.908-1.323-5.576-2.81-8.609-3.885a87.013,87.013,0,0,0-9.214-2.3c-3.269-.773-6.014-2.832-8.419-5.084C232.661,358.557,231.99,359.3,232.442,359.8Zm-37.1-40.925c2.912,2.526,5.379,5.609,8.9,7.329a24.8,24.8,0,0,0,5.19,1.844c1.283.3,2.981.565,4.009,1.447.324.277.973-.026.769-.485-.5-1.133-1.837-1.633-2.883-2.165-.82-.412-1.7-.63-2.551-.966-.915-.361-1.808-.816-2.708-1.214-3.736-1.647-6.808-4.311-10.2-6.516C195.438,317.865,194.961,318.539,195.344,318.871Z" transform="translate(-166.94 -285.87)" fill="#fff"/>
      <path id="패스_561" data-name="패스 561" d="M210.106,316.559h0c.007.007.047,0,.047.018C210.157,316.552,210.135,316.552,210.106,316.559Z" transform="translate(-73.925 -261.301)" fill="#fff"/>
      <path id="패스_562" data-name="패스 562" d="M212.989,312.453c-3.594.368-7.092.813-10.737.969-3.994.171-7.854.088-11.816-.095,7.056,3.681,14.968,5.219,22.6,7.307,7.887,2.161,15.737,4.381,23.817,5.584,4.118.612,8.138.747,12.22,1.676,1.564.357,3.131.7,4.7,1.053-8.685-4.384-17.2-9.159-25.858-13.576-1.465-.743-2.97-1.5-4.49-2.238a13.973,13.973,0,0,0-2.759-.339C218.193,312.77,215.423,312.2,212.989,312.453Z" transform="translate(-125.944 -272.319)" fill="#fff"/>
      <path id="패스_563" data-name="패스 563" d="M177.12,314.561c.5-1.739,1-3.477,2.362-4.614a19.283,19.283,0,0,1,9.512-3.885c3.007-.474,6.043-1.206,9.057-1.545,2.956-.335,5.766-.233,8.63-1.093,6.1-1.83,13.554-1.411,19.819-.663a86.62,86.62,0,0,1,9.549,1.25c3.473.813,6.921,1.731,10.383,2.58,3.255.8,6.524,1.5,9.7,2.577,3.758,1.272,7.14,2.883,10.77,4.428a141.046,141.046,0,0,1,16.838,8.281c11.054,6.531,20.344,15.9,28.621,25.636,4.472,5.266,9.45,10.336,10.362,17.538.146,1.155.357,2.3.561,3.437q-.907-.765-1.786-1.48a12.608,12.608,0,0,0-1.352-1.72c-.507-.569-1.021-1.115-1.487-1.717a47.874,47.874,0,0,1-2.9-4.049,14.047,14.047,0,0,1-1.141-2.143,12.755,12.755,0,0,1-.492-2.187c-.35-1.582-1.214-3-1.542-4.6-.131-.641-1.21-.452-1.137.2.193,1.68.97,3.233,1.144,4.9a11.69,11.69,0,0,0,.386,2.46,18.944,18.944,0,0,0,1,2.482,27.746,27.746,0,0,0,1.5,2.719c-.353-.146-.7-.288-1.05-.434-.153-.153-.3-.31-.463-.47-.955-.948-1.647-2-2.529-3.058a8.26,8.26,0,0,0-1.644-1.461c-.5-.353-1.05-.638-1.52-1.013a26.834,26.834,0,0,1-2.642-2.744.55.55,0,0,0-.7-.066,81.871,81.871,0,0,1-4.723-8.492c-.284-.649-1.323-.361-1.075.339a109.751,109.751,0,0,0,4.979,10.613,11.36,11.36,0,0,0,1.8,2.8c-2.045-1.031-4.086-2.074-6.083-3.167-.6-.328-1.2-.638-1.8-.962a1.073,1.073,0,0,0-.066-.335.416.416,0,0,0-.612-.226l-.018.011c-.044-.051-.138-.146-.2-.233-.281-.357-.51-.769-.769-1.141a31.3,31.3,0,0,1-2.333-3.98c-1.461-2.887-3.105-5.675-4.61-8.539-.35-.671-1.527-.142-1.217.565.8,1.811,1.655,3.6,2.486,5.4.795,1.709,1.44,3.528,2.369,5.168.179.31.361.627.55.944-1-.528-2.008-1.046-3.01-1.567a.634.634,0,0,0,.04-.313,5.419,5.419,0,0,0-.124-.587.57.57,0,0,0-.649-.4c-.026-.026-.055-.051-.08-.08a4.316,4.316,0,0,1-.324-.529c-.219-.39-.415-.8-.671-1.17-.733-1.064-1.735-1.9-2.54-2.9-1.651-2.067-2.9-4.417-4.629-6.425-.51-.594-1.542.252-1.064.875,1.749,2.278,2.89,4.953,4.669,7.209a23,23,0,0,1,1.9,2.54c-5.245-2.668-10.526-5.266-15.85-7.858a119.788,119.788,0,0,0-14.17-5.653c-.988-.332-1.968-.667-2.948-.995-3.4-1.454-7.173-3.2-10.85-3.7a37.3,37.3,0,0,0-6.4-.208c-4.1-.853-8.066-2.176-12.242-2.763-2.5-.346-5.022-.321-7.515-.678-2.938-.419-5.791-1.3-8.681-1.946a47.741,47.741,0,0,1-9.582-2.77c-2.784-1.257-5.58-2.489-8.364-3.743A67.674,67.674,0,0,0,182.714,316a32.465,32.465,0,0,0-3.408-1.09C178.6,314.776,177.845,314.714,177.12,314.561Zm57.756-4.508c2.431.357,4.847.809,7.275,1.192,2.041.321,4.107-.062,6.141.262,2.416.383,4.7,1.516,7.06,2.132A8.962,8.962,0,0,1,259,315.367a16.069,16.069,0,0,0,1.91,1.228c1.928,1.057,4,1.873,5.853,3.069a20.232,20.232,0,0,0,2.558,1.633c.991.452,2,.685,2.956,1.236,3.6,2.07,7.373,4.41,11.491,5.27a.736.736,0,0,0,.51-1.359c-4-2.139-7.6-5.1-11.706-7.038-3.732-1.76-7.471-3.408-11.335-4.949-1.068-.426-2-1.108-3.072-1.5a19.956,19.956,0,0,0-2.544-.5c-2.1-.459-4.093-1.309-6.159-1.9-2.376-.674-4.6-.313-7.016-.609-2.438-.3-4.866-.754-7.3-1.072C234.384,308.781,234.1,309.936,234.876,310.053Zm-19.192-1.13a11.231,11.231,0,0,0,3.2-.015,21.612,21.612,0,0,1,3.054-.463c1.141-.022,2.169.532,3.3.6a11.1,11.1,0,0,0,3.007-.481.112.112,0,0,0-.036-.219,13.3,13.3,0,0,1-3.145.306c-1.082-.149-2.092-.638-3.167-.827a16.23,16.23,0,0,0-2.821-.164,30.788,30.788,0,0,1-3.123.087C215.2,307.673,214.911,308.821,215.684,308.923Zm-30.279,3.79a24.6,24.6,0,0,1,12.344-2.522c2.128.189,4.21-.1,6.334-.029a17.81,17.81,0,0,0,5.853-1.115.59.59,0,0,0,.408-.441l.047-.423a.472.472,0,0,0-.8-.426l-.044.044a7.3,7.3,0,0,0-2.595-.026,18.153,18.153,0,0,1-3.178-.011c-2.263-.139-4.523.15-6.8.051-4.425-.19-8.383,1.549-12.045,3.885C184.417,312.028,184.8,312.987,185.4,312.714Z" transform="translate(-161.159 -299.467)" fill="#fff"/>
      <path id="패스_564" data-name="패스 564" d="M175.1,307.449c.168-.149.073-.2,0,0Z" transform="translate(-166.515 -285.728)" fill="#fff"/>
      <path id="패스_565" data-name="패스 565" d="M320.446,373.706a46.848,46.848,0,0,1-5.707,5.449c-2.963,2.263-6.1,4.3-9.082,6.535a40.593,40.593,0,0,1-8.9,5.022,7.652,7.652,0,0,0,1.735-1.866,27.866,27.866,0,0,0,3.889-6.655c.277-.776-.966-1.046-1.243-.284a16.446,16.446,0,0,1-1.91,3.506c-.722,1.068-1.414,2.2-2.238,3.193a6.489,6.489,0,0,1-2.285,1.826c-.689.339-1.381.769-1.469,1.582a60.463,60.463,0,0,1-8.842,2.1,46.625,46.625,0,0,1-4.876.386c-1.768.1-3.437.693-5.208.82a32.735,32.735,0,0,1-9.542-.6c2.46-.423,4.924-.809,7.081-2.169a46.791,46.791,0,0,0,4.195-3.59,20.043,20.043,0,0,0,1.56-1.276c.317-.313.966-.871.733-1.378a.276.276,0,0,0-.332-.171,1.445,1.445,0,0,0-.576.357,6.42,6.42,0,0,1-.878.51,9.771,9.771,0,0,0-1.713,1.111,33.519,33.519,0,0,1-4,3.262c-2.843,1.666-6.309,1.618-9.436,2.38a.722.722,0,0,0-.168.08c-6.775-1.866-13.627-3.3-20.246-5.737-7.224-2.657-14.261-7.045-20.73-11.156-6.775-4.3-11.951-9.439-17.348-15.3-2.493-2.708-5.314-5.117-7.7-7.909a90.334,90.334,0,0,1-6.509-9.028c-2.154-3.247-4.4-6.418-6.287-9.848a74.285,74.285,0,0,1-4.749-11.885,92.264,92.264,0,0,1-3.266-11.706c.109.106.222.222.324.324.153.149.321.284.477.43a58.3,58.3,0,0,0,10.256,12.843c1.294,1.185,2.613,2.344,3.932,3.5l-.011.011a24.669,24.669,0,0,0-.711,3.6c-.124,1.239,0,2.482-.12,3.721a29.156,29.156,0,0,0-.31,3.564,11.742,11.742,0,0,0,.66,3.411,20.1,20.1,0,0,0,2.894,5.19c.74,1.024,2.03,2.635,3.484,2.19a.4.4,0,0,0-.029-.762c-.587-.215-.988-.878-1.348-1.345-.441-.569-.878-1.126-1.279-1.724a20.441,20.441,0,0,1-2.551-4.953c-.682-2.067-.375-4.027-.375-6.152,0-1.075-.157-2.139-.1-3.222a22.27,22.27,0,0,1,.415-2.985c1.1.969,2.209,1.935,3.3,2.923,3.116,2.821,5.944,5.853,8.933,8.791,2.194,2.154,4.508,4.665,7.187,6.189,3.349,1.91,6.414,4.217,9.574,6.415,3.2,2.23,6.9,3.86,10.256,5.846a89.8,89.8,0,0,0,10.544,5.758c3.513,1.494,6.808,3.43,10.4,4.731a113.665,113.665,0,0,0,11.477,3.2,76.982,76.982,0,0,0,10.784,2.307c3.783.386,7.526.922,11.375,1.123,3.43.179,6.808-.164,10.23-.073a41.7,41.7,0,0,0,5.4-.477c1.99-.2,4.027.029,6.032-.073A79.2,79.2,0,0,0,320.446,373.706ZM203.1,358.037c-1.323-.78-2.165-2.522-2.981-3.79a17.728,17.728,0,0,1-2.172-4.738c-1.01-3.535-.711-7.256-.743-10.883-.007-.809-1.2-.733-1.239.055-.182,4.053-.937,8.448.2,12.424a16.048,16.048,0,0,0,2.682,5.252c.937,1.188,2.435,3.1,4.169,2.544A.478.478,0,0,0,203.1,358.037Zm11.579,11.327a13.527,13.527,0,0,1-3.134-3.656,21.222,21.222,0,0,1-2.271-4.771c-.623-1.972-1.075-4-1.5-6.025-.463-2.22-.164-4.552-.816-6.724-.281-.937-1.651-.481-1.432.452a13.1,13.1,0,0,1,.106,3.812,23.084,23.084,0,0,0,.157,3.721,30.749,30.749,0,0,0,1.068,6.444c1.05,3.207,3.408,8.2,7.522,7.559C214.724,370.123,215.038,369.634,214.677,369.365Zm8.335,5.613a5.683,5.683,0,0,1-1.352-1.6c-.543-.7-1.21-1.3-1.8-1.964a23.723,23.723,0,0,1-2.868-4.075c-.889-1.56-.773-3.24-1.075-4.96-.364-2.085-.86-4.144-1.21-6.232-.106-.623-1.075-.62-1.013.047.211,2.249.638,4.479.805,6.732.077,1.02-.051,2.052.08,3.072a8.164,8.164,0,0,0,.816,2.5,15.645,15.645,0,0,0,3.222,4.461c.678.645,1.4,1.232,2.125,1.815a3.983,3.983,0,0,0,1.932,1.115A.491.491,0,0,0,223.012,374.977ZM246.4,388.462a3.439,3.439,0,0,1-1.141-1.327c-.35-.591-.638-1.214-1-1.8a8.038,8.038,0,0,1-.966-2.008,21.28,21.28,0,0,1-.477-2.482.777.777,0,0,0-.784-.718.76.76,0,0,0-.718.787,23.918,23.918,0,0,0,.532,2.868A9.868,9.868,0,0,0,243,386.217a13.11,13.11,0,0,0,1.4,1.917,2.809,2.809,0,0,0,1.811,1.137C246.654,389.312,246.742,388.648,246.4,388.462Zm34.9-2.97a.311.311,0,0,0-.226-.361,1.6,1.6,0,0,0-1.4.27.425.425,0,0,0-.16.222.361.361,0,0,0,.317.434.364.364,0,0,0,.292-.109l.018-.015a1.228,1.228,0,0,1,.237-.149,1.442,1.442,0,0,1,.211-.069,1.33,1.33,0,0,1,.27-.007l.08.011A.307.307,0,0,0,281.293,385.492Zm8.816-1.746c.131-.955.117-1.921.2-2.879.066-.791-1.323-.926-1.407-.128-.1.889-.1,1.793-.244,2.675a5.6,5.6,0,0,1-.955,2.278c-.423.634-.867,1.257-1.246,1.921a3.863,3.863,0,0,0-.718,2.22c.066.652,1.09,1.042,1.385.313a16.054,16.054,0,0,1,.893-2.019c.383-.667.816-1.294,1.217-1.946A6.278,6.278,0,0,0,290.109,383.746Z" transform="translate(-168.371 -275.306)" fill="#fff"/>
      <path id="패스_566" data-name="패스 566" d="M207.26,333.627c.4-.138.8-.266,1.2-.415A3.485,3.485,0,0,0,207.26,333.627Z" transform="translate(-81.451 -217.249)" fill="#fff"/>
      <path id="패스_567" data-name="패스 567" d="M173.015,328.848c-.864-2.723.463-6.338,1.877-8.7,1.655-2.759,4.366-3.63,7.315-3.871a13.062,13.062,0,0,1,3.105-8.689c2.475-2.65,6.068-3.692,9.571-4.031,3.987-.386,8.036-.219,12.038-.554a59.771,59.771,0,0,1,6.156.018c2.194.033,3.9-.638,5.97-1.057,3.24-.656,6.877-.423,10.172-.532,3.481-.113,6.8.04,10.274.2a61.527,61.527,0,0,1,10.664,1.028c3.637.795,7.267,1.6,10.908,2.373a112.3,112.3,0,0,1,11.962,3.189c3.4,1.123,6.516,3,9.859,4.3a84.6,84.6,0,0,1,18.8,10.015c3.054,2.216,6.127,4.115,8.849,6.732,2.245,2.158,4.742,4.224,7.078,6.305,2.723,2.431,5.248,5.059,7.909,7.566,2.482,2.34,5.062,4.636,7.3,7.216,4.268,4.92,7.366,10.752,7.165,17.334-.1,3.317-.018,6.593-.106,9.891-.033,1.133.062,2.26.058,3.393a16.232,16.232,0,0,1-5.077,14.228,28.471,28.471,0,0,1-5.281,7.184,77.383,77.383,0,0,1-10.241,8.889c-3.335,2.271-6.611,5.055-10.252,6.808-7.267,3.5-15.1,6.48-23.234,7.14-4.21.339-8.317,1.662-12.607,1.629-3.59-.033-7.023-1.133-10.489-1.921-8.255-1.881-16.47-3.539-24.087-7.4A112.234,112.234,0,0,1,217.851,403.2c-6.433-5.372-11.353-12.352-17.523-18.015a101.189,101.189,0,0,1-15.056-18.052c-4.559-6.772-7.231-14.52-9.308-22.4a54.186,54.186,0,0,1-1.677-12.362c-.007-.346-.018-.678-.025-1.02A12.743,12.743,0,0,1,173.015,328.848Zm135.907,27.8c.007.007.047,0,.047.018,0-.026-.018-.026-.047-.018Zm-103.536-.117a105.686,105.686,0,0,0,7.089,8.189,61,61,0,0,0,8.434,6.4c6.192,4.239,12.65,7.912,19.13,11.71a77.093,77.093,0,0,0,19.382,8.415c3.5.882,7.056,1.483,10.569,2.292,1.472.339,2.93.831,4.421,1.079s2.952-.007,4.436.233c6.414,1.046,12.807.251,19.262.16,3.094-.044,6.079-.6,9.177-.656a69.3,69.3,0,0,0,9.695-.51,96.147,96.147,0,0,0,9.465-2.646,12.744,12.744,0,0,0,5.682-2.9c1.126-2.843,2.034-5.791,2.883-8.667a16.932,16.932,0,0,0-.529-2.548,7.931,7.931,0,0,0-1.432-2.763,2.461,2.461,0,0,1-.372-.128,26.147,26.147,0,0,1-3.229-2.507c-2.285-1.72-6.112-2.77-8.911-3.393a30.266,30.266,0,0,0-4.166-.259,17,17,0,0,1-3.444-1.093c-.805-.233-1.68-.554-2.446-.758-2.012-.532-3.094-.029-4.807.871a10.715,10.715,0,0,1-5.857,1.578c-1.447-.073-2.857-.452-4.3-.55a22.575,22.575,0,0,0-5.2.565c-2.464.394-5.161,1.123-7.657.729-2.894-.463-5.576-1.87-8.28-2.919-.714-.277-.251-1.476.466-1.254,3.794,1.163,7.176,2.595,11.207,1.986a42.492,42.492,0,0,1,9.05-.463c3.667.251,6.385,1.064,9.9-.743a36.224,36.224,0,0,1,5.215-2.048c-.219-.044-.441-.091-.66-.138-7.169-1.564-14.4-4.013-21.722-4.6a175.574,175.574,0,0,1-19.892-3.043c-7.063-1.389-14.3-2.216-21.288-3.958-12.763-3.178-24-10.952-35.283-17.41a50.241,50.241,0,0,0-5.07-2.5,39.537,39.537,0,0,1-3.707-2.285c-2.613-1.476-5.58-2.682-8.306-3.962-1.757-.82-3.641-1.257-5.456-1.928a18.017,18.017,0,0,0-3.725-1.283,10.1,10.1,0,0,0-3.82.408,1.388,1.388,0,0,0-.026.328,8.354,8.354,0,0,1-.35,1.5c-.022.109-.1.539-.179.867l.59.718c.707,1.013,1.086,2.118,1.851,3.083,1.826,2.322,4,4.406,5.886,6.691,2.085,2.54,3.513,5.543,5.438,8.211.9,1.257,1.815,2.511,2.693,3.783.095.08.193.16.284.244A70.075,70.075,0,0,1,205.386,356.536Zm-24.065-33.421c.168-.149.073-.2,0,0Zm88.9,19.094a13.972,13.972,0,0,0-2.759-.339c-2.475-.025-5.245-.594-7.679-.343-3.594.368-7.092.813-10.737.969-3.994.171-7.854.088-11.816-.095,7.056,3.681,14.968,5.219,22.6,7.307,7.887,2.161,15.737,4.381,23.817,5.584,4.118.612,8.138.747,12.22,1.676,1.564.357,3.131.7,4.7,1.053-8.685-4.384-17.2-9.159-25.858-13.576C273.249,343.7,271.744,342.949,270.224,342.209Zm29.525,75.148a3.484,3.484,0,0,0-1.2.415C298.947,417.634,299.351,417.506,299.749,417.357Zm25.068-17.563a79.2,79.2,0,0,1-14.95,1.859c-2,.1-4.042-.128-6.032.073a41.7,41.7,0,0,1-5.4.477c-3.422-.091-6.8.251-10.23.073-3.849-.2-7.592-.736-11.375-1.123a76.978,76.978,0,0,1-10.784-2.307,113.666,113.666,0,0,1-11.477-3.2c-3.594-1.3-6.888-3.236-10.4-4.731a89.809,89.809,0,0,1-10.544-5.758c-3.357-1.986-7.06-3.615-10.256-5.846-3.16-2.2-6.225-4.5-9.574-6.415-2.679-1.523-4.993-4.035-7.187-6.189-2.989-2.938-5.817-5.97-8.933-8.791-1.09-.988-2.194-1.954-3.3-2.923a22.271,22.271,0,0,0-.415,2.985c-.058,1.082.1,2.147.1,3.222,0,2.125-.306,4.086.375,6.152a20.441,20.441,0,0,0,2.551,4.953c.4.6.838,1.155,1.279,1.724.361.466.762,1.13,1.348,1.345a.4.4,0,0,1,.029.762c-1.454.445-2.744-1.166-3.484-2.19a20.1,20.1,0,0,1-2.894-5.19,11.742,11.742,0,0,1-.66-3.411,29.164,29.164,0,0,1,.31-3.564c.117-1.239,0-2.482.12-3.721a24.67,24.67,0,0,1,.711-3.6l.011-.011c-1.319-1.159-2.639-2.318-3.932-3.5A58.3,58.3,0,0,1,179.565,338.1c-.157-.146-.324-.281-.477-.43-.1-.1-.215-.219-.324-.324a92.267,92.267,0,0,0,3.266,11.706,74.289,74.289,0,0,0,4.749,11.885c1.888,3.43,4.133,6.6,6.287,9.848a90.341,90.341,0,0,0,6.509,9.028c2.391,2.792,5.212,5.2,7.7,7.909,5.4,5.864,10.573,11,17.348,15.3,6.469,4.111,13.507,8.5,20.73,11.156,6.619,2.435,13.47,3.871,20.246,5.737a.721.721,0,0,1,.168-.08c3.127-.762,6.593-.714,9.436-2.38a33.516,33.516,0,0,0,4-3.262,9.769,9.769,0,0,1,1.713-1.111,6.416,6.416,0,0,0,.878-.51,1.445,1.445,0,0,1,.576-.357.276.276,0,0,1,.332.171c.233.507-.415,1.064-.733,1.378a20.034,20.034,0,0,1-1.56,1.276,46.8,46.8,0,0,1-4.195,3.59c-2.158,1.359-4.621,1.746-7.081,2.169a32.736,32.736,0,0,0,9.542.6c1.771-.128,3.44-.718,5.208-.82a46.624,46.624,0,0,0,4.876-.386,60.466,60.466,0,0,0,8.842-2.1c.087-.813.78-1.243,1.469-1.582a6.489,6.489,0,0,0,2.285-1.826c.824-.991,1.516-2.125,2.238-3.193a16.445,16.445,0,0,0,1.91-3.506c.277-.762,1.52-.492,1.243.284a27.866,27.866,0,0,1-3.889,6.655,7.652,7.652,0,0,1-1.735,1.866,40.591,40.591,0,0,0,8.9-5.022c2.978-2.231,6.119-4.272,9.082-6.535A46.853,46.853,0,0,0,324.816,399.794ZM191.063,311.875c-1.363,1.137-1.866,2.876-2.362,4.614.725.153,1.476.215,2.187.353a32.472,32.472,0,0,1,3.408,1.09,67.673,67.673,0,0,1,7.778,3.211c2.784,1.254,5.58,2.486,8.364,3.743a47.742,47.742,0,0,0,9.582,2.77c2.89.641,5.744,1.527,8.681,1.946,2.493.357,5.019.332,7.515.678,4.177.587,8.146,1.91,12.242,2.763a37.3,37.3,0,0,1,6.4.208c3.677.507,7.45,2.249,10.85,3.7.98.328,1.961.663,2.948.995a119.79,119.79,0,0,1,14.17,5.653c5.325,2.591,10.606,5.19,15.85,7.858a22.994,22.994,0,0,0-1.9-2.54c-1.779-2.256-2.919-4.931-4.669-7.209-.478-.623.554-1.469,1.064-.875,1.728,2.008,2.978,4.359,4.629,6.425.805,1.006,1.808,1.841,2.54,2.9.255.368.452.78.671,1.17a4.316,4.316,0,0,0,.324.529c.026.029.055.055.08.08a.57.57,0,0,1,.649.4,5.433,5.433,0,0,1,.124.587.634.634,0,0,1-.04.313c1,.521,2.008,1.039,3.01,1.567-.19-.317-.372-.634-.55-.944-.929-1.64-1.574-3.459-2.369-5.168-.831-1.8-1.684-3.59-2.486-5.4-.31-.707.867-1.235,1.217-.565,1.505,2.865,3.149,5.653,4.61,8.539a31.3,31.3,0,0,0,2.333,3.98c.259.372.488.784.769,1.141.066.088.16.182.2.233l.018-.011a.416.416,0,0,1,.612.226,1.073,1.073,0,0,1,.066.335c.6.324,1.2.634,1.8.962,2,1.093,4.038,2.136,6.083,3.167a11.36,11.36,0,0,1-1.8-2.8,109.751,109.751,0,0,1-4.979-10.613c-.248-.7.791-.988,1.075-.339a81.876,81.876,0,0,0,4.723,8.492.55.55,0,0,1,.7.066,26.834,26.834,0,0,0,2.642,2.744c.47.375,1.024.66,1.52,1.013a8.262,8.262,0,0,1,1.644,1.461c.882,1.061,1.574,2.11,2.529,3.058.16.16.31.317.463.47.346.146.7.288,1.05.434a27.736,27.736,0,0,1-1.5-2.719,18.943,18.943,0,0,1-1-2.482,11.69,11.69,0,0,1-.386-2.46c-.175-1.669-.951-3.222-1.144-4.9-.073-.656,1.006-.846,1.137-.2.328,1.6,1.192,3.014,1.542,4.6a12.752,12.752,0,0,0,.492,2.187,14.049,14.049,0,0,0,1.141,2.143,47.888,47.888,0,0,0,2.9,4.049c.466.6.98,1.148,1.487,1.717a12.611,12.611,0,0,1,1.352,1.72q.88.716,1.786,1.48c-.2-1.141-.415-2.282-.561-3.437-.911-7.2-5.89-12.271-10.362-17.538-8.277-9.738-17.567-19.1-28.621-25.636a141.049,141.049,0,0,0-16.838-8.281c-3.63-1.545-7.012-3.156-10.77-4.428-3.174-1.075-6.444-1.779-9.7-2.577-3.462-.849-6.91-1.768-10.383-2.58a86.629,86.629,0,0,0-9.549-1.25c-6.265-.747-13.715-1.166-19.819.663-2.865.86-5.675.758-8.63,1.093-3.014.339-6.05,1.071-9.057,1.545A19.283,19.283,0,0,0,191.063,311.875Z" transform="translate(-172.741 -301.394)" fill="#674021"/>
      <path id="패스_568" data-name="패스 568" d="M187.747,338.594c-1.323-.78-2.165-2.522-2.981-3.79a17.728,17.728,0,0,1-2.172-4.738c-1.01-3.535-.711-7.256-.743-10.883-.007-.809-1.2-.733-1.239.055-.182,4.053-.937,8.448.2,12.424a16.048,16.048,0,0,0,2.682,5.252c.937,1.188,2.435,3.1,4.169,2.544A.478.478,0,0,0,187.747,338.594Z" transform="translate(-153.02 -255.863)" fill="#674021"/>
      <path id="패스_569" data-name="패스 569" d="M192.1,342.941a13.528,13.528,0,0,1-3.134-3.656,21.22,21.22,0,0,1-2.271-4.771c-.623-1.972-1.075-4-1.5-6.024-.463-2.22-.164-4.552-.816-6.724-.281-.937-1.651-.481-1.432.452a13.1,13.1,0,0,1,.106,3.812,23.083,23.083,0,0,0,.157,3.721,30.748,30.748,0,0,0,1.068,6.444c1.05,3.207,3.408,8.2,7.522,7.559C192.151,343.7,192.464,343.21,192.1,342.941Z" transform="translate(-145.798 -248.882)" fill="#674021"/>
      <path id="패스_570" data-name="패스 570" d="M194.5,342.741a5.682,5.682,0,0,1-1.352-1.6c-.543-.7-1.21-1.3-1.8-1.964a23.721,23.721,0,0,1-2.868-4.075c-.889-1.56-.773-3.24-1.075-4.96-.364-2.085-.86-4.144-1.21-6.232-.106-.623-1.075-.62-1.013.047.211,2.249.638,4.479.805,6.732.077,1.02-.051,2.052.08,3.072a8.164,8.164,0,0,0,.816,2.5,15.645,15.645,0,0,0,3.222,4.461c.678.645,1.4,1.232,2.125,1.815a3.983,3.983,0,0,0,1.932,1.115A.491.491,0,0,0,194.5,342.741Z" transform="translate(-139.856 -243.069)" fill="#674021"/>
      <path id="패스_571" data-name="패스 571" d="M204.8,331.57a1.6,1.6,0,0,0-1.4.27.426.426,0,0,0-.16.222.361.361,0,0,0,.317.434.364.364,0,0,0,.292-.109l.018-.015a1.228,1.228,0,0,1,.237-.149,1.442,1.442,0,0,1,.211-.069,1.33,1.33,0,0,1,.27-.007l.08.011a.307.307,0,0,0,.361-.226A.311.311,0,0,0,204.8,331.57Z" transform="translate(-92.106 -221.745)" fill="#674021"/>
      <path id="패스_572" data-name="패스 572" d="M208.114,330.712c-.1.889-.1,1.793-.244,2.675a5.6,5.6,0,0,1-.955,2.278c-.423.634-.867,1.257-1.246,1.921a3.863,3.863,0,0,0-.718,2.22c.066.652,1.09,1.042,1.385.313a16.044,16.044,0,0,1,.893-2.019c.383-.667.816-1.294,1.217-1.946a6.278,6.278,0,0,0,.878-2.435c.131-.955.117-1.921.2-2.879C209.586,330.049,208.2,329.914,208.114,330.712Z" transform="translate(-87.586 -225.279)" fill="#674021"/>
      <path id="패스_573" data-name="패스 573" d="M197.843,338.491a3.439,3.439,0,0,1-1.141-1.327c-.35-.59-.638-1.214-1-1.8a8.036,8.036,0,0,1-.966-2.008,21.279,21.279,0,0,1-.477-2.482.777.777,0,0,0-.784-.718.76.76,0,0,0-.718.787,23.918,23.918,0,0,0,.532,2.868,9.868,9.868,0,0,0,1.152,2.435,13.112,13.112,0,0,0,1.4,1.917,2.809,2.809,0,0,0,1.811,1.137C198.1,339.34,198.189,338.677,197.843,338.491Z" transform="translate(-119.818 -225.334)" fill="#674021"/>
      <path id="패스_574" data-name="패스 574" d="M179.91,308.737a24.6,24.6,0,0,1,12.344-2.522c2.128.189,4.21-.1,6.334-.029a17.81,17.81,0,0,0,5.853-1.115.59.59,0,0,0,.408-.441l.047-.423a.472.472,0,0,0-.8-.426l-.044.044a7.3,7.3,0,0,0-2.595-.026,18.15,18.15,0,0,1-3.178-.011c-2.263-.139-4.523.149-6.8.051-4.425-.19-8.383,1.549-12.045,3.885C178.922,308.052,179.308,309.01,179.91,308.737Z" transform="translate(-155.665 -295.49)" fill="#674021"/>
      <path id="패스_575" data-name="패스 575" d="M188.032,304.9a11.233,11.233,0,0,0,3.2-.015,21.6,21.6,0,0,1,3.054-.463c1.141-.022,2.169.532,3.3.6a11.1,11.1,0,0,0,3.007-.481.112.112,0,0,0-.036-.219,13.3,13.3,0,0,1-3.145.306c-1.082-.149-2.092-.638-3.167-.827a16.227,16.227,0,0,0-2.821-.164,30.8,30.8,0,0,1-3.123.087C187.547,303.654,187.26,304.8,188.032,304.9Z" transform="translate(-133.508 -295.447)" fill="#674021"/>
      <path id="패스_576" data-name="패스 576" d="M193.3,305.155c2.431.357,4.847.809,7.275,1.192,2.041.321,4.107-.062,6.141.262,2.416.383,4.7,1.516,7.06,2.132a8.963,8.963,0,0,1,3.648,1.728,16.066,16.066,0,0,0,1.91,1.228c1.928,1.057,4,1.873,5.853,3.069a20.233,20.233,0,0,0,2.559,1.633c.991.452,2,.685,2.956,1.236,3.6,2.07,7.373,4.41,11.491,5.27a.736.736,0,0,0,.51-1.36c-4-2.139-7.6-5.1-11.706-7.038-3.732-1.76-7.471-3.408-11.335-4.949-1.068-.426-2-1.108-3.072-1.5a19.968,19.968,0,0,0-2.544-.5c-2.1-.459-4.093-1.308-6.159-1.9-2.376-.674-4.6-.313-7.016-.609-2.438-.3-4.866-.754-7.3-1.072C192.808,303.883,192.527,305.038,193.3,305.155Z" transform="translate(-119.583 -294.568)" fill="#674021"/>
      <path id="패스_577" data-name="패스 577" d="M194.726,320.2c1.283.3,2.981.565,4.009,1.447.324.277.973-.026.769-.485-.5-1.133-1.837-1.633-2.883-2.165-.82-.412-1.7-.63-2.551-.966-.915-.361-1.808-.816-2.708-1.214-3.736-1.647-6.808-4.311-10.2-6.516-.426-.281-.9.394-.521.725,2.912,2.526,5.379,5.609,8.9,7.329A24.8,24.8,0,0,0,194.726,320.2Z" transform="translate(-152.232 -278.023)" fill="#674021"/>
      <path id="패스_578" data-name="패스 578" d="M197.834,327.95a33.109,33.109,0,0,0,10,2.573c1.91.262,3.79.007,5.609.795,1.487.645,2.843,1.571,4.312,2.252a23.724,23.724,0,0,0,8.732,2.088.264.264,0,0,0,.113-.492c-2.846-1.137-6-1.042-8.816-2.322-2.908-1.323-5.576-2.81-8.609-3.885a87.021,87.021,0,0,0-9.213-2.3c-3.269-.773-6.014-2.832-8.419-5.084-.5-.47-1.17.273-.718.769A24.852,24.852,0,0,0,197.834,327.95Z" transform="translate(-125.32 -248.419)" fill="#674021"/>
      <path id="패스_579" data-name="패스 579" d="M203.37,326.937a7.089,7.089,0,0,1,3.546.066c.569.109,1.1.31,1.669.423a6.835,6.835,0,0,0,1.928.062,23.119,23.119,0,0,1,4.421.372c1.374.157,3.007.368,4.177-.536a.477.477,0,0,0-.146-.857c-1.41-.357-2.934-.375-4.374-.641a13.518,13.518,0,0,0-4.5-.16,15.474,15.474,0,0,1-1.87.306c-.539.015-1.079-.036-1.622-.04a10.2,10.2,0,0,0-3.437.361A.339.339,0,0,0,203.37,326.937Z" transform="translate(-92.872 -237.532)" fill="#674021"/>
      <path id="패스_580" data-name="패스 580" d="M198.073,322.492a14.491,14.491,0,0,1,2.179.926c.354.179.7.386,1.053.554a10.773,10.773,0,0,0,1.2.415.373.373,0,0,0,.434-.233.389.389,0,0,0-.171-.463c-.339-.237-.66-.518-1.017-.722s-.725-.394-1.09-.583a15.486,15.486,0,0,0-2.336-.991.569.569,0,0,0-.674.423A.575.575,0,0,0,198.073,322.492Z" transform="translate(-106.913 -248.555)" fill="#674021"/>
      <path id="패스_581" data-name="패스 581" d="M211,327.727c.4,1,.74,2.519,1.994,2.744a.493.493,0,0,0,.441-.835.947.947,0,0,1-.211-.419c-.106-.266-.2-.437-.3-.733-.179-.529-.35-1.05-.565-1.567-.6-1.45-1.155-2.916-1.757-4.366a.768.768,0,0,0-.94-.488.754.754,0,0,0-.492.94C209.8,324.574,210.38,326.159,211,327.727Z" transform="translate(-76.513 -246.829)" fill="#674021"/>
    </g>
  </g>
</svg>
