<svg xmlns="http://www.w3.org/2000/svg" width="46.766" height="46.766" viewBox="0 0 46.766 46.766">
  <g id="그룹_208" data-name="그룹 208" transform="translate(-223.332 -551.256)">
    <path id="패스_730" data-name="패스 730" d="M241.3,564.671a4.472,4.472,0,1,0,4.471,4.473A4.478,4.478,0,0,0,241.3,564.671Z" transform="translate(5.529 5.495)" fill="#5e6885"/>
    <path id="패스_731" data-name="패스 731" d="M248.922,559.681H237.605a5.853,5.853,0,0,0-5.847,5.847v11.318a5.853,5.853,0,0,0,5.847,5.847h11.316a5.854,5.854,0,0,0,5.849-5.847V565.528A5.854,5.854,0,0,0,248.922,559.681Zm-5.541,18.487a6.981,6.981,0,1,1,6.98-6.981A6.989,6.989,0,0,1,243.38,578.168Zm7.388-12.77a1.662,1.662,0,1,1,1.662-1.662A1.662,1.662,0,0,1,250.768,565.4Z" transform="translate(3.451 3.451)" fill="#5e6885"/>
    <path id="패스_732" data-name="패스 732" d="M246.715,551.256A23.383,23.383,0,1,0,270.1,574.639,23.383,23.383,0,0,0,246.715,551.256ZM260.889,580.3a8.525,8.525,0,0,1-8.516,8.514H241.057a8.524,8.524,0,0,1-8.514-8.514V568.979a8.523,8.523,0,0,1,8.514-8.514h11.316a8.524,8.524,0,0,1,8.516,8.514Z" transform="translate(0)" fill="#5e6885"/>
  </g>
</svg>
