<svg xmlns="http://www.w3.org/2000/svg" width="213" height="52.974" viewBox="0 0 213 52.974">
  <g id="그룹_3" data-name="그룹 3" transform="translate(-566 -87.318)">
    <g id="그룹_1" data-name="그룹 1">
      <path id="패스_2" data-name="패스 2" d="M646.693,128.484h5.769v7.733l-2.684,2.643H639.522l-2.684-2.643V116.466l2.684-2.684h10.256l2.684,2.684v7.773h-5.769v-4.767l-.681-.641h-2.764l-.641.641v13.739l.641.641h2.764l.681-.641Z" fill="#14222a"/>
      <path id="패스_3" data-name="패스 3" d="M655.986,136.217V116.466l2.483-2.684h5.048l2.323,2.244v-2.244h5.769V138.86H665.84v-2.124l-1.8,2.124H658.67Zm6.41-2.845h3.444V119.311H662.4l-.642.641V132.69Z" fill="#14222a"/>
      <path id="패스_4" data-name="패스 4" d="M676.415,104.93l2.724-2.684h6.129v5.528h-3.085v6.008h3.085v5.529h-3.085V138.86h-5.768V119.311h-2.283v-5.529h2.283Z" fill="#14222a"/>
      <path id="패스_5" data-name="패스 5" d="M687.23,116.466l2.684-2.684h10.255l2.685,2.684v12.379H693v4.366l.641.641H696.4l.681-.641V131.49h5.769v4.727l-2.685,2.643H689.914l-2.684-2.643Zm6.41,2.365-.641.641v4.366h4.086v-4.366l-.681-.641Z" fill="#14222a"/>
      <path id="패스_6" data-name="패스 6" d="M728.169,119.311V138.86H722.4V119.311h-2.242V138.86h-5.769V113.782h5.769v2.684l1.8-2.684h3.766l1.642,1.964,1.843-1.964h4.767l2.2,2.164V138.86h-5.769V119.311Z" fill="#3e4b35"/>
      <path id="패스_7" data-name="패스 7" d="M755.808,116.667v19.349l-2.884,2.844H742.549l-2.845-2.844V116.667l2.845-2.885h10.375Zm-9.693,16.7h3.2l.722-.682V119.952l-.722-.641h-3.2l-.642.641V132.69Z" fill="#3e4b35"/>
      <path id="패스_8" data-name="패스 8" d="M766.9,113.782h4.326v5.529H765.1V138.86h-5.769V113.782H765.1v2.364Z" fill="#3e4b35"/>
      <path id="패스_9" data-name="패스 9" d="M773.231,110.458v-6.169H779v6.169Zm0,2.483H779V138.86h-5.769Z" fill="#3e4b35"/>
    </g>
    <g id="그룹_2" data-name="그룹 2">
      <path id="패스_10" data-name="패스 10" d="M605.894,135.073c7.972-1.771,5.621-2.775,5.621-2.775-2.018-1.871-10.231-2.171-16.831-2.412-7.8-.287-14.546-.533-17.086-2.811a2.756,2.756,0,0,1-.973-2.7c.964-4.734,10.787-5.708,18.68-6.491,1.868-.185,4.164-.413,5.82-.678.612-.1.519-.76-.107-.769l-2.937-.041c-1.094-.015-2.217-.031-3.332-.093-.453-.025-.785-.327-.737-.659l.227-.832a.775.775,0,0,1,.859-.534c.995.053,2.039.067,3.056.082,3.385.048,6.31-.648,7.826.7a2.333,2.333,0,0,1,.749,2.4c-.512,2.136-4.653,2.547-10.919,3.168-5.936.589-14.906,1.479-15.452,4.153a.488.488,0,0,0,.161.532c1.479,1.326,8.618,1.588,14.353,1.8,8.5.312,16.522.605,19.6,3.46,1.592,1.475,2.115,2.771,1.6,3.959-.9,2.08-4.528,2.858-9.122,3.844l-9.583,1.889a1.091,1.091,0,0,1-1.228-.509l-.491-1.247c-.156-.4.162-1.455.707-1.562Z" fill="#1d2a2f"/>
      <path id="패스_11" data-name="패스 11" d="M620.016,115.732,613.1,95.941a.838.838,0,0,0-1.318-.377l-7.88,6.344-4.558-14.117a.682.682,0,0,0-1.192-.2l-21.176,27.941,31.423.305-.049-.153Z" fill="#14222a"/>
      <path id="패스_12" data-name="패스 12" d="M631.333,117.444H566a2.985,2.985,0,0,1,2.673-3.22H628.66a2.985,2.985,0,0,1,2.673,3.22Z" fill="#212e37"/>
      <rect id="사각형_17" data-name="사각형 17" width="0.712" height="2.563" rx="0.356" transform="matrix(0.792, 0.61, -0.61, 0.792, 596.916, 91.104)" fill="#fff"/>
      <rect id="사각형_18" data-name="사각형 18" width="0.712" height="2.563" rx="0.356" transform="translate(607.719 100.463) rotate(48.765)" fill="#fff"/>
      <rect id="사각형_19" data-name="사각형 19" width="0.712" height="2.563" rx="0.356" transform="translate(609.748 100.463) rotate(48.765)" fill="#fff"/>
    </g>
  </g>
</svg>
