<svg xmlns="http://www.w3.org/2000/svg" width="64.27" height="42.653" viewBox="0 0 64.27 42.653">
  <g id="그룹_360" data-name="그룹 360" transform="translate(-927.872 -6238.995)">
    <g id="그룹_322" data-name="그룹 322" transform="translate(949.576 6238.995)">
      <g id="그룹_318" data-name="그룹 318" transform="translate(0 0)">
        <path id="패스_1151" data-name="패스 1151" d="M506.915,409.76a16.884,16.884,0,0,0-3.752-5.281,24.734,24.734,0,0,0-13.46-7.3,19.911,19.911,0,0,0-7.632.3,23.92,23.92,0,0,0-13.577,9.539,17.188,17.188,0,0,0-2.514,4.753,15.521,15.521,0,0,0,.041,8.774,27.245,27.245,0,0,0,3.126,7.859,19.376,19.376,0,0,0,2.789,3.475,17.292,17.292,0,0,1,2.072,1.805c1.521,1.759,4.273,2.3,6.449,2.763a26.559,26.559,0,0,0,21.295-5.192,13.3,13.3,0,0,0,3.623-3.85,16.5,16.5,0,0,0,1.563-4.652C507.891,418.453,508.6,413.805,506.915,409.76Zm-13.453,7.809a4.376,4.376,0,0,1-1.108,1.893,7.37,7.37,0,0,1-8.022,1.8,3.531,3.531,0,0,1-1.138-.693,3.834,3.834,0,0,1-.96-2.608,6.322,6.322,0,0,1,2.788-5.612c1.6-1.117,4.065-.556,5.638.325a6.22,6.22,0,0,1,2.227,1.976A3.81,3.81,0,0,1,493.462,417.569Z" transform="translate(-465.366 -396.941)" fill="#f3d8b9"/>
        <path id="패스_1152" data-name="패스 1152" d="M545.479,428.412a16.886,16.886,0,0,0-3.752-5.281,28.438,28.438,0,0,0-4.954-4c.053.609,1.061,1.574,1.373,2.032.534.784,1.037,1.59,1.541,2.4a21.745,21.745,0,0,1,2.282,4.351c1.618,4.685-.059,9.869-2.127,14.36a22.684,22.684,0,0,1-2.3,4.115,16.192,16.192,0,0,1-7.961,5.456,34.916,34.916,0,0,1-9.557,1.487,7.508,7.508,0,0,1-2.447-.172,11.466,11.466,0,0,1-1.737-.777,12.876,12.876,0,0,0-4.6-1.247,8,8,0,0,1,1.338,1.205c1.521,1.759,4.273,2.3,6.449,2.763a26.559,26.559,0,0,0,21.295-5.192,13.3,13.3,0,0,0,3.623-3.849A16.506,16.506,0,0,0,545.5,441.4C546.456,437.1,547.163,432.457,545.479,428.412Z" transform="translate(-503.931 -415.593)" fill="#ebd0b2"/>
      </g>
      <g id="그룹_320" data-name="그룹 320" transform="translate(2.306 1.106)">
        <path id="패스_1153" data-name="패스 1153" d="M517.778,420.591a12.109,12.109,0,0,0-3.5-8.8,23.67,23.67,0,0,0-11-7.215,16.983,16.983,0,0,0-12.821,1.274c-2.924,1.629-5.118,4.153-7.33,6.652-2.157,2.438-2.981,6.229-3.229,9.51a18.634,18.634,0,0,0,2.856,11.368,17.611,17.611,0,0,0,9.025,7.119,21.193,21.193,0,0,0,3.575.855,25.282,25.282,0,0,0,5,.3,18.254,18.254,0,0,0,9.2-2.775,17.753,17.753,0,0,0,6.475-7.97A24.052,24.052,0,0,0,517.778,420.591Zm-12.142,2.815a4.377,4.377,0,0,1-1.108,1.892,7.371,7.371,0,0,1-8.022,1.8,3.531,3.531,0,0,1-1.138-.693,3.833,3.833,0,0,1-.96-2.608,6.321,6.321,0,0,1,2.788-5.612c1.6-1.117,4.065-.556,5.638.325a6.219,6.219,0,0,1,2.227,1.976A3.809,3.809,0,0,1,505.636,423.407Z" transform="translate(-479.847 -403.884)" fill="#884f22"/>
        <g id="그룹_319" data-name="그룹 319" transform="translate(4.313 2.108)">
          <path id="패스_1154" data-name="패스 1154" d="M540.545,431.722a12.108,12.108,0,0,0-3.5-8.8,25.237,25.237,0,0,0-7.409-5.8.844.844,0,0,0-.065.507c.065.5.906.866,1.264,1.138a10.543,10.543,0,0,1,1.481,1.312,5.228,5.228,0,0,1,.749,1.083,19.019,19.019,0,0,1,2.385,2.922,8.289,8.289,0,0,1,.87,1.523,16.023,16.023,0,0,1,1.242,3.455,17.687,17.687,0,0,1,.386,3.787,15.718,15.718,0,0,1-.936,5.023,21.671,21.671,0,0,1-1.559,3.447,29.674,29.674,0,0,1-2.06,2.826,14.893,14.893,0,0,1-2.872,2.576,7.471,7.471,0,0,1-1.3.784,15.408,15.408,0,0,1-3.472,1.323,26.8,26.8,0,0,1-3.48.467,22.712,22.712,0,0,1-3.609-.1c-2.042-.2-4.085-.5-6.1-.9a19.847,19.847,0,0,1-2.916-.694,13.458,13.458,0,0,1-2.722-1.266c.013.041.026.082.039.123a17.511,17.511,0,0,0,7.58,5.18,21.18,21.18,0,0,0,3.575.855,25.285,25.285,0,0,0,5,.3,18.254,18.254,0,0,0,9.2-2.775,17.753,17.753,0,0,0,6.475-7.97A24.052,24.052,0,0,0,540.545,431.722Z" transform="translate(-506.927 -417.123)" fill="#73431d"/>
          <path id="패스_1155" data-name="패스 1155" d="M561.245,493.71a4.151,4.151,0,0,0,2.841.953,9.67,9.67,0,0,0,1.017-.033,6.7,6.7,0,0,1-1.165-.356,3.531,3.531,0,0,1-1.138-.693,3.833,3.833,0,0,1-.96-2.608,6.321,6.321,0,0,1,2.788-5.612,4.508,4.508,0,0,1,3.542-.469c-.016-.039-.033-.079-.052-.119-.629-1.312-2.808-1.089-3.866-.657a8.575,8.575,0,0,0-3.221,2.652,4.292,4.292,0,0,0-.828,1.346,4.78,4.78,0,0,0-.14,1.65C560.111,491.179,560.243,492.747,561.245,493.71Z" transform="translate(-551.592 -473.164)" fill="#deb097"/>
        </g>
      </g>
      <g id="그룹_321" data-name="그룹 321" transform="translate(6.063 4.491)">
        <path id="패스_1156" data-name="패스 1156" d="M543.669,485.876a.42.42,0,0,0,0,.837A.42.42,0,0,0,543.669,485.876Z" transform="translate(-536.933 -476.203)" fill="#e6917c"/>
        <path id="패스_1157" data-name="패스 1157" d="M503.823,476.17a.42.42,0,0,0,0,.837A.42.42,0,0,0,503.823,476.17Z" transform="translate(-503.433 -468.043)" fill="#e6917c"/>
        <path id="패스_1158" data-name="패스 1158" d="M532.8,514.265a.315.315,0,0,0,0,.628A.315.315,0,0,0,532.8,514.265Z" transform="translate(-527.877 -500.071)" fill="#e6917c"/>
        <path id="패스_1159" data-name="패스 1159" d="M510.366,545.117a.315.315,0,0,0,0,.628A.315.315,0,0,0,510.366,545.117Z" transform="translate(-509.016 -526.01)" fill="#e6917c"/>
        <path id="패스_1160" data-name="패스 1160" d="M600.85,583.265a.367.367,0,0,0,0,.733A.367.367,0,0,0,600.85,583.265Z" transform="translate(-585.048 -558.082)" fill="#e6917c"/>
        <path id="패스_1161" data-name="패스 1161" d="M691.592,518.443a.367.367,0,0,0,0,.733A.367.367,0,0,0,691.592,518.443Z" transform="translate(-661.338 -503.584)" fill="#e6917c"/>
        <path id="패스_1162" data-name="패스 1162" d="M649.3,508.791a.525.525,0,0,0,0,1.047A.525.525,0,0,0,649.3,508.791Z" transform="translate(-625.657 -495.469)" fill="#e6917c"/>
        <path id="패스_1163" data-name="패스 1163" d="M639.846,436.671a.472.472,0,0,0,0,.942A.472.472,0,0,0,639.846,436.671Z" transform="translate(-617.751 -434.835)" fill="#e6917c"/>
        <path id="패스_1164" data-name="패스 1164" d="M577.231,438.4a.472.472,0,0,0,0,.942A.472.472,0,0,0,577.231,438.4Z" transform="translate(-565.108 -436.292)" fill="#e6917c"/>
        <path id="패스_1165" data-name="패스 1165" d="M548.435,609.3a.472.472,0,0,0,0,.942A.472.472,0,0,0,548.435,609.3Z" transform="translate(-540.898 -579.971)" fill="#e6917c"/>
        <path id="패스_1166" data-name="패스 1166" d="M644.869,613.46a.472.472,0,0,0,0,.942A.472.472,0,0,0,644.869,613.46Z" transform="translate(-621.974 -583.468)" fill="#e6917c"/>
        <path id="패스_1167" data-name="패스 1167" d="M616.176,603.006a.315.315,0,0,0,0,.628A.315.315,0,0,0,616.176,603.006Z" transform="translate(-597.974 -574.679)" fill="#e6917c"/>
        <path id="패스_1168" data-name="패스 1168" d="M575.172,570.039a.21.21,0,0,0,0,.419A.21.21,0,0,0,575.172,570.039Z" transform="translate(-563.582 -546.962)" fill="#e6917c"/>
        <path id="패스_1169" data-name="패스 1169" d="M525.28,577.665a.21.21,0,0,0,0,.419A.21.21,0,0,0,525.28,577.665Z" transform="translate(-521.636 -553.374)" fill="#e6917c"/>
        <path id="패스_1170" data-name="패스 1170" d="M518.249,489.964a.21.21,0,0,0,0,.419A.21.21,0,0,0,518.249,489.964Z" transform="translate(-515.725 -479.64)" fill="#e6917c"/>
        <path id="패스_1171" data-name="패스 1171" d="M583.877,460.5a.21.21,0,0,0,0,.419A.21.21,0,0,0,583.877,460.5Z" transform="translate(-570.901 -454.868)" fill="#e6917c"/>
        <path id="패스_1172" data-name="패스 1172" d="M566.131,425.142a.21.21,0,0,0,0,.419A.21.21,0,0,0,566.131,425.142Z" transform="translate(-555.981 -425.142)" fill="#e6917c"/>
        <path id="패스_1173" data-name="패스 1173" d="M605.642,480.258a.21.21,0,0,0,0,.419A.21.21,0,0,0,605.642,480.258Z" transform="translate(-589.199 -471.48)" fill="#e6917c"/>
        <path id="패스_1174" data-name="패스 1174" d="M665.913,490.311a.21.21,0,0,0,0,.419A.21.21,0,0,0,665.913,490.311Z" transform="translate(-639.872 -479.932)" fill="#e6917c"/>
        <path id="패스_1175" data-name="패스 1175" d="M665.579,531.561a.21.21,0,0,0,0,.419A.21.21,0,0,0,665.579,531.561Z" transform="translate(-639.591 -514.613)" fill="#e6917c"/>
        <path id="패스_1176" data-name="패스 1176" d="M703.416,536.761a.21.21,0,0,0,0,.419A.21.21,0,0,0,703.416,536.761Z" transform="translate(-671.402 -518.984)" fill="#e6917c"/>
        <path id="패스_1177" data-name="패스 1177" d="M668.257,556.173a.21.21,0,0,0,0,.419A.21.21,0,0,0,668.257,556.173Z" transform="translate(-641.843 -535.305)" fill="#e6917c"/>
        <path id="패스_1178" data-name="패스 1178" d="M665.579,449.407a.21.21,0,0,0,0,.419A.21.21,0,0,0,665.579,449.407Z" transform="translate(-639.591 -445.543)" fill="#e6917c"/>
        <path id="패스_1179" data-name="패스 1179" d="M626.067,448.714a.21.21,0,0,0,0,.419A.21.21,0,0,0,626.067,448.714Z" transform="translate(-606.372 -444.96)" fill="#e6917c"/>
        <path id="패스_1180" data-name="패스 1180" d="M566.8,488.578a.21.21,0,0,0,0,.419A.21.21,0,0,0,566.8,488.578Z" transform="translate(-556.544 -478.475)" fill="#e6917c"/>
      </g>
    </g>
    <g id="그룹_323" data-name="그룹 323" transform="translate(954.371 6243.104)">
      <path id="패스_1181" data-name="패스 1181" d="M644.929,477.605c.316-.1.375-.547.625-.771.127-.115.324-.21.31-.384a1.229,1.229,0,0,1-.874-.814c-.032-.1-.088-.228-.187-.207a.2.2,0,0,0-.1.078,2.031,2.031,0,0,1-.544.442C643.283,476.436,644.13,477.861,644.929,477.605Z" transform="translate(-620.167 -467.037)" fill="#eeeceb"/>
      <path id="패스_1182" data-name="패스 1182" d="M622.224,454.322c.328.12.856-.2,1.131-.344a2.958,2.958,0,0,0,.677-.45,1.049,1.049,0,0,0,.345-.729,6.044,6.044,0,0,0-1.149-.114,1.371,1.371,0,0,0-.5.068,1.094,1.094,0,0,0-.574.618C622,453.739,621.827,454.177,622.224,454.322Z" transform="translate(-601.833 -447.917)" fill="#eeeceb"/>
      <path id="패스_1183" data-name="패스 1183" d="M595.667,427.951a.193.193,0,0,0-.057-.12.177.177,0,0,0-.109-.024h-.775a.166.166,0,0,0-.079.014l-.013-.021a1.971,1.971,0,0,0-.374-.461,2.521,2.521,0,0,0-1.617-.427,2.44,2.44,0,0,0,.119.835.782.782,0,0,0,.6.523l.141.118c.3-.019.105-.085.37.059.207.112.188.145.415.091,0,.006.263.008.263.013l.219-.086a.177.177,0,0,0-.025.111.668.668,0,0,0,.405.528.632.632,0,0,0,.641-.12.181.181,0,0,0,.061-.089.214.214,0,0,0-.006-.092Z" transform="translate(-577.168 -426.249)" fill="#eeeceb"/>
      <path id="패스_1184" data-name="패스 1184" d="M622.8,424.529a1.516,1.516,0,0,0,.939.4.771.771,0,0,0,.677-.586.763.763,0,0,0-.367-.824.683.683,0,0,0-.7.054l-.042.08a.874.874,0,0,0-.592.653.226.226,0,0,0,0,.138A.242.242,0,0,0,622.8,424.529Z" transform="translate(-602.44 -423.333)" fill="#eeeceb"/>
      <path id="패스_1185" data-name="패스 1185" d="M645.406,423.733c.154.046.254.193.372.306a1.014,1.014,0,0,0,1.062.208.733.733,0,0,0-.3-.681.8.8,0,0,1-.27-.208c-.2-.337.025-.475-.412-.585a1.512,1.512,0,0,0-.866.092.566.566,0,0,0-.284.587C644.808,423.873,645.1,423.641,645.406,423.733Z" transform="translate(-620.926 -422.749)" fill="#eeeceb"/>
      <path id="패스_1186" data-name="패스 1186" d="M591.708,445.835a1.109,1.109,0,0,0,.857-.279c.111-.133.158-.312.26-.452.177-.242.507-.349.628-.626-.008.018-1.213.129-1.344.165a4.442,4.442,0,0,0-1.067.389c-.181.1-.466.251-.415.51C590.71,445.962,591.433,445.843,591.708,445.835Z" transform="translate(-575.468 -441.016)" fill="#eeeceb"/>
      <path id="패스_1187" data-name="패스 1187" d="M555.794,439.476a2.132,2.132,0,0,1,.674,0c.177.054.366.186.529.094.08-.045.126-.133.191-.2a1.27,1.27,0,0,1,.386-.2.41.41,0,0,0,.271-.321.333.333,0,0,0-.223-.3c-.315-.125-2.532.343-2.405.64A.584.584,0,0,0,555.794,439.476Z" transform="translate(-545.698 -436.02)" fill="#eeeceb"/>
      <path id="패스_1188" data-name="패스 1188" d="M528.022,449.1c-.437-.482-1.22-1.638-1.828-.573a.617.617,0,0,0-.041.454,1.123,1.123,0,0,0,.689.726,2.48,2.48,0,0,0,1.006.129.45.45,0,0,0,.341-.112.339.339,0,0,0,.036-.337A.973.973,0,0,0,528.022,449.1Z" transform="translate(-521.248 -444.053)" fill="#eeeceb"/>
      <path id="패스_1189" data-name="패스 1189" d="M558.3,486.789c.429.164.685.672,1.135.774a.977.977,0,0,0,.515-.052.944.944,0,0,0,.456-.278.465.465,0,0,0,.062-.515c-.581,0-.825-.43-1.349-.618S558.48,486.33,558.3,486.789Z" transform="translate(-548.298 -475.974)" fill="#eeeceb"/>
      <path id="패스_1190" data-name="패스 1190" d="M544.835,510.706a.87.87,0,0,0-.03-.634,1.724,1.724,0,0,0-1.668-1.018c-.2.042-.82.391-.839.615-.02.24.49.493.578.82a2.528,2.528,0,0,1,.051.774l1.047.277a.539.539,0,0,0,.3.02.569.569,0,0,0,.27-.275A2.527,2.527,0,0,0,544.835,510.706Z" transform="translate(-534.841 -495.291)" fill="#eeeceb"/>
      <path id="패스_1191" data-name="패스 1191" d="M506.213,524.133a3.97,3.97,0,0,0-.976-.053c-.08.011-1.052.413-.95.506a5.981,5.981,0,0,0,2.07,1.227c.279.1.766.341.973.072.165-.215.024-.858-.064-1.093C507.072,524.279,506.7,524.191,506.213,524.133Z" transform="translate(-502.878 -507.929)" fill="#eeeceb"/>
      <path id="패스_1192" data-name="패스 1192" d="M497.477,500.3a1.259,1.259,0,0,0-.11-.447.439.439,0,0,0-.125-.2.491.491,0,0,0-.3-.055,1.34,1.34,0,0,1-.663-.183.288.288,0,0,0-.15-.057c-.107,0-.163.13-.2.235-.206.6-1.016,1.757.213,1.87a1,1,0,0,0,.6-.222C497.089,501.016,497.476,500.721,497.477,500.3Z" transform="translate(-495.477 -487.156)" fill="#eeeceb"/>
      <path id="패스_1193" data-name="패스 1193" d="M525.145,561.043l-.119.037a1.222,1.222,0,0,0-.656.3c-.02.018-.041.042-.033.068s.028.031.047.039l.36.145a.654.654,0,0,0,.6.035.358.358,0,0,0,.131-.393A.339.339,0,0,0,525.145,561.043Z" transform="translate(-519.739 -539.017)" fill="#eeeceb"/>
      <path id="패스_1194" data-name="패스 1194" d="M557.684,572.505a.715.715,0,0,1-.562.006c-.1-.043-.2-.111-.3-.149-.516-.185-1.181.536-1.273,1-.067.338-.064.764.222.941a.866.866,0,0,0,.4.1,2.49,2.49,0,0,0,1.569-.224C557.468,573.686,557.787,573.062,557.684,572.505Z" transform="translate(-545.951 -548.51)" fill="#eeeceb"/>
      <path id="패스_1195" data-name="패스 1195" d="M620.752,559.9a6.794,6.794,0,0,0-1.229-1.126l-.681.43a7.339,7.339,0,0,0-1.179.859l1.235,1.066a.826.826,0,0,0,.258.171.8.8,0,0,0,.439-.018l1.032-.237a.384.384,0,0,0,.151-.058.411.411,0,0,0,.118-.22.936.936,0,0,0,.035-.623A.892.892,0,0,0,620.752,559.9Z" transform="translate(-598.203 -537.108)" fill="#eeeceb"/>
      <path id="패스_1196" data-name="패스 1196" d="M647.676,584.364a6.5,6.5,0,0,0-.949,1.561.06.06,0,0,0-.013.044c0,.019.027.028.046.033l1.374.378a.763.763,0,0,0,.418.034.691.691,0,0,0,.387-.454,2.3,2.3,0,0,0,.134-1.052A.915.915,0,0,0,647.676,584.364Z" transform="translate(-622.627 -558.496)" fill="#eeeceb"/>
      <path id="패스_1197" data-name="패스 1197" d="M589.637,621.1c-.438-.107-.938.3-1.332.431a3.467,3.467,0,0,0-1.527.6.31.31,0,0,0-.108.191.292.292,0,0,0,.045.157,1.074,1.074,0,0,0,.7.476c.278.07.566.075.849.12a3.749,3.749,0,0,0,.74.1C589.906,623.132,590.777,621.378,589.637,621.1Z" transform="translate(-572.146 -589.496)" fill="#eeeceb"/>
      <path id="패스_1198" data-name="패스 1198" d="M568.8,593.834a9.129,9.129,0,0,0-1.138-.017c.2-.017.248,1.493.307,1.637a.812.812,0,0,0,1.151.186.451.451,0,0,0,.113-.356q.009-.44.017-.879a.6.6,0,0,0-.125-.469A.533.533,0,0,0,568.8,593.834Z" transform="translate(-556.162 -566.564)" fill="#eeeceb"/>
      <path id="패스_1199" data-name="패스 1199" d="M686.984,559.989a2.023,2.023,0,0,0-.9-.632,2.155,2.155,0,0,0-1.886.311c.483.508.768,1.217,1.338,1.617a3.375,3.375,0,0,0,.831.381.79.79,0,0,0,.39.067.549.549,0,0,0,.371-.306,1.614,1.614,0,0,0,.135-.487,1.132,1.132,0,0,0-.017-.607A1.119,1.119,0,0,0,686.984,559.989Z" transform="translate(-654.139 -537.524)" fill="#eeeceb"/>
      <path id="패스_1200" data-name="패스 1200" d="M690.452,474.889a.317.317,0,0,0-.141-.081.385.385,0,0,0-.133.005c-.508.082-1.963.215-2.033.775-.053.423.639,1.239,1.032,1.459a1.362,1.362,0,0,0,1.62-.372C691.407,476.133,691.016,475.374,690.452,474.889Z" transform="translate(-657.458 -466.514)" fill="#eeeceb"/>
    </g>
    <g id="그룹_324" data-name="그룹 324" transform="translate(952.706 6242.335)">
      <path id="패스_1201" data-name="패스 1201" d="M486.221,536.18a.417.417,0,0,0-.511-.22,1.012,1.012,0,0,0-.637.435c-.137.247.009.779.333.806a.8.8,0,0,0,.209-.034,1.938,1.938,0,0,1,.462.018.1.1,0,0,0,.073-.015c.094-.077.027-.453.047-.573C486.223,536.445,486.285,536.334,486.221,536.18Z" transform="translate(-485.021 -517.148)" fill="#c9c8c7"/>
      <path id="패스_1202" data-name="패스 1202" d="M544.073,546.9c-.6.533.838.895,1.157,1.039a.359.359,0,0,0,.213.048.252.252,0,0,0,.174-.259.58.58,0,0,0-.126-.311C545.24,547.064,544.5,546.518,544.073,546.9Z" transform="translate(-534.547 -526.248)" fill="#c9c8c7"/>
      <path id="패스_1203" data-name="패스 1203" d="M541.4,567.718a.229.229,0,0,1,0-.047.1.1,0,0,0-.023.005Z" transform="translate(-532.4 -543.82)" fill="#c9c8c7"/>
      <path id="패스_1204" data-name="패스 1204" d="M541.782,566.023a.3.3,0,0,0-.262.262c.077-.011.148.077.168.162a.614.614,0,0,0,.08.271c.1.121.293.053.431-.023a.728.728,0,0,0-.056-.448A.4.4,0,0,0,541.782,566.023Z" transform="translate(-532.522 -542.434)" fill="#c9c8c7"/>
      <path id="패스_1205" data-name="패스 1205" d="M505.748,547.312a.523.523,0,0,0,.144.055l-.153-.279C505.648,547.107,505.67,547.261,505.748,547.312Z" transform="translate(-502.39 -526.516)" fill="#c9c8c7"/>
      <path id="패스_1206" data-name="패스 1206" d="M501.885,551.857a.4.4,0,0,0-.115-.047l-.448-.3a.051.051,0,0,0-.015.014l-.012-.014a.924.924,0,0,0-.126.8.291.291,0,0,0,.085.144.326.326,0,0,0,.193.051l.366.018a.174.174,0,0,0,.119-.023.187.187,0,0,0,.052-.114C502.021,552.2,502.04,551.96,501.885,551.857Z" transform="translate(-498.563 -530.231)" fill="#c9c8c7"/>
      <path id="패스_1207" data-name="패스 1207" d="M520.021,509.075a.212.212,0,0,0,0-.16.222.222,0,0,0-.125-.087,4.292,4.292,0,0,0-.779-.213c-.1.5-.247.043-.35.54l.218.372A.755.755,0,0,0,520.021,509.075Z" transform="translate(-513.39 -494.17)" fill="#c9c8c7"/>
      <path id="패스_1208" data-name="패스 1208" d="M513.027,469a.5.5,0,0,0,.062.146c.089.108.258.042.371-.039a.22.22,0,0,0,.064-.061c.061-.1-.05-.217-.147-.28-.081-.053-.17-.141-.164-.228l-.072-.2c0-.166-.122.128-.269.061a1.214,1.214,0,0,0-.473-.078.089.089,0,0,0-.069.017c-.033.033,0,.09.032.122C512.574,468.659,512.922,468.722,513.027,469Z" transform="translate(-507.969 -460.263)" fill="#c9c8c7"/>
      <path id="패스_1209" data-name="패스 1209" d="M548.529,460.658a.3.3,0,0,0,.159-.158.117.117,0,0,0-.007-.09.219.219,0,0,0-.1-.084c-.3-.172-.825-.62-.89,0C547.64,460.844,548.188,460.819,548.529,460.658Z" transform="translate(-537.71 -453.304)" fill="#c9c8c7"/>
      <path id="패스_1210" data-name="패스 1210" d="M556.289,449.32c-.071.023-.006-.16-.051-.1h-.067a.85.85,0,0,0-.236.307.3.3,0,0,0,.09.352.352.352,0,0,0,.171.04c.2.008.449-.071.488-.277A.312.312,0,0,0,556.289,449.32Z" transform="translate(-544.624 -444.224)" fill="#c9c8c7"/>
      <path id="패스_1211" data-name="패스 1211" d="M557.122,428.156a1.075,1.075,0,0,0-.712-.1c.3.178.013.388.131.728l.524.295c0-.253.33-.432.28-.68A.391.391,0,0,0,557.122,428.156Z" transform="translate(-545.04 -426.424)" fill="#c9c8c7"/>
      <path id="패스_1212" data-name="패스 1212" d="M603.276,453.572c-.027,0-.043.056-.018.044l-.249.12c-.264.107-.081.276-.23.526a5.419,5.419,0,0,0,.832.017,1.061,1.061,0,0,0-.011-.451A.341.341,0,0,0,603.276,453.572Z" transform="translate(-584.025 -447.892)" fill="#c9c8c7"/>
      <path id="패스_1213" data-name="패스 1213" d="M621.011,436.8l.072-.192a1.429,1.429,0,0,0,.409-.523,1.669,1.669,0,0,0-.575-.2Z" transform="translate(-599.274 -433.02)" fill="#c9c8c7"/>
      <path id="패스_1214" data-name="패스 1214" d="M616.287,418.028c-.118.045-.232.166-.2.291a.221.221,0,0,0,.234.14.637.637,0,0,0,.269-.111.807.807,0,0,1,.078-.4l-.025-.036A2.275,2.275,0,0,1,616.287,418.028Z" transform="translate(-595.211 -417.914)" fill="#c9c8c7"/>
      <path id="패스_1215" data-name="패스 1215" d="M659.381,443.514a.27.27,0,0,0,.38-.245.293.293,0,0,0-.317-.224.535.535,0,0,0-.2.056l-.084.083A.425.425,0,0,0,659.381,443.514Z" transform="translate(-631.431 -439.042)" fill="#c9c8c7"/>
      <path id="패스_1216" data-name="패스 1216" d="M669.854,460.645l.61.043a.979.979,0,0,0-.1-.448.326.326,0,0,0-.38-.166l-.138.043-.088.38a.134.134,0,0,0,.011.121A.121.121,0,0,0,669.854,460.645Z" transform="translate(-640.33 -453.344)" fill="#c9c8c7"/>
      <path id="패스_1217" data-name="패스 1217" d="M686.45,456.818c.132,0,.284-.093.272-.229a.333.333,0,0,0-.075-.158.731.731,0,0,0-.2-.213.238.238,0,0,0-.272,0c-.1.084-.084.24-.06.37l-.056.18C686.19,456.765,686.319,456.819,686.45,456.818Z" transform="translate(-654.041 -450.083)" fill="#c9c8c7"/>
      <path id="패스_1218" data-name="패스 1218" d="M670.075,492.949a.732.732,0,0,0-.4-.249,1.646,1.646,0,0,0-.411.068.2.2,0,0,0-.126.082c-.049.093.049.193.136.248a4.522,4.522,0,0,0,.421.234.386.386,0,0,0,.3.051A.3.3,0,0,0,670.075,492.949Z" transform="translate(-639.802 -480.789)" fill="#c9c8c7"/>
      <path id="패스_1219" data-name="패스 1219" d="M672.483,492.668l.015.005h.023Z" transform="translate(-642.628 -480.763)" fill="#c9c8c7"/>
      <path id="패스_1220" data-name="패스 1220" d="M678.985,513.776c.1.008.22-.025.248-.124s-.078-.218-.078-.335a1.828,1.828,0,0,0-.625.411l.159.042A.7.7,0,0,1,678.985,513.776Z" transform="translate(-647.711 -498.123)" fill="#c9c8c7"/>
      <path id="패스_1221" data-name="패스 1221" d="M688,502.114a.685.685,0,0,0,.067-.3.2.2,0,0,0-.03-.147.174.174,0,0,0-.1-.043,2.784,2.784,0,0,0-.56-.063l-.193.244c-.107.045-.2.175-.143.277a.252.252,0,0,0,.119.087,1.235,1.235,0,0,0,.437.138A.429.429,0,0,0,688,502.114Z" transform="translate(-654.851 -488.235)" fill="#c9c8c7"/>
      <path id="패스_1222" data-name="패스 1222" d="M703.468,511.335a.535.535,0,0,0-.519-.02l-.183.055a.307.307,0,0,0-.206.253.414.414,0,0,0,.3.407,1.132,1.132,0,0,0,.529.005.381.381,0,0,0,.213-.078.274.274,0,0,0,.074-.141A.471.471,0,0,0,703.468,511.335Z" transform="translate(-667.912 -496.391)" fill="#c9c8c7"/>
      <path id="패스_1223" data-name="패스 1223" d="M692.941,531.936l-.133.051c-.107,0-.23.1-.192.2a.21.21,0,0,0,.057.076,1.541,1.541,0,0,0,.738.394.465.465,0,0,0,.08-.581A.429.429,0,0,0,692.941,531.936Z" transform="translate(-659.548 -513.737)" fill="#c9c8c7"/>
      <path id="패스_1224" data-name="패스 1224" d="M674.42,522.225a.5.5,0,0,0,.636-.323,2.067,2.067,0,0,1-.724-.467,2.01,2.01,0,0,0-.16.684c.013,0,.026,0,.039.008C674.283,522.152,674.348,522.2,674.42,522.225Z" transform="translate(-644.047 -504.948)" fill="#c9c8c7"/>
      <path id="패스_1225" data-name="패스 1225" d="M650.744,524.978a.454.454,0,0,0-.071-.6,1.457,1.457,0,0,0-.26-.126.736.736,0,0,0-.241-.1.34.34,0,0,0-.309.2,1.061,1.061,0,0,0-.09.387l-.03-.088a.707.707,0,0,0,.412.491A.516.516,0,0,0,650.744,524.978Z" transform="translate(-623.51 -507.231)" fill="#c9c8c7"/>
      <path id="패스_1226" data-name="패스 1226" d="M642.812,529.94c-.008.078-.163-.008-.1.038l-.008.17a1.242,1.242,0,0,1-.117.5l1.045.047-.143-.749Z" transform="translate(-617.491 -512.099)" fill="#c9c8c7"/>
      <path id="패스_1227" data-name="패스 1227" d="M655.109,540.039a.526.526,0,0,0-.2-.065l-.5-.086a.245.245,0,0,0-.131.126.364.364,0,0,0,.088.38.676.676,0,0,0,.358.175,1.362,1.362,0,0,0,.542,0C655.276,540.376,655.268,540.144,655.109,540.039Z" transform="translate(-627.303 -520.462)" fill="#c9c8c7"/>
      <path id="패스_1228" data-name="패스 1228" d="M675.155,546.05a.217.217,0,0,0,.072-.1.738.738,0,0,0-.482-.956c-.164-.039-.392.048-.372.22l.6.231a5.034,5.034,0,0,0-.471.584,1.817,1.817,0,0,0,.542.05A.226.226,0,0,0,675.155,546.05Z" transform="translate(-644.216 -524.747)" fill="#c9c8c7"/>
      <path id="패스_1229" data-name="패스 1229" d="M691.12,551.881a.48.48,0,0,0-.662.059.614.614,0,0,0,.158.687l.094-.056.454-.4a.213.213,0,0,0,.067-.082C691.259,552.009,691.189,551.928,691.12,551.881Z" transform="translate(-657.692 -530.458)" fill="#c9c8c7"/>
      <path id="패스_1230" data-name="패스 1230" d="M678.473,570.054l-.166.152-.223.185c-.03.025-.064.061-.051.1s.047.043.078.05l.288.068a.5.5,0,0,0,.415-.023.309.309,0,0,0,.056-.408A.351.351,0,0,0,678.473,570.054Z" transform="translate(-647.291 -545.808)" fill="#c9c8c7"/>
      <path id="패스_1231" data-name="패스 1231" d="M660.1,569.268a.132.132,0,0,0-.13-.011.138.138,0,0,0-.045.085,1.245,1.245,0,0,0-.033.322l.231-.115a.213.213,0,0,0-.034.225.378.378,0,0,0,.281.179.555.555,0,0,0,.372-.042.342.342,0,0,0,.181-.322A1.961,1.961,0,0,1,660.1,569.268Z" transform="translate(-632.043 -545.143)" fill="#c9c8c7"/>
      <path id="패스_1232" data-name="패스 1232" d="M633.817,580.322l-.124,0a2.592,2.592,0,0,0-.518.635l.743.114a.814.814,0,0,0,.221-.461C634.142,580.438,633.973,580.255,633.817,580.322Z" transform="translate(-609.579 -554.445)" fill="#c9c8c7"/>
      <path id="패스_1233" data-name="패스 1233" d="M600.188,572.2c-.148-.051-.267.128-.327.277l.055.042a.665.665,0,0,0,.325.63,2.174,2.174,0,0,0,.407-.5l-.345-.357A.314.314,0,0,0,600.188,572.2Z" transform="translate(-581.571 -547.621)" fill="#c9c8c7"/>
      <path id="패스_1234" data-name="패스 1234" d="M580.185,594.006a.332.332,0,0,0-.195-.026c-.224.046-.281.346-.289.583l.045.013c-.019.093.042,0,.082.083a.354.354,0,0,0,.5.153.385.385,0,0,0,.133-.2A.521.521,0,0,0,580.185,594.006Z" transform="translate(-564.622 -565.935)" fill="#c9c8c7"/>
      <path id="패스_1235" data-name="패스 1235" d="M577.83,609.833a.188.188,0,0,0-.12.245l.135-.093a.7.7,0,0,0-.228.5l.576.054a.238.238,0,0,0,.144-.017.241.241,0,0,0,.088-.13,2.356,2.356,0,0,0,.116-.425l-.414-.116A.5.5,0,0,0,577.83,609.833Z" transform="translate(-562.871 -579.255)" fill="#c9c8c7"/>
      <path id="패스_1236" data-name="패스 1236" d="M565.926,602.571a.281.281,0,0,0-.059-.156.242.242,0,0,0-.136-.057,1.667,1.667,0,0,0-.539-.007.139.139,0,0,0-.1.045.156.156,0,0,0,0,.137,5.993,5.993,0,0,0,.311.763,2.047,2.047,0,0,0,.451-.036.186.186,0,0,0,.133-.07.209.209,0,0,0,.011-.142Z" transform="translate(-552.329 -572.961)" fill="#c9c8c7"/>
      <path id="패스_1237" data-name="패스 1237" d="M523.388,589.023a.84.84,0,0,0-.628.118c-.19.1-.21.121-.216.336a.674.674,0,0,0,.093.4.6.6,0,0,0,.4.215,4.168,4.168,0,0,1,.46.067.754.754,0,0,0,.22.05.357.357,0,0,0,.251-.134C524.393,589.594,523.82,589.13,523.388,589.023Z" transform="translate(-516.567 -561.754)" fill="#c9c8c7"/>
      <path id="패스_1238" data-name="패스 1238" d="M514.7,578.547a.437.437,0,0,0-.129-.113l-.494-.329a.109.109,0,0,0-.1-.026.113.113,0,0,0-.04.039l-.364.491a.441.441,0,0,0-.107.223c-.032.468,1.327.655,1.282-.123A.32.32,0,0,0,514.7,578.547Z" transform="translate(-508.934 -552.567)" fill="#c9c8c7"/>
    </g>
    <g id="그룹_359" data-name="그룹 359" transform="matrix(0.985, 0.174, -0.174, 0.985, 508.384, 6045.115)">
      <g id="그룹_358" data-name="그룹 358" transform="translate(452.792 129.378)">
        <path id="패스_1998" data-name="패스 1998" d="M692.4,163.078a3.853,3.853,0,0,0,1.094,1.031c-.039.044-.1.014-.142,0a.22.22,0,1,0-.156.41c.391.16.273.663.318,1a1.374,1.374,0,0,0,1.294,1.313c.584.037,1.084.753,1.667.381a.379.379,0,0,0,.175-.4c-.067-.318.435.151.536.214a4.372,4.372,0,0,1,1.456,2.319c-.025.115.125.238-.026.311a1.649,1.649,0,0,1-.5.232c-.034-.045.01-.059.034-.076a.545.545,0,0,0-.147-1.031c-1.061-.229-2.059.392-2.983.823-1.919,1.169-3.352,2.985-5.224,4.224-.422.267-.054-2.185-.064-2.461.053-.657-.014-2.048-.986-1.618.258-1.443.33-3.16,1.211-4.357.16-.414.672-.77.606-1.233a.231.231,0,0,1,.022-.232,2.594,2.594,0,0,0,.155-1.666C690.683,161.095,692.284,162.626,692.4,163.078Z" transform="translate(-650.397 -156.559)" fill="#995400"/>
        <path id="패스_1999" data-name="패스 1999" d="M456.028,151.224c-1.229-.066-2.63-.77-2.764-2.119a9.7,9.7,0,0,1-.274-4.834c.4-1.691,2.787-4.034,4.578-3.982.632-2.056,1.961-3.057,3.661-4.31a5,5,0,0,1,1.056-.762,10.434,10.434,0,0,1,2.163-1.255,6.852,6.852,0,0,0,1.541-.627,13.576,13.576,0,0,0,1.931-1.848,10.322,10.322,0,0,1,4.6-1.585c.874-.109,1.749-.216,2.629-.28.461-.063,4.756-.123,2.465.08a15.623,15.623,0,0,0-2.835.215,22,22,0,0,0-4.953.86,2.556,2.556,0,0,0-.586.35c-.212.137-1.25.457-.772.774.159.079.128.326.315.4.343.217.446.632.755.875a.582.582,0,0,1,.238.375c.015.04.021.1.071.1.078-.025-.009-.18.088-.2.858,1.01.955,2.494,1.431,3.711a20.9,20.9,0,0,1,1.224,4.428c.093,1.24.556,2.4.751,3.623a.1.1,0,0,1-.058.134c-.159.161-.012.462-.012.668.025.73.11,1.469.153,2.19-.125,0-.14-.654-.2-.8-.15-.95-.427-1.875-.538-2.827-.472-2.231-1.039-4.437-1.528-6.666a14.716,14.716,0,0,0-1.092-3.011c-.1-.17-.843-1.636-.826-1.01-.209-.217-.279-.578-.533-.79-.256-.31-.692-.379-.978-.582.038-.078.173-.131.1-.23-.223-.211-.689.286-.829.473a5.569,5.569,0,0,1-2.417,1.6c-.979.606-2.025,1.108-2.965,1.781-1.02.971-2.411,1.684-1.552,3.276-.235-.089-.4-.365-.643-.472-.143-.055-.085.123-.006.167a18.387,18.387,0,0,1,3.6,5.749c.141.162,1.329,3.02.832,2.292-1.375-2.374-2.289-5.262-4.59-6.922-.3-.2.407-.036.193-.357-.1-.169-.41-.159-.45-.359a.211.211,0,0,0-.1-.187c-.24-.233.378-.619.163-.85-.464-.124-.769,1.343-1.076,1.632a3.916,3.916,0,0,1-1.187.888c-.456.21-.767.637-1.217.865a4.318,4.318,0,0,0-1.7,1.423c-.723.728-1.346,2.127-.229,2.772.288.416.85.429,1.24.716a8.421,8.421,0,0,1,.9.754c.54.78,1.44,1.2,1.982,1.958a4.112,4.112,0,0,0,2.273,1.716c.023.18.168.194.3.22a8.969,8.969,0,0,1,2.311.867,6.385,6.385,0,0,1-3.536-.618h0c-.046-.025-.112-.015-.132-.08.022-.057.071-.045.111-.038.777.1-.019-.335-.262-.448-.121-.046-.163-.418-.328-.288-.027.045-.057.022-.084,0a20.7,20.7,0,0,0-2.384-2.146,8.684,8.684,0,0,0-1.948-1.628c-.449-.276-.434.15-.455.476-.687.542-.158,1.447.146,2.069.705,1.528,2.715,1.312,4.058,1.626C457.267,151.262,456.628,151.227,456.028,151.224Z" transform="translate(-452.792 -129.532)" fill="#bf7900"/>
        <path id="패스_2000" data-name="패스 2000" d="M548.309,153.589a14.006,14.006,0,0,1,2.094,5.423c.371,1.969.957,3.905,1.271,5.878.438,1.865.8,3.728,1.051,5.623a15.137,15.137,0,0,0,1.363,4.087c-.266-.076-.545-.1-.726-.34-.081.331-.668-.173-.719-.355-.971-1.5-.965-3.386-1.4-5.078-.922-4.148-1.225-8.505-2.912-12.439-.4-.893-.784-1.793-1.2-2.679-.057-.144-.209-.4-.052-.5.365.048.6.85.821,1.148a24.625,24.625,0,0,1,1.79,3.932,16.141,16.141,0,0,0-1.43-4.314C548.175,153.879,548.057,153.359,548.309,153.589Z" transform="translate(-531.697 -149.337)" fill="#c98135"/>
        <path id="패스_2001" data-name="패스 2001" d="M615.98,166.149c-.224.106-.375.369-.63.382-.316-.2-.009-.646.044-.923a15.855,15.855,0,0,0,.149-3.745c.042-2.967-.112-5.953.139-8.918.166-3.465.565-6.127,2.569-9.054.775-.648-1.062,2.551-1.055,2.788a18.645,18.645,0,0,0-.879,5.39,19.109,19.109,0,0,1,1.534-5.282c.043-.211.756-1.383.57-.6a29.991,29.991,0,0,0-1.886,12.364c0,1.39-.105,2.778-.121,4.169A9.046,9.046,0,0,1,615.98,166.149Z" transform="translate(-588.809 -141.46)" fill="#c98135"/>
        <path id="패스_2002" data-name="패스 2002" d="M728.678,211.669a1.786,1.786,0,0,1-.1,1.377c-.213.634.174,1.3-.165,1.914a6.764,6.764,0,0,1-1.578,2.428c-.781-.156-1.58.518-2.344-.006-.947-.779.529-2.693,1.343-3.048-.038-.108-.219-.068-.3-.028-.068.118-.544.137-.439-.017a6.129,6.129,0,0,1,2.175-1.082c.3-.1.266-.43.412-.656a3.862,3.862,0,0,0,.384-1.162C728.278,210.936,728.7,211.273,728.678,211.669Z" transform="translate(-680.071 -197.878)" fill="#995400"/>
        <path id="패스_2003" data-name="패스 2003" d="M597.312,134.945c.34-.947.895-1.8,1.257-2.734h0c.336-1.146-1.579,2.426-1.6,2.592-.127-.24-.055-.607-.17-.883-.03-.1-.076-.192-.016-.289.341-.785.721-1.551,1.106-2.311-.246.079-.345-.322-.485-.468-1.732-1.166-3.923-.841-5.886-.849a9.445,9.445,0,0,1,2.436-.2,10.981,10.981,0,0,1,4.892.649c.822.375,1.5,1,2.324,1.371.595.358,1.408.42,1.874.941a11.224,11.224,0,0,1-1.395-.283c-.5-.022-2.36-2-2.6-1.281a2.623,2.623,0,0,1,.056,2.245.921.921,0,0,0-.007.834.107.107,0,0,1,.014.147,11.483,11.483,0,0,0-.922,2.668,18.721,18.721,0,0,0-1.235,4.093c-.032-.026-.009-.054-.01-.072,0,.033-.108.335-.115.189a26.66,26.66,0,0,1,1.743-6.906h0a2.076,2.076,0,0,0,.1-.341,8.52,8.52,0,0,0-1.477,3.137c-.081-.576.206-1.2.167-1.793C597.321,135.25,597.463,135.053,597.312,134.945Z" transform="translate(-568.969 -129.681)" fill="#ac6f00"/>
        <path id="패스_2004" data-name="패스 2004" d="M711.966,230.09c.033-.007.07-.018.1,0,.23.17.492-.3.7-.031.021.048.011.088-.043.086a3.075,3.075,0,0,0-1.62,2.353c-.015.853,1.107.916,1.719.7.452-.175,1.259-.3.967.456a3.117,3.117,0,0,1-2.864,1.663c-.767-.231-1.984-.12-2.362-.95a.5.5,0,0,1,.213-.584A23.879,23.879,0,0,1,711.966,230.09Z" transform="translate(-666.967 -213.626)" fill="#7e4400"/>
        <path id="패스_2005" data-name="패스 2005" d="M697.232,220.181a20.66,20.66,0,0,0-2.955,3.48,5.058,5.058,0,0,1-2.09,1.279c-.349.075-.7-.152-1.027.031a.15.15,0,0,1-.2-.212c.152-.359.6-.418.94-.472a4.041,4.041,0,0,0,2.035-1.239,17.7,17.7,0,0,1,3.98-4.163c.49-.332,1.153-.893,1.758-.7.035.1-.094.175-.164.229a17.183,17.183,0,0,0-2.137,1.647h0A1.652,1.652,0,0,0,697.232,220.181Z" transform="translate(-652.232 -203.716)" fill="#c98135"/>
        <path id="패스_2006" data-name="패스 2006" d="M718.544,178.226c.184.544-.467.793-.863.572a3.187,3.187,0,0,0-1.177-.451,1.333,1.333,0,0,1-1.1-1.121,5.925,5.925,0,0,0-.12-1c-.1-.193-.536-.211-.345-.536.086-.173.294-.077.451-.064.315.05.729.061.867.409A7.615,7.615,0,0,1,718.544,178.226Z" transform="translate(-672.288 -168.081)" fill="#7f4500"/>
        <path id="패스_2007" data-name="패스 2007" d="M458.759,236.673a6.248,6.248,0,0,1,1.936,1.693c.726.8,1.727,1.263,2.419,2.109.137-.285.271.183.374.245.154.078.978.458.435.523-.1-.008-.2-.066-.3,0a.489.489,0,0,0-.246-.032c-.842-.487-1.8-.255-2.718-.341l1.814,0c-.031-.046-.078-.039-.109-.06a5.336,5.336,0,0,1-1.952-1.1c-.469-.374-.779-.933-1.328-1.2-.331-.2-.259.368-.43.106-.119-.291.224-.517.486-.43.829.216,1.317,1.021,2.068,1.4-1.01-.748-1.513-1.988-2.6-2.66-.041-.061-.086-.1-.164-.047C458.162,236.92,458.413,236.426,458.759,236.673Z" transform="translate(-457.425 -219.175)" fill="#c98135"/>
        <path id="패스_2008" data-name="패스 2008" d="M670.4,213.417c-.226.373-.565.855-1.048.819a12.735,12.735,0,0,0,.612-1.947c.213-.914.133-1.859.326-2.777a16.8,16.8,0,0,1,1.458-4.233c.063-.134.234-.311.384-.26-.08.651-.234,1.307-.369,1.954a10.1,10.1,0,0,1-.751,2.156c-.157.506-.557.89-.658,1.423-.336.987.109,1.224-.344,2.324.081.222.251-.15.324-.217.037-.014.059.007.073.035.056.149.2.265.243.409C670.525,213.176,670.523,213.347,670.4,213.417Z" transform="translate(-634.15 -192.717)" fill="#ac6f00"/>
        <path id="패스_2009" data-name="패스 2009" d="M720.906,210.393a12.325,12.325,0,0,1,2.14-1.676c.057-.049.163-.1.145-.189-1.384-.118-3.183,2-4.149,2.918a8.554,8.554,0,0,1,2.667-2.795c.648-.338,1.124-.971,1.772-1.275.1-.064.74-.259.5-.4,0-.118.012-.254.008-.377.169.41.532.755.384,1.239-.087-.193-.058-.5-.362-.466-.128.011-.182.1-.227.2a7.338,7.338,0,0,1-.512,1.513c-.088.363-.557.383-.854.488A7.041,7.041,0,0,0,720.906,210.393Z" transform="translate(-675.766 -194.05)" fill="#ac6e00"/>
        <path id="패스_2010" data-name="패스 2010" d="M659.954,146.609c-.177-.086-.312-.235-.485-.329a13.772,13.772,0,0,1,6.7,1.828c.911.294,1.285,1.166,1.716,1.943a3,3,0,0,0-.775-.91h0c-.028-.019-.052-.043-.081-.061h0c-.59-.431-1.12-.962-1.749-1.332-.28-.18-.565-.016-.848-.106a32.164,32.164,0,0,0-3.982-.836c-.045-.016-.114-.008-.069-.1C660.374,146.591,660.038,146.706,659.954,146.609Z" transform="translate(-625.876 -143.533)" fill="#bf7900"/>
        <path id="패스_2011" data-name="패스 2011" d="M546.522,266.091a21.309,21.309,0,0,1-5.023-1.823c-.087-.062-.089-.079,0-.126.162-.105-.273-.282-.193-.4a14.435,14.435,0,0,1,3.055.963c.381.079.237.4.512.554.24.069.436.463.7.274C545.76,265.485,546.407,265.952,546.522,266.091Z" transform="translate(-526.913 -241.904)" fill="#bf7900"/>
        <path id="패스_2012" data-name="패스 2012" d="M738.749,226.216c.2-.3.528-.7.283-1.056.791-.966,1.828-2.134,1.672-3.465a1.789,1.789,0,0,1,.211-1.233C740.818,222.51,740.829,225.126,738.749,226.216Z" transform="translate(-692.27 -205.657)" fill="#bf7900"/>
        <path id="패스_2013" data-name="패스 2013" d="M620.19,268.266a4.305,4.305,0,0,0,.3-1.269c.017-.12-.03-1.5.132-.962.052-.026.035-.094.079-.123.264.853.779.839,1.555.87-.106.244-.047.413-.376.522a14.632,14.632,0,0,1-1.324.7C620.4,268.047,620.37,268.285,620.19,268.266Z" transform="translate(-592.981 -243.72)" fill="#ac6d00"/>
        <path id="패스_2014" data-name="패스 2014" d="M563.627,271.895c-.307-.151-.611-.551-.957-.524-.244.19-.468-.22-.7-.282-.174-.075-.207-.249-.246-.414a12.386,12.386,0,0,0,1.57.452.03.03,0,0,1,.016.024c.009.017-.035.022-.015.028.1.028.2.088.3.118-.011-.249.649.146.866-.076a5.212,5.212,0,0,0,.526,1.055c-.093.111-.293-.167-.419-.083C564.241,272.408,563.935,271.99,563.627,271.895Z" transform="translate(-544.018 -247.708)" fill="#ac6d00"/>
        <path id="패스_2015" data-name="패스 2015" d="M592.23,275.728a1.458,1.458,0,0,0-.1.606c-.122.4-.654.513-.984.708-.826.552-2.045.872-2.8.04-.057-.089-.412-.4-.271-.445.045-.036.006-.068-.009-.1a2.975,2.975,0,0,1-.465-1.472c.053-.021.051.026.06.052.223.609.277,1.43.824,1.836a1.233,1.233,0,0,0,1.009.269A3.067,3.067,0,0,0,592.23,275.728Z" transform="translate(-565.687 -251.383)" fill="#995400"/>
        <path id="패스_2016" data-name="패스 2016" d="M560.832,131.521c-.9-.323-1.57-1.061-2.464-1.4a11.861,11.861,0,0,0-4.553-.645c.127-.059.229.017.365-.04-3,0-8.766-.007-10.829,2.368,1.591-2.061,6.178-2.229,8.642-2.406C555.066,129.312,558.392,129.4,560.832,131.521Z" transform="translate(-528.632 -129.378)" fill="#bf7801"/>
        <path id="패스_2017" data-name="패스 2017" d="M675.8,255.215c.417-.84.259.388,1.3.333.42.043.85-.105,1.251-.091-.082.134-.1.385.132.281.291-.181.6.03.916-.019.036,0,.075-.013.105.019A4.884,4.884,0,0,1,675.8,255.215Z" transform="translate(-639.549 -234.514)" fill="#bf7900"/>
        <path id="패스_2018" data-name="패스 2018" d="M725.581,180.53a10.019,10.019,0,0,0-2.289-2.186,9.19,9.19,0,0,1,3.306,3.016A4.064,4.064,0,0,0,725.581,180.53Z" transform="translate(-679.325 -170.385)" fill="#bf7900"/>
        <path id="패스_2019" data-name="패스 2019" d="M632.3,263.571c.057-.106-.059-.287.1-.31a4.033,4.033,0,0,0,.986-.358c.151-.093.338-.039.506-.057.426.145,3.927-.368,1.751.014,1.114-.017,2.054-.121,2.674-1.158h.162c-.531.516-1.05,1.159-1.857,1.156C635.156,262.941,633.613,262.807,632.3,263.571Z" transform="translate(-603.12 -240.194)" fill="#bf7901"/>
        <path id="패스_2020" data-name="패스 2020" d="M703.117,254.964c.236-.229.68-.382.969-.61-.134.228-.408.572,0,.691a.325.325,0,0,1,.159.058c.156.161.389.174.569.284C704.2,255.434,703.677,255.022,703.117,254.964Z" transform="translate(-662.429 -234.04)" fill="#bf7900"/>
        <path id="패스_2021" data-name="패스 2021" d="M619.888,277.278a.219.219,0,0,0,.139-.092c.224-.28.624-.342.922-.513a10.78,10.78,0,0,1-1.1.748C619.793,277.355,619.87,277.324,619.888,277.278Z" transform="translate(-592.679 -252.732)" fill="#bf7902"/>
        <path id="패스_2022" data-name="패스 2022" d="M576.9,279.837c.456.119.232-.238.734.058.02.009.041.029.062,0a.466.466,0,0,1,.121.224c-.237-.067-.46-.251-.71-.23A.212.212,0,0,1,576.9,279.837Z" transform="translate(-556.729 -255.329)" fill="#c07a02"/>
        <path id="패스_2023" data-name="패스 2023" d="M614.207,283.167a1,1,0,0,0,.2-.284c.025.048.084.067.1.12A2,2,0,0,1,614.207,283.167Z" transform="translate(-587.971 -257.932)" fill="#bf7906"/>
        <path id="패스_2024" data-name="패스 2024" d="M724.646,262.339a2.046,2.046,0,0,0,.738-.122A.918.918,0,0,1,724.646,262.339Z" transform="translate(-680.459 -240.625)" fill="#b4791d"/>
        <path id="패스_2025" data-name="패스 2025" d="M712.113,170.655c-.137-.039-.218-.209-.281-.33Z" transform="translate(-669.728 -163.67)" fill="#b57518"/>
        <path id="패스_2026" data-name="패스 2026" d="M703.217,257.956a.173.173,0,0,1,.182,0Z" transform="translate(-662.513 -237.035)" fill="#c98135"/>
        <path id="패스_2027" data-name="패스 2027" d="M678.038,212.871c-1.342.238-1.916.283-2.614-.992.708-1.474.2.079,1.031-.028.768.281,3.069.519,2.882-.8-.221-.679-.992-1.192-.854-1.97.062.121.013.2.167.084,1.735-1.187,3.143-2.788,4.854-4.007,1-.5,2.648-1.6,3.7-.813.289.378.157.677-.247.908-1.615,1.2-3.388,2.293-4.439,4.07-1.142,1.182-1.844,2.869-3.624,3.2A1.36,1.36,0,0,0,678.038,212.871Z" transform="translate(-639.238 -191.928)" fill="#7f4500"/>
        <path id="패스_2028" data-name="패스 2028" d="M676.7,193.853c-.167,1,1.56,1.841.609,2.715a3.562,3.562,0,0,1-2.7.079c-.37.016-.508-.331-.552-.658-.924,1.622-.972,1-.329-.3a23.406,23.406,0,0,0,.984-3.361c.195-.8.408-1.585.617-2.377.412-1.257.363-3.192,1.375-4.065a29.5,29.5,0,0,0-.894,4C677.48,189.239,676.542,193.007,676.7,193.853Z" transform="translate(-637.457 -176.7)" fill="#5b2d12"/>
        <path id="패스_2029" data-name="패스 2029" d="M666.988,176.884a15.35,15.35,0,0,0-1.638,5.177c-.1,1.276-.177,3.118-1.081,4.082-.187.2-.3.613-.576.255-.275.013-.036-.193.005-.311.755-1.244.62-2.728.8-4.125a17.653,17.653,0,0,1,1.349-5.539,15.838,15.838,0,0,1,2.171-3.714,9.007,9.007,0,0,1,1.318-1.171c.145-.03.177-.18.271-.271.2-.189-.015.477-.075.52-.129.135.02.263-.01.409a5.73,5.73,0,0,1-.65,1.083,1.2,1.2,0,0,0-.437.359C667.79,174.632,667.557,175.843,666.988,176.884Z" transform="translate(-629.303 -164.429)" fill="#c98135"/>
        <path id="패스_2030" data-name="패스 2030" d="M678.149,157.447l-.007-.073c-.141.08-.141.266-.3.308a7.835,7.835,0,0,0-1.395,1.229,17.947,17.947,0,0,0-2.78,5.423,7.787,7.787,0,0,1,.985-3.389,17.082,17.082,0,0,1,1.891-2.733c1.375-1.353,1.692-2.349-.06-3.5.9-.27,1.736.929,2.432,1.4C677.636,155.29,678.4,156.8,678.149,157.447Z" transform="translate(-637.769 -150.563)" fill="#ac6e00"/>
        <path id="패스_2031" data-name="패스 2031" d="M689.456,186.183a4.791,4.791,0,0,1,.646-1.438c.089-.074.2-.271.324-.223.04.041-.012.07-.029.1a4.835,4.835,0,0,0-.291.548c-.024-.151.179-.3.1-.428-.437.315-.534,1-.754,1.48A.03.03,0,0,1,689.456,186.183Z" transform="translate(-650.983 -175.553)" fill="#683717"/>
        <path id="패스_2032" data-name="패스 2032" d="M692.359,211.975c-.009-.6.11-1.376-.486-1.743C692.517,210.473,692.38,211.427,692.359,211.975Z" transform="translate(-653.013 -197.09)" fill="#69350f"/>
        <path id="패스_2033" data-name="패스 2033" d="M693.739,184.116c.152-.336-.176.012-.267.079C693.607,183.9,694.308,183.648,693.739,184.116Z" transform="translate(-654.352 -175.003)" fill="#7a4418"/>
        <path id="패스_2034" data-name="패스 2034" d="M706.456,163.885a.445.445,0,0,1,.2.162A.533.533,0,0,1,706.456,163.885Z" transform="translate(-665.226 -158.276)" fill="#ac6e00"/>
        <path id="패스_2035" data-name="패스 2035" d="M705.958,163.511a.094.094,0,0,1,.081.061A.1.1,0,0,1,705.958,163.511Z" transform="translate(-664.808 -157.963)" fill="#ac6e00"/>
        <path id="패스_2036" data-name="패스 2036" d="M555.3,130.983c1.965-.032,4.53-.432,6.038,1.033-.047.012-.069-.03-.1-.049-.1.5-1.581-.411-2.084-.324a3.431,3.431,0,0,0-1.828.121c-.216.14-.076.422.143.459.521.2,1.229.455,1.221,1.12a13.407,13.407,0,0,1-.871,5.405,29.093,29.093,0,0,0-.6,5.329c-.068,1.686-.457,3.334-.618,5.009-.853,1.129-.959,1.384-1.387-.2-.275-1.141-2.753-17.229-2.876-8.691,0-2.268.624,4.087.793,4.338a11.538,11.538,0,0,1,.377,2.227c-.106-.1-.077-.391-.3-.234-.017.01-.033.023-.055.013.024-.136.187-.057.115-.254-.166-1.06-.573-2.064-.685-3.134a20.957,20.957,0,0,0-1.351-5.059,12.074,12.074,0,0,0-1.323-3.517c-.057.057-.033.12-.038.177-.011.168-.172.015-.162-.083-.044-.3-.382-.4-.5-.662-.133-.381-.614-.5-.695-.887,0-.031-.025-.043-.055-.049a.219.219,0,0,1-.058-.414c.516-.265.985-.611,1.518-.825A24.439,24.439,0,0,1,555.3,130.983Z" transform="translate(-532.752 -130.661)" fill="#995400"/>
        <path id="패스_2037" data-name="패스 2037" d="M507.819,159.6c.239,1.234.482,2.472.709,3.706-.632-2.224-1.051-4.593-1.61-6.865-.493-1.939-1.448-3.728-1.792-5.705-.084-.581-.421.028-.56-.255-.877-1.52-1.587-.7-.825.6a27.463,27.463,0,0,1,1.514,5.712,9.582,9.582,0,0,1,.181,3.316,1.443,1.443,0,0,1-1.744,1.4,4.907,4.907,0,0,1-1.383-1.665c-.938-1.469-.921-3.346-2.091-4.677-.074-.092-.2-.023-.147.089.792,1.565.789,3.309,1.593,4.88.022.049.068.194-.035.139-1.1-.889-1.421-2.392-2.521-3.278a.233.233,0,0,0,.072.141c.1.1-.01.226.045.344.028.367.325.651.375,1a17.307,17.307,0,0,1-1.289-2.445A16.721,16.721,0,0,0,496.086,153a1.913,1.913,0,0,1,.859-2.666,18.308,18.308,0,0,1,4.663-2.882,11.41,11.41,0,0,0,1.041-.7c.336-.341.565-.808,1.056-.96a.148.148,0,0,1,.141.242c-.035.01-.037.062-.08.062-.106.171-.343.229-.387.445a1.064,1.064,0,0,0-.049.992,7.7,7.7,0,0,1,1.209,1.7A41.887,41.887,0,0,1,507.819,159.6Z" transform="translate(-488.816 -143.118)" fill="#995400"/>
        <path id="패스_2038" data-name="패스 2038" d="M468.472,187.639a9.728,9.728,0,0,0,1.042-.771A5.679,5.679,0,0,0,471,185.8c.478-.438.543-1.206.98-1.691.142-.136.377,0,.284.183-.045.2-.379.483-.2.653.149.052.042.248.171.3.208.059.668.4.256.512-.218-.037-.107.1-.3.163.3.247.436.614.707.885.263.533.764.914,1.039,1.444a20.612,20.612,0,0,1,1.829,4.461c-.885.159-.688,1.195-.948,1.86-.075.2-.367.506-.58.327a29.137,29.137,0,0,1-2.589-3.548,1.536,1.536,0,0,0-.808-.475c-.55-.157-.977-.569-1.51-.769-.326-.636.277-1.72.562-2.338.292-.757-.764-.5-1.11-.251C468.679,187.551,468.582,187.675,468.472,187.639Z" transform="translate(-465.923 -175.165)" fill="#995400"/>
        <path id="패스_2039" data-name="패스 2039" d="M458.129,204.005c.393-.212,1.661-.857,1.463.094a4.309,4.309,0,0,0-.653,2.317c-1.513-.479-.5,1.335.16,1.692a13.26,13.26,0,0,1,2.168,2.9,4.509,4.509,0,0,0,2.758,1.9.622.622,0,0,0,.42-.988c-.128-.23-.375-.4-.48-.628,1.061-.2.236-2.118,1.439-2.228a8.422,8.422,0,0,0,2.009,2.756c.579.638-.32,1.037-.8,1.369a5.372,5.372,0,0,1-5.732-1.228h0a6.883,6.883,0,0,0-1.255-1.689,16.5,16.5,0,0,0-1.947-1.491c-.446-.289-1.058-.328-1.338-.829-.34-.375-.169-.923-.224-1.381A3.445,3.445,0,0,1,458.129,204.005Z" transform="translate(-455.58 -191.531)" fill="#7e4500"/>
        <path id="패스_2040" data-name="패스 2040" d="M496.8,198.413c-.451-.61.271-.085.438.128.194.27.413.133.193-.142a12.954,12.954,0,0,1-2.448-3.707c-.582-1.774-1.2-3.667-2.639-4.943-.175-.135-.36-.469-.609-.347-.329-.232-.393-.684-.76-.887.083-.049.156-.062.2-.126a8.022,8.022,0,0,1,2.3,2.532c.961,1.465,1.577,3.123,2.488,4.613a48.559,48.559,0,0,0-2.122-4.846,15.175,15.175,0,0,0-2.444-3.32c-.056-.063-.167-.129-.1-.224.671.126,1.339,1.257,1.828,1.77,1.107,1.215,1.588,2.822,2.421,4.214,1.14,1.84,1.172,4.317,2.893,5.817.116.186,1.216.957.93,1.067-.062.012-.076.043-.013.08-.1-.033-.114.1-.214.054a4.9,4.9,0,0,0-1.385-.334c.015-.081.082-.032.121-.049A9.31,9.31,0,0,1,496.8,198.413Z" transform="translate(-484.77 -177.756)" fill="#c98135"/>
        <path id="패스_2041" data-name="패스 2041" d="M456.785,239.4c1,.622,1.426,1.818,2.378,2.488-.856-.33-1.354-1.365-2.312-1.434-.243-.006-.422.32-.238.472.269-.683,1.07.451,1.359.7a6.066,6.066,0,0,0,2.277,1.438,5.518,5.518,0,0,1-1.476-.194,2.9,2.9,0,0,1-2.346-1.114c-.332-.669-1.07-1.764-.271-2.339.142.385.084.849.311,1.222a6.266,6.266,0,0,1-.122-1.28A.366.366,0,0,1,456.785,239.4Z" transform="translate(-455.309 -221.433)" fill="#ac6e00"/>
        <path id="패스_2042" data-name="패스 2042" d="M502.362,258.1c.263.393.669.687.9,1.1a5.373,5.373,0,0,1-2.552.811c-.919.02-1.714-.648-2.611-.826-.224-.116-.687-.018-.7-.336A5.172,5.172,0,0,0,502.362,258.1Z" transform="translate(-490.148 -237.173)" fill="#ac6d00"/>
        <path id="패스_2043" data-name="패스 2043" d="M578.306,226.6c.23-.213.282-.007.351.207.024-.03.008-.06.014-.086.526,2.3.7,4.779,1.047,7.136A19.29,19.29,0,0,1,578.306,226.6Z" transform="translate(-557.905 -210.721)" fill="#7e4400"/>
        <path id="패스_2044" data-name="패스 2044" d="M542.277,148.115c.058-.205.258-.3.406-.425a2.344,2.344,0,0,1,1.5,1.376c.039-.011.022.032.039.042a15.6,15.6,0,0,1,1.509,4.6,25.607,25.607,0,0,0-1.625-3.593C543.646,149.32,543.316,148.18,542.277,148.115Z" transform="translate(-527.732 -144.714)" fill="#ac6d00"/>
        <path id="패스_2045" data-name="패스 2045" d="M465.733,235.535a9.518,9.518,0,0,1,1.677,1.233,5.525,5.525,0,0,1,1.524,1.947c-.326-.369-.512-.853-.95-1.12C467.131,237.018,466.586,236.115,465.733,235.535Z" transform="translate(-463.63 -218.28)" fill="#995400"/>
        <path id="패스_2046" data-name="패스 2046" d="M455.06,213.853c-.215.466-.609.875-.512,1.423a2.414,2.414,0,0,0,.186,1.272C453.677,216.04,454.4,214.458,455.06,213.853Z" transform="translate(-453.97 -200.122)" fill="#995400"/>
        <path id="패스_2047" data-name="패스 2047" d="M472.939,247.082A6.7,6.7,0,0,1,471.1,245.5,14.206,14.206,0,0,1,472.939,247.082Z" transform="translate(-468.121 -226.625)" fill="#ad6d00"/>
        <path id="패스_2048" data-name="패스 2048" d="M458.05,237.493c-.094-.354-.253-1.429.406-.993-.432-.175-.514.263-.311.175.085-.054.138-.034.189.069-.066.024-.093-.023-.122-.06a4.613,4.613,0,0,0,.02,1.153C458.182,238.141,458.051,237.574,458.05,237.493Z" transform="translate(-457.122 -219.003)" fill="#c78130"/>
        <path id="패스_2049" data-name="패스 2049" d="M572.237,208.891c-.193-1.052-.474-2.089-.672-3.138A16.315,16.315,0,0,1,572.237,208.891Z" transform="translate(-552.261 -193.339)" fill="#b06f00"/>
        <path id="패스_2050" data-name="패스 2050" d="M553.921,155.138l-.039-.042c-.084-.179.081-.3.162-.1C553.9,154.885,553.888,155.022,553.921,155.138Z" transform="translate(-537.431 -150.744)" fill="#c68026"/>
        <path id="패스_2051" data-name="패스 2051" d="M544.541,145.985c.043-.161.011-.216-.141-.242C544.54,145.667,544.674,145.9,544.541,145.985Z" transform="translate(-529.51 -143.071)" fill="#a96200"/>
        <path id="패스_2052" data-name="패스 2052" d="M485.428,255.1a.1.1,0,0,1,.061.08A.1.1,0,0,1,485.428,255.1Z" transform="translate(-480.123 -234.665)" fill="#995400"/>
        <path id="패스_2053" data-name="패스 2053" d="M518.376,181.424a43.111,43.111,0,0,0-1.635-4.143c-.076-1.218,1.255,1.24,1.411,1.486a4.491,4.491,0,0,0,1.113,1.277c.719,1.428,1.1,3.012,1.915,4.389.948,1.385,1.7-1.01,1.184-1.745a7.113,7.113,0,0,0-1.151-1.466c3.575.456.859-7.448.464-9.265-.047-.718-1.274-2.06-.536-2.568a.317.317,0,0,1,.4.081c.2.112.611.963.745.773-.032.119-.126.207-.075.349.106.656.221,1.31.309,1.969.225,2.122,1.131,4.089,1.388,6.206.422,1.444-.617,2.914-.088,4.01.158.26.558.568.814.259a.163.163,0,0,1,.186-.056c.231.1.352-.14.557-.155.893-.119-.142-2.4-.237-2.973-.489-2.158-.978-4.371-1.6-6.47a61.859,61.859,0,0,1,2.294,8.8c.334,1.188.49,2.412.786,3.608.068.468-.666.561-.993.5-1.43-.184-2.611-1.139-4.033-1.356C519.858,184.6,519.176,182.794,518.376,181.424Z" transform="translate(-506.344 -162.853)" fill="#7e4500"/>
        <path id="패스_2054" data-name="패스 2054" d="M541.465,150.253a.323.323,0,0,0,.257-.009c.264.163.759.273.8.638-.957-.971,1.391,3.525,1.383,3.77,1.08,2.78,1.42,5.78,2.021,8.686a46.151,46.151,0,0,0-3.2-10.167,8.264,8.264,0,0,0-1.29-1.867A1.05,1.05,0,0,1,541.465,150.253Z" transform="translate(-526.92 -146.852)" fill="#ac6f00"/>
        <path id="패스_2055" data-name="패스 2055" d="M582.141,259.456a18.807,18.807,0,0,1,.871,2.9c-.516-.247-.882-2.222-.973-2.856C582.111,259.451,582.09,259.585,582.141,259.456Z" transform="translate(-561.031 -238.313)" fill="#ac6e00"/>
        <path id="패스_2056" data-name="패스 2056" d="M571.445,271.135c.344-.019.954-.017.994-.467,0,.163.295.581.069.626a2.969,2.969,0,0,1-1.062-.139C571.446,271.148,571.445,271.142,571.445,271.135Z" transform="translate(-552.159 -247.703)" fill="#995400"/>
        <path id="패스_2057" data-name="패스 2057" d="M585.6,282.767l-.331-.157c.074-.01.134-.034.106-.13a1.69,1.69,0,0,0,.747.368c-.064.028.006.055,0,.083C585.942,282.895,585.774,282.82,585.6,282.767Z" transform="translate(-563.736 -257.595)" fill="#c17c05"/>
        <path id="패스_2058" data-name="패스 2058" d="M581.519,255.489c.012.128-.068.029-.1.041a5.227,5.227,0,0,1-.121-.811Z" transform="translate(-560.409 -234.346)" fill="#bd7600"/>
        <path id="패스_2059" data-name="패스 2059" d="M587.148,277.153a.254.254,0,0,1,.143.02l.142.648A2.714,2.714,0,0,1,587.148,277.153Z" transform="translate(-565.31 -253.133)" fill="#be7700"/>
        <path id="패스_2060" data-name="패스 2060" d="M625.618,158.9c-.5-.068-.875.346-1.371.364-.685.121-1.549-.036-1.668-.851a2.535,2.535,0,0,1-.142-.932c.171-3.246.039-6.546.405-9.762a12.632,12.632,0,0,1,.982-3.464,22.723,22.723,0,0,1,1.154-3.3c.072-.123-.146-.2-.111-.355.094-1.085.637-1.672.05-2.787-.057-.9,1.865.755,2.148.934a5.8,5.8,0,0,0,1.814.548c.949.357-.617.127-.863.1-.474.126-.985-.044-1.462.15-.235.062-.877.732-.614.947.164.139.382.078.57.147.176.1.216-.1.364-.139,5.326.052,4.1,3.462,2.8,7.106a13.046,13.046,0,0,0-.589,2.217c-.008.1-.074.317-.157.129-.537-1.239-.875-2.552-1.471-3.761a9.721,9.721,0,0,0-2.052-1.981c-1.072-.5-.95.6-1.08,1.342-.092.906-.3,1.8-.383,2.7a27.744,27.744,0,0,0-.324,3.724c-.005,1.184.961.8,1.722.649,1.105.066.995,1.829,1.852,2.422.33.358.442.862.788,1.206a1.415,1.415,0,0,1-.526.787c-.568.732-3.163.848-3.073,1.667C624.65,159.023,625.323,158.719,625.618,158.9Z" transform="translate(-594.863 -136.217)" fill="#995400"/>
        <path id="패스_2061" data-name="패스 2061" d="M589.5,152.492c.136-1.5.456-2.985.584-4.491.062-1.394.129-2.787.327-4.171.2-2.124,1.291-4.1,1.212-6.271.028-1.138-.131-1.569-1.277-1.919-1.137-.947,2.092-.667,2.486-.486.413.027,1.02.64,1.331.2.048,0,.06.055.1.066.549,1-.751,1.906-.8,2.892a33.639,33.639,0,0,0-.818,6.126,38.121,38.121,0,0,0-.59,7.084,42.492,42.492,0,0,0,.221,5.29,2.49,2.49,0,0,1-.273,1.953,3.3,3.3,0,0,1-3.061,1.155c-.965-.249-1.071-1.375-1.341-2.182h0a.1.1,0,0,1-.006-.079,1.236,1.236,0,0,0,1.484.665,4.973,4.973,0,0,0,2.23-1.193c.641-.747.232-1.689-.066-2.489C590.773,153.826,590.956,151.162,589.5,152.492Z" transform="translate(-565.679 -134.062)" fill="#7e4500"/>
        <path id="패스_2062" data-name="패스 2062" d="M614.975,235.551c-.024-2.734-.467-5.5-.2-8.245.043.059.018.138.123.12.392-.048.174.479.241.71,0,2.088.026,4.171.021,6.259-.1.021-.063-.122-.1-.178A2.237,2.237,0,0,1,614.975,235.551Z" transform="translate(-588.373 -211.389)" fill="#ac6f00"/>
        <path id="패스_2063" data-name="패스 2063" d="M622.829,161.752c.178-.061.068.888.024,1-.123,1.464-.608,2.925-.867,4.4A17.191,17.191,0,0,1,622.829,161.752Z" transform="translate(-594.485 -156.487)" fill="#ac6d00"/>
        <path id="패스_2064" data-name="패스 2064" d="M615.513,166.673c-.246-.159-.384.127-.345-.3a26.345,26.345,0,0,1,.539-5.357,32.026,32.026,0,0,1,.859-6.35c.179.276.117.691.2,1.012a16.491,16.491,0,0,0-1.013,5.206c-.024.031,0,.071-.019.1-.119,1.435-.424,2.882-.478,4.316-.019.347.021.722.019,1.082C615.271,166.543,615.536,166.474,615.513,166.673Z" transform="translate(-588.77 -150.552)" fill="#bf7800"/>
        <path id="패스_2065" data-name="패스 2065" d="M615.739,199.65c-.1-.264-.26-.082-.263-.211-.024-.361.013-.728-.042-1.079-.019-.088.077-.126.062-.212a1.183,1.183,0,0,0-.005-.312c-.05-.175.091-.34,0-.5a1.267,1.267,0,0,0,.05-.453,14.626,14.626,0,0,0,.25-1.786c-.013-.021.012-.052.03-.071.125-.094-.07-.152.047-.25.031-.036.051-.066.015-.115s-.007-.091.006-.125c.07-.16.013-.344.077-.5-.169,2.075-.226,4.156-.2,6.237A3.613,3.613,0,0,1,615.739,199.65Z" transform="translate(-588.996 -183.53)" fill="#bf7800"/>
        <path id="패스_2066" data-name="패스 2066" d="M623.464,199.709c-.262,1.854-.074,3.741-.282,5.59a50.169,50.169,0,0,1,.16-5.469c0,.01.007.016.013.022l.1-.228C623.473,199.653,623.458,199.682,623.464,199.709Z" transform="translate(-595.485 -188.206)" fill="#bf7800"/>
        <path id="패스_2067" data-name="패스 2067" d="M622.23,260.2c0,.248.259,1.035.049,1.1l-.048-.186c-.044.054,0,.117-.042.157Q622.21,260.742,622.23,260.2Z" transform="translate(-594.656 -238.94)" fill="#be7701"/>
        <path id="패스_2068" data-name="패스 2068" d="M633.651,156.458c.182-.4.517-.541.2.021-.021-.078.1-.171.013-.23C633.765,156.24,633.735,156.409,633.651,156.458Z" transform="translate(-604.254 -151.761)" fill="#c07c25"/>
        <path id="패스_2069" data-name="패스 2069" d="M616.987,270.417l-.066-.655c.07.053.019.157.1.189A2.144,2.144,0,0,1,616.987,270.417Z" transform="translate(-590.244 -246.944)" fill="#be7801"/>
        <path id="패스_2070" data-name="패스 2070" d="M634.025,143.44c.146-.321.362-.211.143.081C634.239,143.294,634.187,143.289,634.025,143.44Z" transform="translate(-604.567 -140.991)" fill="#c07d26"/>
        <path id="패스_2071" data-name="패스 2071" d="M634.588,158.4a.265.265,0,0,1-.061.162A.255.255,0,0,1,634.588,158.4Z" transform="translate(-604.988 -153.684)" fill="#c07c25"/>
        <path id="패스_2072" data-name="패스 2072" d="M634.59,144.945a.215.215,0,0,1-.061.142A.2.2,0,0,1,634.59,144.945Z" transform="translate(-604.99 -142.415)" fill="#c07d26"/>
        <path id="패스_2073" data-name="패스 2073" d="M626.706,162.5a.11.11,0,0,1-.041.1A.13.13,0,0,1,626.706,162.5Z" transform="translate(-598.404 -157.12)" fill="#ac6f00"/>
        <path id="패스_2074" data-name="패스 2074" d="M618.691,193.022c0-.034-.014-.073.019-.1C618.707,192.955,618.723,192.993,618.691,193.022Z" transform="translate(-591.725 -182.592)" fill="#bf7800"/>
        <path id="패스_2075" data-name="패스 2075" d="M729.9,230.005a.146.146,0,0,1,.1-.082A.14.14,0,0,1,729.9,230.005Z" transform="translate(-684.856 -213.581)" fill="#ac6e00"/>
        <path id="패스_2076" data-name="패스 2076" d="M629.187,139.175a1.42,1.42,0,0,0-.02-.587c.085.039.124.214.228.112C629.594,138.662,629.184,139.078,629.187,139.175Z" transform="translate(-600.499 -137.091)" fill="#9b5700"/>
        <path id="패스_2077" data-name="패스 2077" d="M662.4,148.47a1.527,1.527,0,0,1-.324-.162c.106.031.708-.05.481.153.027.018.068,0,.086.029A.2.2,0,0,1,662.4,148.47Z" transform="translate(-628.06 -145.231)" fill="#a05a00"/>
        <path id="패스_2078" data-name="패스 2078" d="M717.807,251.585c.715.117.151,1.014-.311,1.108-.636.22-2.951.724-2.381-.6.531-.757,1.516-.372,2.255-.551a.133.133,0,0,1,.2.011C717.635,251.608,717.731,251.55,717.807,251.585Z" transform="translate(-672.403 -231.657)" fill="#5b2d12"/>
        <path id="패스_2079" data-name="패스 2079" d="M708,255.41c-.454-.014-.535-.442-.183-.69A.628.628,0,0,0,708,255.41Z" transform="translate(-666.181 -234.347)" fill="#995400"/>
        <path id="패스_2080" data-name="패스 2080" d="M729.42,251.266c-.108-.012-.225.035-.323-.055-.064-.033-.132.07-.2.055.455-.294.158-.032.414-.019C729.345,251.248,729.387,251.232,729.42,251.266Z" transform="translate(-684.016 -231.338)" fill="#64330e"/>
        <path id="패스_2081" data-name="패스 2081" d="M459.248,238.426c.008-.161-.047-.325.161-.181.069.1.2.124.264.222A.587.587,0,0,0,459.248,238.426Z" transform="translate(-458.198 -220.503)" fill="#bf7800"/>
        <path id="패스_2082" data-name="패스 2082" d="M675.745,225.565a17.329,17.329,0,0,1-1.2,3.807,3.489,3.489,0,0,1,.588-2.639C675.374,226.362,675.333,225.8,675.745,225.565Z" transform="translate(-638.466 -209.931)" fill="#7e4400"/>
        <path id="패스_2083" data-name="패스 2083" d="M654.405,262.1c.27.3.449-.468.728-.528-.007.049.045.033.075.059a2.943,2.943,0,0,1-2.825,1.133,7.02,7.02,0,0,0,.785-.179c.019-.062.079-.037.119-.057a2.166,2.166,0,0,0,.74-.255C654.153,262.26,654.335,261.967,654.405,262.1Z" transform="translate(-619.942 -240.082)" fill="#bf7900"/>
        <path id="패스_2084" data-name="패스 2084" d="M681.312,199.785a.366.366,0,0,1-.162.122,16.974,16.974,0,0,0,.851-3.463,5.057,5.057,0,0,1,.505-1.662C682.166,196.46,681.757,198.129,681.312,199.785Z" transform="translate(-644.033 -184.151)" fill="#995400"/>
        <path id="패스_2085" data-name="패스 2085" d="M685.27,196.9c-.1.44-.254.871-.345,1.317a.752.752,0,0,0-.283.162C684.859,197.9,685.024,197.375,685.27,196.9Z" transform="translate(-646.957 -185.929)" fill="#bf7800"/>
        <path id="패스_2086" data-name="패스 2086" d="M637.91,168.1c-.032.041-.09,0-.122.039a8.835,8.835,0,0,1-2.472.184c-.34-.061-.715.011-1.065-.043-.658-.249.25-.745.556-.842,1.042-.353,2.458-.561,2.859-1.748.761.353.971-1.743,1.095-2.253a11.014,11.014,0,0,0-.082-4.005c.328-2.449,3.062-6.666,1.047-8.671-.349-.442-.893-.445-1.4-.538a4.05,4.05,0,0,0-1.7-.271c-.162-.036-.2.259-.381.155-.191-.082-.4-.024-.585-.132-.387-.215.221-.788.434-.961.467-.3,1.033-.085,1.53-.217.492-.009,1.013.139,1.516.1a23.486,23.486,0,0,1,4.133.892h0c2.728,1.776.026,3.162-.961,4.893-.354.58-.732,1.145-1.073,1.732a10.227,10.227,0,0,0-.775,2.9c-.391,1.426-.485,2.92-.942,4.33C639.048,164.812,639.156,167.625,637.91,168.1Z" transform="translate(-604.561 -145.64)" fill="#7f4400"/>
        <path id="패스_2087" data-name="패스 2087" d="M690.265,154.6a.216.216,0,0,1-.142-.061A.2.2,0,0,1,690.265,154.6Z" transform="translate(-651.547 -150.45)" fill="#ac6e00"/>
        <path id="패스_2088" data-name="패스 2088" d="M665.709,149.441c-.047-.007-.1.018-.142-.02C665.615,149.427,665.666,149.4,665.709,149.441Z" transform="translate(-630.983 -146.161)" fill="#a05a00"/>
        <path id="패스_2089" data-name="패스 2089" d="M536.037,258.343a3.049,3.049,0,0,0,1.722,1.115,3.494,3.494,0,0,1-.872-.224C536.589,258.988,536.142,258.714,536.037,258.343Z" transform="translate(-522.506 -237.381)" fill="#995400"/>
        <path id="패스_2090" data-name="패스 2090" d="M571.306,273.663a1.623,1.623,0,0,1,.3.061c0,.034.03.062.012.107C571.569,273.815,571.171,273.679,571.306,273.663Z" transform="translate(-552.019 -250.211)" fill="#bb7500"/>
        <path id="패스_2091" data-name="패스 2091" d="M663.508,235.674a40.666,40.666,0,0,1,1.013-4.253c-.322,1.726.006,3.663-.993,5.185h0c-.014.018-.028.04-.052.012a2.465,2.465,0,0,1-.045-.5c.076-.048.04.047.08.058.089-.165.219-.307.319-.489A1.022,1.022,0,0,1,663.508,235.674Z" transform="translate(-629.187 -214.835)" fill="#ac6e00"/>
        <path id="패스_2092" data-name="패스 2092" d="M676.531,184.245a14.6,14.6,0,0,1,3.283-6.279,22.19,22.19,0,0,0-2.087,3.8,16.728,16.728,0,0,0-1.112,2.359C676.6,184.17,676.6,184.235,676.531,184.245Z" transform="translate(-640.165 -170.069)" fill="#ac6e00"/>
        <path id="패스_2093" data-name="패스 2093" d="M675.526,205.952a7.61,7.61,0,0,1,1.016-2.066c-.44.978-.825,1.975-1.211,2.975A4.494,4.494,0,0,1,675.526,205.952Z" transform="translate(-639.16 -191.776)" fill="#bf7800"/>
        <path id="패스_2094" data-name="패스 2094" d="M663.01,263.342l.04-.021c.025.079-.1.085-.062.149.055.084.195-.053.184.094l-.041-.04C662.942,263.712,662.678,263.332,663.01,263.342Z" transform="translate(-628.709 -241.55)" fill="#c17c2a"/>
        <path id="패스_2095" data-name="패스 2095" d="M664.069,262.9a.1.1,0,0,1,.061-.081A.094.094,0,0,1,664.069,262.9Z" transform="translate(-629.728 -241.134)" fill="#c17c2a"/>
        <path id="패스_2096" data-name="패스 2096" d="M696.688,161.212a1.9,1.9,0,0,0-.2-1.317A1,1,0,0,1,696.688,161.212Z" transform="translate(-656.875 -154.935)" fill="#995400"/>
        <path id="패스_2097" data-name="패스 2097" d="M577.615,184.185c1.444-1.443,1.338,1.47,1.807,2.261.628,1.242.455,2.567-.963,3.105-2.315,1.148-2.875.407-3.054-1.96-.272-1.954-.48-3.923-.851-5.858-.024-.031,0-.071-.02-.1,0-.007,0-.013,0-.02-.361-1.711-.648-3.448-.9-5.185a9.494,9.494,0,0,1-.122-3.305c.6-1.52,1.253,3.081,1.369,3.437q.662,3.314,1.255,6.642c.058.335.336,2.237.8,1.81C577.164,184.735,577.376,184.449,577.615,184.185Z" transform="translate(-553.79 -165.755)" fill="#5b2d12"/>
        <path id="패스_2098" data-name="패스 2098" d="M573.527,172.85c-.692-.494-.515,1.57-.488,1.9L573,174.7c0,.1.035.83-.089.5C572.849,174.878,572.882,172.123,573.527,172.85Z" transform="translate(-553.368 -165.682)" fill="#673410"/>
        <path id="패스_2099" data-name="패스 2099" d="M580.419,227.06c.032.029.016.067.02.1C580.405,227.133,580.423,227.094,580.419,227.06Z" transform="translate(-559.674 -211.183)" fill="#7e4400"/>
        <path id="패스_2100" data-name="패스 2100" d="M580.294,226.313c.033.029.016.067.02.1C580.281,226.386,580.3,226.347,580.294,226.313Z" transform="translate(-559.569 -210.557)" fill="#7e4400"/>
        <path id="패스_2101" data-name="패스 2101" d="M551.641,177.7c.7,2.07,1.079,4.239,1.6,6.361.1.64,1.123,2.852.31,3.108-.256,0-.4.273-.665.15-.039-.01-.068-.029-.1.018-.189.25-.43.216-.657.03-.966-.907.094-2.289-.062-3.4-.129-2.459-1.2-4.726-1.493-7.158.026-.549-.49-1.931-.188-2.249.182-.1.35-.075.385.159A15.778,15.778,0,0,0,551.641,177.7Z" transform="translate(-534.442 -167.172)" fill="#5b2d12"/>
        <path id="패스_2102" data-name="패스 2102" d="M525.639,209.693c.648.645,1.512,1.45,1.324,2.454-.165.456-.214,1.393-.909,1.175-1.174-.808-1.374-2.871-2.073-4.094a18.008,18.008,0,0,1-1.5-4.6c-.019-.214-.747-1.372-.326-1.273.951.935,1.085,2.288,1.549,3.474A6.806,6.806,0,0,0,525.639,209.693Z" transform="translate(-510.771 -191.323)" fill="#5b2d12"/>
        <path id="패스_2103" data-name="패스 2103" d="M516.16,214.914c-.15-.055-.173.138-.162.263-.076-.159.088-.219-.1-.4-.022-.03-.059-.058-.018-.093C515.993,214.661,516.069,214.852,516.16,214.914Z" transform="translate(-505.606 -200.819)" fill="#874900"/>
        <path id="패스_2104" data-name="패스 2104" d="M522.129,203.3c-.225-.235-.317-.146-.225.143C521.682,203.144,521.965,202.957,522.129,203.3Z" transform="translate(-510.602 -191.131)" fill="#69350f"/>
        <path id="패스_2105" data-name="패스 2105" d="M474.135,225.3c.156.181.317.356.458.548.385.417.056,1.222-.529,1.077a7.042,7.042,0,0,1-1.8-.914c-1.092-1.048-1.676-2.486-2.67-3.62-.5-.238-2.139-2.062-.827-2.076.742.155,1.292.76,2.02.939.885.286,1.252,1.243,1.715,1.966A12.091,12.091,0,0,0,474.135,225.3Z" transform="translate(-465.749 -205.533)" fill="#5b2d12"/>
        <path id="패스_2106" data-name="패스 2106" d="M501.515,210.051a4.277,4.277,0,0,0-.63-.486,7.449,7.449,0,0,1-2-2.774,16.679,16.679,0,0,0-2.411-5.246h0c-.372-.381-.656-1.058.1-.386a9.107,9.107,0,0,1,2.47,4.289,8.007,8.007,0,0,0,1.094,2.376c.46.749,1.118,1.339,1.6,2.065C501.923,210.161,501.742,210.317,501.515,210.051Z" transform="translate(-489.056 -189.253)" fill="#5b2d12"/>
        <path id="패스_2107" data-name="패스 2107" d="M496.2,200.991c-.151-.09-.63-.531-.408-.039a.011.011,0,0,1-.02,0C495.383,200.444,496.057,200.736,496.2,200.991Z" transform="translate(-488.687 -189.085)" fill="#6d3a18"/>
        <path id="패스_2108" data-name="패스 2108" d="M496.4,202.388h.02c.091.149.226.267.305.425A1.7,1.7,0,0,1,496.4,202.388Z" transform="translate(-489.311 -190.521)" fill="#96571a"/>
        <path id="패스_2109" data-name="패스 2109" d="M498.4,205a.1.1,0,0,1,.06.082A.1.1,0,0,1,498.4,205Z" transform="translate(-490.986 -192.709)" fill="#96571a"/>
        <path id="패스_2110" data-name="패스 2110" d="M521.887,256.735a2.985,2.985,0,0,1-1.174.709c.37-.245.9-.5.992-.972Z" transform="translate(-509.673 -235.813)" fill="#995400"/>
        <path id="패스_2111" data-name="패스 2111" d="M525.517,254.344l.079.063c-.027,0-.038.015-.039.04C525.541,254.413,525.483,254.4,525.517,254.344Z" transform="translate(-513.688 -234.032)" fill="#aa6a28"/>
        <path id="패스_2112" data-name="패스 2112" d="M529.208,248.857a7.082,7.082,0,0,0,.95,1.5c-.02.02-.013.067-.059.06a5.7,5.7,0,0,1-1.033-1.478C529.094,248.881,529.17,248.9,529.208,248.857Z" transform="translate(-516.668 -229.437)" fill="#ac6d00"/>
        <path id="패스_2113" data-name="패스 2113" d="M527.323,244.485c.011.091-.093.045-.143.083a4.942,4.942,0,0,1-.366-.931C526.987,243.917,527.174,244.189,527.323,244.485Z" transform="translate(-514.783 -225.065)" fill="#bf7800"/>
        <path id="패스_2114" data-name="패스 2114" d="M529.443,256.5c.053,0,.074.054.111.082.232.147.178-.114.112-.244C529.918,256.61,529.641,256.822,529.443,256.5Z" transform="translate(-516.984 -235.7)" fill="#834c1f"/>
        <path id="패스_2115" data-name="패스 2115" d="M535.423,258.15c.026-.014.016-.064.059-.06l.041.041c.019.092.1.152.122.243A1.417,1.417,0,0,1,535.423,258.15Z" transform="translate(-521.992 -237.169)" fill="#bd7602"/>
        <path id="패스_2116" data-name="패스 2116" d="M458.5,242.613c.057.148.046.3.155.429.026-.189-.031-.36-.012-.531.059.267.052.548.126.816.005.024.031.054-.007.068C458.57,243.234,458.541,242.865,458.5,242.613Z" transform="translate(-457.573 -224.122)" fill="#bf7c24"/>
        <path id="패스_2117" data-name="패스 2117" d="M587.4,273.91a.262.262,0,0,1,.04.183A.31.31,0,0,1,587.4,273.91Z" transform="translate(-565.523 -250.418)" fill="#995400"/>
        <path id="패스_2118" data-name="패스 2118" d="M635.015,183.524c.49.694.255,6.894-1.013,6.258-.329-.271-.423-.713-.675-1.046a6.378,6.378,0,0,1-1.235-2.107c-.448-.995-1.447.039-2.149-.348-.869-.341.395-7.331.633-8.461.438-.791,1.748.463,2.058.926C634.072,179.954,634.261,181.893,635.015,183.524Z" transform="translate(-600.898 -169.732)" fill="#5b2d12"/>
        <path id="패스_2119" data-name="패스 2119" d="M615.2,219.457c-.018.387.036.8-.02,1.175C615.194,220.244,615.143,219.834,615.2,219.457Z" transform="translate(-588.779 -204.816)" fill="#ac6f00"/>
        <path id="패스_2120" data-name="패스 2120" d="M615.325,215.843a2.289,2.289,0,0,1-.02.507A2.418,2.418,0,0,1,615.325,215.843Z" transform="translate(-588.887 -201.789)" fill="#ac6f00"/>
        <path id="패스_2121" data-name="패스 2121" d="M658.857,264.591a.32.32,0,0,0,.182-.02,1.81,1.81,0,0,1-1.073.486,2.655,2.655,0,0,0,.3-.156c.091-.062.138-.2.251-.213.105.031.213-.158.284-.046.01.02.019.051.048.04S658.841,264.621,658.857,264.591Z" transform="translate(-624.617 -242.597)" fill="#ac6c00"/>
        <path id="패스_2122" data-name="패스 2122" d="M661.253,259.788c.125.091-.062.218-.082.056,0-.025-.023-.041-.04-.02-.081.1-.2.072-.3.105a5.208,5.208,0,0,0,.446-1.094.2.2,0,0,1,0,.223c-.044.175.162.463-.016.573C661.13,259.564,661.161,259.759,661.253,259.788Z" transform="translate(-627.013 -237.793)" fill="#9a5400"/>
        <path id="패스_2123" data-name="패스 2123" d="M663.549,257.862a1.149,1.149,0,0,1,.06-.426c.1-.06.225.044.371-.03-.118.225-.263.4-.387.6C663.55,257.953,663.593,257.9,663.549,257.862Z" transform="translate(-629.289 -236.597)" fill="#bf7800"/>
      </g>
    </g>
  </g>
</svg>
