<svg xmlns="http://www.w3.org/2000/svg" width="38.901" height="72.952" viewBox="0 0 38.901 72.952">
  <g id="그룹_334" data-name="그룹 334" transform="translate(-34.321 -185.898)">
    <g id="그룹_333" data-name="그룹 333" transform="translate(34.321 185.898)">
      <g id="그룹_330" data-name="그룹 330" transform="translate(20.429)">
        <path id="패스_1877" data-name="패스 1877" d="M68.49,186.5h-.061a2.669,2.669,0,0,1-1.665-.6,1.492,1.492,0,0,0-.143.272L59.9,206.1a1.2,1.2,0,1,0,2.253.76l6.722-19.926a1.531,1.531,0,0,0,.082-.478A2.62,2.62,0,0,1,68.49,186.5Z" transform="translate(-59.813 -185.898)" fill="#3f2c26"/>
      </g>
      <g id="그룹_331" data-name="그룹 331" transform="translate(20.226 3.945)">
        <path id="패스_1878" data-name="패스 1878" d="M72.733,191.658a2.7,2.7,0,0,1-.871-.837,1.588,1.588,0,0,0-.365.387L59.827,208.7A1.2,1.2,0,1,0,61.8,210.02l11.671-17.492a1.589,1.589,0,0,0,.227-.534A2.709,2.709,0,0,1,72.733,191.658Z" transform="translate(-59.561 -190.821)" fill="#3f2c26"/>
      </g>
      <path id="패스_1879" data-name="패스 1879" d="M63.57,202.982a7.557,7.557,0,1,1-7.556-7.558A7.557,7.557,0,0,1,63.57,202.982Z" transform="translate(-37.129 -187.79)" fill="#f0e3d0"/>
      <g id="그룹_332" data-name="그룹 332" transform="translate(16.239 14.13)">
        <path id="패스_1880" data-name="패스 1880" d="M64.757,203.968a8.093,8.093,0,0,0-2.615-.438,8.306,8.306,0,0,0-7.187,4.438c.595,1.052-.37,1.607-.37,2.873,0,.544,1.8.717,1.683,1.229v.01a7.335,7.335,0,0,0,.964.069,7.557,7.557,0,0,0,7.556-7.557C64.787,204.381,64.774,204.174,64.757,203.968Z" transform="translate(-54.585 -203.53)" fill="#f0e3d0" style="mix-blend-mode: multiply;isolation: isolate"/>
      </g>
      <path id="패스_1881" data-name="패스 1881" d="M69.7,211.783a7.557,7.557,0,1,1-7.558-7.557A7.557,7.557,0,0,1,69.7,211.783Z" transform="translate(-38.346 -189.538)" fill="#f0e3d0"/>
      <path id="패스_1882" data-name="패스 1882" d="M48.626,202.874A7.542,7.542,0,0,0,53.54,211.6c.135.025.268.054.406.071a7.094,7.094,0,0,0,.184-1.6A7.74,7.74,0,0,0,48.626,202.874Z" transform="translate(-37.129 -189.27)" fill="#f0e3d0" style="mix-blend-mode: multiply;isolation: isolate"/>
      <path id="패스_1883" data-name="패스 1883" d="M51.074,210.483a7.557,7.557,0,1,1-7.556-7.557A7.557,7.557,0,0,1,51.074,210.483Z" transform="translate(-34.647 -189.28)" fill="#f0e3d0"/>
      <path id="패스_1884" data-name="패스 1884" d="M60.867,264.452a7.738,7.738,0,1,1-7.738-7.738A7.739,7.739,0,0,1,60.867,264.452Z" transform="translate(-36.52 -199.964)" fill="#ccc1ab"/>
      <path id="패스_1885" data-name="패스 1885" d="M60.173,274.368a7.74,7.74,0,0,0-13.631,0Z" transform="translate(-36.748 -202.662)" fill="#ccc1ab"/>
      <path id="패스_1886" data-name="패스 1886" d="M60.04,271.315H46.763a7.829,7.829,0,0,0,1.116,1.455H58.923A7.833,7.833,0,0,0,60.04,271.315Z" transform="translate(-36.792 -202.864)" fill="#ccc1ab" opacity="0.6" style="mix-blend-mode: multiply;isolation: isolate"/>
      <path id="패스_1887" data-name="패스 1887" d="M77.9,237.916c0-1.147-.573-2.077-1.28-2.077H72.787a13.743,13.743,0,0,0-3.233-.286c-.4,0-.809.006-1.222.01s-.829.014-1.246.014c-4.987,0-9.2,5.62-9.2,12.273,0,6.416,4.109,11.635,9.16,11.635,5.065,0,10.014-10.868,10.014-17.177a10.356,10.356,0,0,0-.248-2.345C77.429,239.812,77.9,238.958,77.9,237.916ZM67.047,255.329c-3.577,0-6.6-3.424-6.6-7.478,0-3.833,2.838-8.118,6.639-8.118.425,0,.849-.006,1.269-.012.4-.006.805-.01,1.2-.01,4.158,0,4.946.914,4.946,2.6C74.5,246.723,70.477,255.329,67.047,255.329Z" transform="translate(-39.002 -195.761)" fill="#ccc1ab"/>
      <path id="패스_1888" data-name="패스 1888" d="M67.518,212.653H34.343c0,.1-.022.2-.022.3l3.858,39.717a7.739,7.739,0,0,0,7.716,7.717h10.07a7.739,7.739,0,0,0,7.716-7.717l3.859-39.717C67.54,212.853,67.522,212.756,67.518,212.653Z" transform="translate(-34.321 -191.212)" fill="#cfc9be"/>
      <path id="패스_1889" data-name="패스 1889" d="M46.31,259.23a6.181,6.181,0,0,1-6.174-6.173v-.075l-3.731-38.4H66.284l-3.731,38.4v.075a6.18,6.18,0,0,1-6.173,6.173Z" transform="translate(-34.735 -191.595)" fill="#a25c02"/>
      <path id="패스_1890" data-name="패스 1890" d="M65.194,225.785l1.089-11.206H36.405l1.089,11.206Z" transform="translate(-34.735 -191.595)" fill="#f8edd6"/>
      <path id="패스_1891" data-name="패스 1891" d="M60.153,275.172H45.458a1.576,1.576,0,0,0-1.694,1.41H61.848A1.577,1.577,0,0,0,60.153,275.172Z" transform="translate(-36.197 -203.63)" fill="#ccc1ab"/>
      <path id="패스_1892" data-name="패스 1892" d="M45.34,204.67a.386.386,0,0,0,0,.772A.386.386,0,0,0,45.34,204.67Z" transform="translate(-36.435 -189.627)" fill="#3f2c26"/>
      <path id="패스_1893" data-name="패스 1893" d="M45.66,206.377a.386.386,0,0,0,0,.772A.386.386,0,0,0,45.66,206.377Z" transform="translate(-36.499 -189.966)" fill="#3f2c26"/>
      <path id="패스_1894" data-name="패스 1894" d="M49.076,205.844a.386.386,0,0,0,0,.772A.386.386,0,0,0,49.076,205.844Z" transform="translate(-37.178 -189.86)" fill="#3f2c26"/>
      <path id="패스_1895" data-name="패스 1895" d="M47.474,204.349a.386.386,0,0,0,0,.772A.386.386,0,0,0,47.474,204.349Z" transform="translate(-36.859 -189.563)" fill="#3f2c26"/>
      <path id="패스_1896" data-name="패스 1896" d="M47.192,206.845v.107a.386.386,0,0,0,.772,0v-.107A.386.386,0,0,0,47.192,206.845Z" transform="translate(-36.877 -189.984)" fill="#3f2c26"/>
      <path id="패스_1897" data-name="패스 1897" d="M43.337,205.951a.848.848,0,0,0-.537.138c-.392.3-.008.966.389.666a.113.113,0,0,1,.147-.032A.386.386,0,0,0,43.337,205.951Z" transform="translate(-35.973 -189.881)" fill="#3f2c26"/>
      <path id="패스_1898" data-name="패스 1898" d="M44.273,204.349a.386.386,0,0,0,0,.772A.386.386,0,0,0,44.273,204.349Z" transform="translate(-36.224 -189.563)" fill="#3f2c26"/>
      <path id="패스_1899" data-name="패스 1899" d="M46.087,202.428a.386.386,0,0,0,0,.772A.386.386,0,0,0,46.087,202.428Z" transform="translate(-36.584 -189.181)" fill="#3f2c26"/>
      <path id="패스_1900" data-name="패스 1900" d="M49.968,201.964v.085a.386.386,0,0,0,.772,0v-.085A.386.386,0,0,0,49.968,201.964Z" transform="translate(-37.429 -189.015)" fill="#3f2c26"/>
      <path id="패스_1901" data-name="패스 1901" d="M51.21,199.119a.386.386,0,0,0,0,.772A.386.386,0,0,0,51.21,199.119Z" transform="translate(-37.602 -188.524)" fill="#3f2c26"/>
      <path id="패스_1902" data-name="패스 1902" d="M52.149,197.906c-.2-.258-.708-.192-.688.216a.449.449,0,0,0,.471.471C52.34,198.615,52.407,198.107,52.149,197.906Z" transform="translate(-37.725 -188.253)" fill="#3f2c26"/>
      <path id="패스_1903" data-name="패스 1903" d="M52.919,199.439a.386.386,0,0,0,0,.772A.386.386,0,0,0,52.919,199.439Z" transform="translate(-37.941 -188.588)" fill="#3f2c26"/>
      <path id="패스_1904" data-name="패스 1904" d="M53.111,200.827h-.086a.386.386,0,0,0,0,.772h.086A.386.386,0,0,0,53.111,200.827Z" transform="translate(-37.962 -188.863)" fill="#3f2c26"/>
      <path id="패스_1905" data-name="패스 1905" d="M51.744,201.9a.386.386,0,0,0,0,.771A.386.386,0,0,0,51.744,201.9Z" transform="translate(-37.708 -189.075)" fill="#3f2c26"/>
      <path id="패스_1906" data-name="패스 1906" d="M51.21,205.31a.386.386,0,0,0,0,.772A.386.386,0,0,0,51.21,205.31Z" transform="translate(-37.602 -189.754)" fill="#3f2c26"/>
      <path id="패스_1907" data-name="패스 1907" d="M55.694,201.788a.386.386,0,0,0,0,.772A.386.386,0,0,0,55.694,201.788Z" transform="translate(-38.492 -189.054)" fill="#3f2c26"/>
      <path id="패스_1908" data-name="패스 1908" d="M53.917,205.806v.086a.386.386,0,0,0,.772,0v-.086A.386.386,0,0,0,53.917,205.806Z" transform="translate(-38.213 -189.778)" fill="#3f2c26"/>
      <path id="패스_1909" data-name="패스 1909" d="M52.384,207.765a.386.386,0,0,0,0,.772A.386.386,0,0,0,52.384,207.765Z" transform="translate(-37.835 -190.241)" fill="#3f2c26"/>
      <path id="패스_1910" data-name="패스 1910" d="M54.436,199.018l-.086.086a.386.386,0,0,0,.546.546l.087-.086A.386.386,0,0,0,54.436,199.018Z" transform="translate(-38.277 -188.481)" fill="#3f2c26"/>
      <path id="패스_1911" data-name="패스 1911" d="M53.784,196.99c-.39.118-.363.769.1.746a.626.626,0,0,0,.444-.2C54.684,197.2,54.143,196.655,53.784,196.99Z" transform="translate(-38.133 -188.08)" fill="#3f2c26"/>
      <path id="패스_1912" data-name="패스 1912" d="M55.885,195.49H55.8a.386.386,0,0,0,0,.772h.085A.386.386,0,0,0,55.885,195.49Z" transform="translate(-38.513 -187.803)" fill="#3f2c26"/>
      <path id="패스_1913" data-name="패스 1913" d="M57.166,197.945h-.085a.386.386,0,0,0,0,.772h.085A.386.386,0,0,0,57.166,197.945Z" transform="translate(-38.768 -188.291)" fill="#3f2c26"/>
      <path id="패스_1914" data-name="패스 1914" d="M59.515,198.9H59.43a.386.386,0,0,0,0,.772h.086A.386.386,0,0,0,59.515,198.9Z" transform="translate(-39.234 -188.482)" fill="#3f2c26"/>
      <path id="패스_1915" data-name="패스 1915" d="M60.689,198.372H60.6a.386.386,0,0,0,0,.772h.086A.386.386,0,0,0,60.689,198.372Z" transform="translate(-39.467 -188.376)" fill="#3f2c26"/>
      <path id="패스_1916" data-name="패스 1916" d="M60.475,196.344H60.39a.386.386,0,0,0,0,.772h.085A.386.386,0,0,0,60.475,196.344Z" transform="translate(-39.425 -187.973)" fill="#3f2c26"/>
      <path id="패스_1917" data-name="패스 1917" d="M57.227,200.682v.086a.386.386,0,0,0,.772,0v-.086A.386.386,0,0,0,57.227,200.682Z" transform="translate(-38.871 -188.76)" fill="#3f2c26"/>
      <path id="패스_1918" data-name="패스 1918" d="M58.042,202.321a.386.386,0,0,0,0,.772A.386.386,0,0,0,58.042,202.321Z" transform="translate(-38.958 -189.16)" fill="#3f2c26"/>
      <path id="패스_1919" data-name="패스 1919" d="M57.081,203.282a.386.386,0,0,0,0,.772A.386.386,0,0,0,57.081,203.282Z" transform="translate(-38.768 -189.351)" fill="#3f2c26"/>
      <path id="패스_1920" data-name="패스 1920" d="M56.334,203.815a.386.386,0,0,0,0,.772A.386.386,0,0,0,56.334,203.815Z" transform="translate(-38.619 -189.457)" fill="#3f2c26"/>
      <path id="패스_1921" data-name="패스 1921" d="M61.329,201.788h-.085a.386.386,0,0,0,0,.772h.085A.386.386,0,0,0,61.329,201.788Z" transform="translate(-39.594 -189.054)" fill="#3f2c26"/>
      <path id="패스_1922" data-name="패스 1922" d="M60.369,201.148h-.086a.386.386,0,0,0,0,.771h.086A.386.386,0,0,0,60.369,201.148Z" transform="translate(-39.404 -188.927)" fill="#3f2c26"/>
      <path id="패스_1923" data-name="패스 1923" d="M61.009,198.9h-.086a.386.386,0,0,0,0,.772h.086A.386.386,0,0,0,61.009,198.9Z" transform="translate(-39.531 -188.482)" fill="#3f2c26"/>
      <path id="패스_1924" data-name="패스 1924" d="M58.448,204.67h-.086a.386.386,0,0,0,0,.772h.086A.386.386,0,0,0,58.448,204.67Z" transform="translate(-39.022 -189.627)" fill="#3f2c26"/>
      <path id="패스_1925" data-name="패스 1925" d="M58.981,206.911H58.9a.386.386,0,0,0,0,.772h.085A.386.386,0,0,0,58.981,206.911Z" transform="translate(-39.128 -190.072)" fill="#3f2c26"/>
      <path id="패스_1926" data-name="패스 1926" d="M59.228,207.242c-.195-.381-.848-.182-.709.268a.606.606,0,0,0,.441.441C59.411,208.09,59.609,207.438,59.228,207.242Z" transform="translate(-39.124 -190.098)" fill="#3f2c26"/>
      <path id="패스_1927" data-name="패스 1927" d="M61.389,206.233v.086a.386.386,0,0,0,.772,0v-.086A.386.386,0,0,0,61.389,206.233Z" transform="translate(-39.697 -189.863)" fill="#3f2c26"/>
      <path id="패스_1928" data-name="패스 1928" d="M61.65,205.523h-.086a.386.386,0,0,0,0,.772h.086A.386.386,0,0,0,61.65,205.523Z" transform="translate(-39.658 -189.796)" fill="#3f2c26"/>
      <path id="패스_1929" data-name="패스 1929" d="M64.019,203.922a.386.386,0,0,0,0,.772A.386.386,0,0,0,64.019,203.922Z" transform="translate(-40.146 -189.478)" fill="#3f2c26"/>
      <path id="패스_1930" data-name="패스 1930" d="M63.524,199.4v.086a.386.386,0,0,0,.772,0V199.4A.386.386,0,0,0,63.524,199.4Z" transform="translate(-40.121 -188.506)" fill="#3f2c26"/>
      <path id="패스_1931" data-name="패스 1931" d="M61.682,198.91c-.389.118-.364.77.1.747a.628.628,0,0,0,.445-.2C62.583,199.118,62.043,198.577,61.682,198.91Z" transform="translate(-39.701 -188.462)" fill="#3f2c26"/>
      <path id="패스_1932" data-name="패스 1932" d="M64.425,200.934H64.34a.386.386,0,0,0,0,.771h.085A.386.386,0,0,0,64.425,200.934Z" transform="translate(-40.209 -188.885)" fill="#3f2c26"/>
      <path id="패스_1933" data-name="패스 1933" d="M64.794,201.268c-.141-.4-.8-.2-.72.263a.531.531,0,0,0,.249.387.389.389,0,0,0,.567-.231c0-.023.009-.047.012-.071A.373.373,0,0,0,64.794,201.268Z" transform="translate(-40.229 -188.908)" fill="#3f2c26"/>
      <path id="패스_1934" data-name="패스 1934" d="M62.632,200.614a.386.386,0,0,0,0,.772A.386.386,0,0,0,62.632,200.614Z" transform="translate(-39.87 -188.821)" fill="#3f2c26"/>
      <path id="패스_1935" data-name="패스 1935" d="M48.793,204.312v.085a.386.386,0,0,0,.772,0v-.085A.386.386,0,0,0,48.793,204.312Z" transform="translate(-37.195 -189.481)" fill="#3f2c26"/>
      <path id="패스_1936" data-name="패스 1936" d="M50.442,200.934h-.085a.386.386,0,0,0,0,.771h.085A.386.386,0,0,0,50.442,200.934Z" transform="translate(-37.432 -188.885)" fill="#3f2c26"/>
      <path id="패스_1937" data-name="패스 1937" d="M57.416,197.037a.772.772,0,0,0,0,1.543A.772.772,0,0,0,57.416,197.037Z" transform="translate(-38.76 -188.111)" fill="#3f2c26"/>
      <path id="패스_1938" data-name="패스 1938" d="M47.352,204.646v.086a.772.772,0,0,0,1.543,0v-.086A.772.772,0,0,0,47.352,204.646Z" transform="translate(-36.909 -189.474)" fill="#3f2c26"/>
      <path id="패스_1939" data-name="패스 1939" d="M51.653,200.879h-.108a.772.772,0,0,0,0,1.543h.108A.772.772,0,0,0,51.653,200.879Z" transform="translate(-37.594 -188.874)" fill="#3f2c26"/>
      <path id="패스_1940" data-name="패스 1940" d="M50.447,198.882v.085a.772.772,0,0,0,1.543,0v-.085A.772.772,0,0,0,50.447,198.882Z" transform="translate(-37.524 -188.329)" fill="#3f2c26"/>
      <path id="패스_1941" data-name="패스 1941" d="M53.96,201.743a1.026,1.026,0,0,0-.312.716c-.045.9,1.2.974,1.48.253C55.6,202,54.61,201.059,53.96,201.743Z" transform="translate(-38.16 -188.998)" fill="#3f2c26"/>
      <path id="패스_1942" data-name="패스 1942" d="M53.3,203.654H53.04a.772.772,0,0,0,0,1.543H53.3A.772.772,0,0,0,53.3,203.654Z" transform="translate(-37.891 -189.425)" fill="#3f2c26"/>
      <path id="패스_1943" data-name="패스 1943" d="M56.349,203.441a.772.772,0,0,0,0,1.543A.772.772,0,0,0,56.349,203.441Z" transform="translate(-38.548 -189.382)" fill="#3f2c26"/>
      <path id="패스_1944" data-name="패스 1944" d="M57.2,200.879H57.1a.772.772,0,0,0,0,1.543H57.2A.772.772,0,0,0,57.2,200.879Z" transform="translate(-38.696 -188.874)" fill="#3f2c26"/>
      <path id="패스_1945" data-name="패스 1945" d="M58.035,198.531H57.95a.772.772,0,0,0,0,1.543h.085A.772.772,0,0,0,58.035,198.531Z" transform="translate(-38.866 -188.407)" fill="#3f2c26"/>
      <path id="패스_1946" data-name="패스 1946" d="M61.122,201.124v.085a.772.772,0,0,0,1.543,0v-.085A.772.772,0,0,0,61.122,201.124Z" transform="translate(-39.644 -188.774)" fill="#3f2c26"/>
      <path id="패스_1947" data-name="패스 1947" d="M60.042,202.373h-.171a.772.772,0,0,0,0,1.543h.171A.772.772,0,0,0,60.042,202.373Z" transform="translate(-39.248 -189.17)" fill="#3f2c26"/>
      <path id="패스_1948" data-name="패스 1948" d="M61.029,205.887l-.086-.086a.772.772,0,0,0-1.091,1.091l.086.085A.772.772,0,0,0,61.029,205.887Z" transform="translate(-39.347 -189.806)" fill="#3f2c26"/>
      <path id="패스_1949" data-name="패스 1949" d="M64.522,205.675c-.281-.72-1.525-.645-1.48.253a1.027,1.027,0,0,0,.312.716C64,207.329,65,206.39,64.522,205.675Z" transform="translate(-40.025 -189.73)" fill="#3f2c26"/>
      <path id="패스_1950" data-name="패스 1950" d="M63.47,206.994v.086a.772.772,0,0,0,1.543,0v-.086A.772.772,0,0,0,63.47,206.994Z" transform="translate(-40.111 -189.94)" fill="#3f2c26"/>
      <path id="패스_1951" data-name="패스 1951" d="M66.7,203.868a.772.772,0,0,0,0,1.543A.772.772,0,0,0,66.7,203.868Z" transform="translate(-40.604 -189.467)" fill="#3f2c26"/>
      <path id="패스_1952" data-name="패스 1952" d="M61.9,197.677a.772.772,0,0,0,0,1.543A.772.772,0,0,0,61.9,197.677Z" transform="translate(-39.65 -188.238)" fill="#3f2c26"/>
      <path id="패스_1953" data-name="패스 1953" d="M59.871,195.329a.772.772,0,0,0,0,1.543A.772.772,0,0,0,59.871,195.329Z" transform="translate(-39.248 -187.771)" fill="#3f2c26"/>
      <path id="패스_1954" data-name="패스 1954" d="M55.388,195.222a.772.772,0,0,0,0,1.543A.772.772,0,0,0,55.388,195.222Z" transform="translate(-38.357 -187.75)" fill="#3f2c26"/>
      <path id="패스_1955" data-name="패스 1955" d="M44.266,202.907h-.085a.772.772,0,0,0,0,1.543h.085A.772.772,0,0,0,44.266,202.907Z" transform="translate(-36.131 -189.276)" fill="#3f2c26"/>
      <path id="패스_1956" data-name="패스 1956" d="M42.23,201.84a.839.839,0,0,0-.857.857.785.785,0,1,0,.857-.857Z" transform="translate(-35.722 -189.064)" fill="#3f2c26"/>
      <path id="패스_1957" data-name="패스 1957" d="M41.759,204.711a.625.625,0,0,0-.291-.131.8.8,0,0,0-.95.539.825.825,0,0,0,.021.548.785.785,0,0,0,.95.539.765.765,0,0,0,.334-.215.752.752,0,0,0,.212-.224A.791.791,0,0,0,41.759,204.711Z" transform="translate(-35.545 -189.606)" fill="#3f2c26"/>
      <path id="패스_1958" data-name="패스 1958" d="M45.249,206h-.108a.772.772,0,0,0,0,1.543h.108A.772.772,0,0,0,45.249,206Z" transform="translate(-36.322 -189.891)" fill="#3f2c26"/>
      <path id="패스_1959" data-name="패스 1959" d="M44.8,207.39h-.086a.772.772,0,0,0,0,1.543H44.8A.772.772,0,0,0,44.8,207.39Z" transform="translate(-36.237 -190.167)" fill="#3f2c26"/>
      <path id="패스_1960" data-name="패스 1960" d="M49.5,207.168c-.029-.03-.058-.058-.087-.086a.772.772,0,0,0-1.091,1.091l.086.085A.772.772,0,0,0,49.5,207.168Z" transform="translate(-37.057 -190.061)" fill="#3f2c26"/>
      <path id="패스_1961" data-name="패스 1961" d="M52.058,206.643h-.086a.772.772,0,0,0,0,1.543h.086A.772.772,0,0,0,52.058,206.643Z" transform="translate(-37.679 -190.018)" fill="#3f2c26"/>
      <path id="패스_1962" data-name="패스 1962" d="M39.475,206.109h-.118a.772.772,0,0,0,0,1.543h.118A.772.772,0,0,0,39.475,206.109Z" transform="translate(-35.173 -189.912)" fill="#3f2c26"/>
      <path id="패스_1963" data-name="패스 1963" d="M63.373,196.93h-.087a.772.772,0,0,0,0,1.543h.087A.772.772,0,0,0,63.373,196.93Z" transform="translate(-39.926 -188.089)" fill="#3f2c26"/>
    </g>
    <path id="패스_1964" data-name="패스 1964" d="M76.1,225.976H72.265a11.171,11.171,0,0,0-2.321-.272L71.7,207.643c0-.1-.018-.2-.022-.3H69.79a7.557,7.557,0,0,0-3.837-5.8l6.668-9.994a1.577,1.577,0,0,0,.227-.534,2.6,2.6,0,0,1-1.841-1.172,1.586,1.586,0,0,0-.365.386l-5.973,8.954a7.507,7.507,0,0,0-.426-1.212l3.725-11.041a1.535,1.535,0,0,0,.082-.478,2.7,2.7,0,0,1-.465.047h-.06a2.662,2.662,0,0,1-1.665-.6,1.527,1.527,0,0,0-.144.273L62.637,195.3a.7.7,0,0,0-.711-.557H61.84a.775.775,0,0,0-.292.059,7.559,7.559,0,0,0-1.747-.857.738.738,0,0,0-1.187-.3,7.056,7.056,0,0,0-2.524,0,.7.7,0,0,0-.58-.277.787.787,0,0,0-.2.035V258.85h8.823a1.577,1.577,0,0,0-1.695-1.41H61.8a7.814,7.814,0,0,0-1.218-1.605,7.632,7.632,0,0,0,.615-.709l.033-.043.079-.107a7.75,7.75,0,0,0,6.226-5.5c4.693-1.289,9-11.145,9-17.033a10.356,10.356,0,0,0-.248-2.345c.616-.151,1.091-1,1.091-2.047C77.381,226.907,76.808,225.976,76.1,225.976Zm-8.025,18.959,1.465-15.081c3.707.074,4.437.978,4.437,2.591C73.978,236.205,71.06,243,68.076,244.935Z" transform="translate(-4.169 0)" fill="#cfc9be" style="mix-blend-mode: multiply;isolation: isolate"/>
  </g>
</svg>
