<svg xmlns="http://www.w3.org/2000/svg" width="77.314" height="63.646" viewBox="0 0 77.314 63.646">
  <g id="그룹_338" data-name="그룹 338" transform="translate(-403.388 -221.601)">
    <g id="그룹_337" data-name="그룹 337" transform="translate(403.388 221.601)">
      <g id="그룹_335" data-name="그룹 335">
        <path id="패스_1965" data-name="패스 1965" d="M427.052,233.433A11.832,11.832,0,1,1,415.22,221.6,11.832,11.832,0,0,1,427.052,233.433Z" transform="translate(-403.388 -221.601)" fill="#f5e462"/>
        <path id="패스_1966" data-name="패스 1966" d="M425.332,233.256a10.29,10.29,0,1,1-10.289-10.29A10.289,10.289,0,0,1,425.332,233.256Z" transform="translate(-403.211 -221.424)" fill="#fff"/>
        <path id="패스_1967" data-name="패스 1967" d="M415.845,240.109c-.541.688-2.96.688-3.5,0-1.161-1.473,1.751-7.3,1.751-7.3S417.007,238.635,415.845,240.109Z" transform="translate(-402.261 -220.146)" fill="#f5e462"/>
        <path id="패스_1968" data-name="패스 1968" d="M420.368,237.1c.027.876-1.825,2.43-2.683,2.252-1.836-.382-3.351-6.72-3.351-6.72S420.311,235.229,420.368,237.1Z" transform="translate(-401.967 -220.169)" fill="#f5e462"/>
        <path id="패스_1969" data-name="패스 1969" d="M422.08,231.856c.582.654.163,3.036-.61,3.45-1.651.888-6.886-2.994-6.886-2.994S420.831,230.458,422.08,231.856Z" transform="translate(-401.935 -220.338)" fill="#f5e462"/>
        <path id="패스_1970" data-name="패스 1970" d="M419.945,227.133c.868.128,2.075,2.22,1.751,3.034-.695,1.742-7.2,2.136-7.2,2.136S418.091,226.865,419.945,227.133Z" transform="translate(-401.946 -220.884)" fill="#f5e462"/>
        <path id="패스_1971" data-name="패스 1971" d="M414.984,224.794c.746-.459,3.017.368,3.293,1.2.586,1.782-4.144,6.264-4.144,6.264S413.389,225.782,414.984,224.794Z" transform="translate(-402.016 -221.204)" fill="#f5e462"/>
        <path id="패스_1972" data-name="패스 1972" d="M409.948,225.993c.278-.83,2.548-1.657,3.293-1.2,1.6.987.852,7.462.852,7.462S409.364,227.773,409.948,225.993Z" transform="translate(-402.543 -221.204)" fill="#f5e462"/>
        <path id="패스_1973" data-name="패스 1973" d="M406.858,230.167c-.321-.816.887-2.906,1.753-3.034,1.857-.27,5.448,5.168,5.448,5.168S407.555,231.908,406.858,230.167Z" transform="translate(-402.944 -220.884)" fill="#f5e462"/>
        <path id="패스_1974" data-name="패스 1974" d="M407.143,235.306c-.772-.418-1.19-2.8-.608-3.45,1.25-1.4,7.5.456,7.5.456S408.8,236.192,407.143,235.306Z" transform="translate(-403.015 -220.338)" fill="#f5e462"/>
        <path id="패스_1975" data-name="패스 1975" d="M410.733,239.355c-.861.176-2.71-1.376-2.686-2.252.058-1.877,6.037-4.468,6.037-4.468S412.569,238.973,410.733,239.355Z" transform="translate(-402.783 -220.169)" fill="#f5e462"/>
      </g>
      <g id="그룹_336" data-name="그룹 336" transform="translate(37.259 17.657)">
        <path id="패스_1976" data-name="패스 1976" d="M458.121,267.218c-10.812,0-21.755-4.978-21.755-14.493a13.137,13.137,0,0,1,6.4-11.168,25.284,25.284,0,0,1,13.632-3.619c2.2,0,4.349-.193,6.426-.384,1.829-.168,3.56-.325,5.129-.325,2.1,0,8.471,0,8.471,7.592C476.422,253.736,469.123,267.218,458.121,267.218Zm9.829-25.6c-1.373,0-3,.15-4.729.305-2.073.19-4.425.4-6.826.4-7.534,0-15.638,3.253-15.638,10.394,0,6.323,8.828,10.1,17.364,10.1,7.936,0,13.91-10.924,13.91-18.006C472.031,242.423,471.44,241.622,467.951,241.622Z" transform="translate(-436.366 -237.229)" fill="#ccc1ab"/>
      </g>
      <path id="패스_1977" data-name="패스 1977" d="M432,280.749H451.07c10.8-6.369,18.523-23.241,18.523-43.057,0-1.9-.071-3.778-.211-5.618h-55.7c-.138,1.84-.209,3.717-.209,5.618C413.475,257.508,421.194,274.38,432,280.749Z" transform="translate(-402.079 -220.242)" fill="#ccc1ab"/>
      <path id="패스_1978" data-name="패스 1978" d="M417.589,275.157a3.629,3.629,0,0,0,3.589,3.139h39.644a3.63,3.63,0,0,0,3.589-3.139Z" transform="translate(-401.545 -214.649)" fill="#ccc1ab"/>
      <path id="패스_1979" data-name="패스 1979" d="M416.494,248.762c2.4,12.526,8.113,22.871,15.722,27.645h17.852c7.609-4.776,13.327-15.119,15.722-27.645Z" transform="translate(-401.687 -218.076)" fill="#f5e462"/>
      <path id="패스_1980" data-name="패스 1980" d="M418.941,257.535c2.984,7.955,7.476,14.293,12.958,17.733h17.852c5.482-3.44,9.972-9.781,12.955-17.733Z" transform="translate(-401.369 -216.937)" fill="#3f2c26"/>
    </g>
    <path id="패스_1981" data-name="패스 1981" d="M467.7,237.9c-.425,0-.888.034-1.333.053,0-.087,0-.172,0-.259,0-1.9-.071-3.778-.211-5.618H438.31v51.814h19.822a3.63,3.63,0,0,0,3.589-3.139H447.847c4.517-2.662,8.483-7.18,11.583-12.961,10.124-1.2,16.74-13.812,16.74-22.3C476.17,237.9,469.794,237.9,467.7,237.9Zm-5.85,24.661a66.036,66.036,0,0,0,4.361-20.218c.521-.03,1.024-.051,1.489-.051,3.489,0,4.081.8,4.081,3.2C471.779,251.327,467.718,259.769,461.848,262.559Z" transform="translate(4.533 1.359)" fill="#ccc1ab" style="mix-blend-mode: multiply;isolation: isolate"/>
  </g>
</svg>
